<svg width="924" height="941" viewBox="0 0 924 941" fill="none" xmlns="http://www.w3.org/2000/svg">
<path opacity="0.02" d="M48.3225 78.0589C-23.3198 12.2641 0.917816 -55.7456 21.9919 -81.5261L318.065 -486.937L1655.98 490.148L1359.91 895.559C1341.76 923.479 1284.36 967.265 1199.88 919.045C1094.28 858.77 1068.84 899.142 1031.17 919.35C993.499 939.559 947.036 953.348 881.575 867.645C816.115 781.943 740.379 714.001 635.183 727.004C551.026 737.406 498.816 707.417 481.045 694.439C463.273 681.46 418.817 640.853 403.114 557.523C383.484 453.36 295.716 401.894 194.157 365.621C92.5978 329.348 91.592 280.893 99.3768 238.857C107.162 196.821 137.875 160.302 48.3225 78.0589Z" fill="black"/>
</svg>
