<svg width="2596" height="2182" viewBox="0 0 2596 2182" fill="none" xmlns="http://www.w3.org/2000/svg">
<path opacity="0.9" d="M444.937 840.746C361.062 764.559 400.054 700.691 430.034 678.281L856.319 320.52L2452.29 1493.44L2026 1851.2C1999.52 1876.18 1920.96 1910.96 1818.6 1850.29C1690.66 1774.44 1653.38 1810.68 1602.83 1825.04C1552.28 1839.4 1491.24 1846.06 1417.61 1751.04C1343.98 1656.02 1255.12 1577.08 1119.08 1574.06C1010.24 1571.65 946.997 1533.96 925.798 1518.38C904.599 1502.8 852.526 1455.74 842.245 1370.61C829.393 1264.2 723.211 1199.8 597.607 1148.4C472.003 1097 476.415 1048.73 491.313 1008.16C506.212 967.595 549.782 935.981 444.937 840.746Z" fill="#924EEA" fill-opacity="0.16"/>
<path d="M491.265 472.499C448.804 395.76 511.655 348.504 548.388 334.468L1087.67 102.222L2015.78 1331.22L1476.5 1563.47C1441.8 1580.19 1355.94 1596.98 1290.1 1530.31C1207.8 1446.97 1158.49 1471.42 1106.73 1475.52C1054.96 1479.62 997.099 1475.65 972.043 1384.78C946.988 1293.91 901.235 1214.09 780.012 1190.32C683.034 1171.3 642.443 1129.95 630.115 1113.62C617.787 1097.3 591.32 1049.86 619.025 977.143C653.657 886.251 585.987 815.874 495.18 753.321C404.374 690.767 429.308 651.136 460.34 619.58C491.373 588.024 544.342 568.423 491.265 472.499Z" fill="black"/>
<path d="M491.265 472.499C448.804 395.76 511.655 348.504 548.388 334.468L1087.67 102.222L2015.78 1331.22L1476.5 1563.47C1441.8 1580.19 1355.94 1596.98 1290.1 1530.31C1207.8 1446.97 1158.49 1471.42 1106.73 1475.52C1054.96 1479.62 997.099 1475.65 972.043 1384.78C946.988 1293.91 901.235 1214.09 780.012 1190.32C683.034 1171.3 642.443 1129.95 630.115 1113.62C617.787 1097.3 591.32 1049.86 619.025 977.143C653.657 886.251 585.987 815.874 495.18 753.321C404.374 690.767 429.308 651.136 460.34 619.58C491.373 588.024 544.342 568.423 491.265 472.499Z" fill="url(#paint0_linear_895_2)"/>
<defs>
<linearGradient id="paint0_linear_895_2" x1="591.065" y1="394.085" x2="1141.09" y2="2008.35" gradientUnits="userSpaceOnUse">
<stop stop-color="#924EEA"/>
<stop offset="0.38" stop-color="#9747FF"/>
<stop offset="0.989516" stop-color="#20007D"/>
</linearGradient>
</defs>
</svg>
