<svg width="824" height="716" viewBox="0 0 824 716" fill="none" xmlns="http://www.w3.org/2000/svg">
<path d="M58.4922 -154.09C25.8776 -218.796 80.6073 -278.483 112.049 -300.238L574.698 -644.937L1305.58 336.041L842.93 680.739C813.089 704.643 740.239 740.009 687.569 690.246C621.73 628.043 579.298 662.664 535.618 678.168C491.939 693.673 443.457 702.732 426.041 620.488C408.625 538.244 373.366 471.298 272.417 475.346C191.658 478.584 159.196 447.66 149.488 434.629C139.78 421.599 119.435 381.647 145.642 305.189C178.401 209.618 124.34 156.681 50.5156 116.464C-23.3085 76.2467 -0.758073 32.3829 26.5945 -5.03554C53.947 -42.454 99.2606 -73.2079 58.4922 -154.09Z" fill="#924EEA"/>
</svg>
