<svg width="574" height="478" viewBox="0 0 574 478" fill="none" xmlns="http://www.w3.org/2000/svg">
<path d="M63.0325 450.039C62.8266 458.911 64.1745 467.756 67.0256 476.243C67.1255 476.551 67.2453 476.859 67.3651 477.168H126.145C125.304 473.41 123.97 469.757 122.171 466.287C117.28 456.858 109.293 448.788 101.407 440.773C90.5454 429.729 79.9436 418.776 78.2664 404.414C73.9612 410.375 70.525 416.818 68.0439 423.581C71.0815 424.603 73.8693 426.156 76.2498 428.151C76.9087 428.713 77.6076 429.529 77.2681 430.309C76.9487 430.962 76.0702 431.18 75.2915 431.325C73.4147 431.651 71.5379 431.977 69.6611 432.286C68.1837 432.558 66.6863 432.812 65.1888 433.066C63.8727 438.647 63.1505 444.332 63.0325 450.039Z" fill="#9747FF"/>
<path d="M13.6571 444.164C23.081 449.368 29.0708 457.42 33.9623 466.432C38.219 467.313 42.1488 469.189 45.3628 471.873C46.0417 472.435 46.7404 473.251 46.3811 474.03C46.0815 474.683 45.1831 474.901 44.4045 475.046C42.5477 475.373 40.6509 475.699 38.7941 476.007C38.9737 476.388 39.1535 476.787 39.3331 477.168H101.626C98.7987 473.704 95.6671 470.453 92.2625 467.448C91.5237 466.777 90.7651 466.142 89.9864 465.489C82.0455 458.971 72.9275 453.745 63.0325 450.039C47.4443 444.12 30.398 442.092 13.6571 444.164Z" fill="#9747FF"/>
<path d="M91.2442 477.167H146.709C147.012 473.133 146.986 469.084 146.629 465.054C145.428 452.578 141.263 440.487 134.421 429.614C127.579 418.742 118.223 409.346 106.997 402.074C109.872 411.377 108.395 420.625 105.4 429.91C105.819 430.037 106.239 430.145 106.618 430.29C109.656 431.313 112.443 432.865 114.824 434.86C115.483 435.423 116.181 436.239 115.842 437.018C115.543 437.671 114.644 437.889 113.866 438.034C111.989 438.36 110.112 438.687 108.255 438.995C106.758 439.267 105.26 439.521 103.763 439.793C103.064 439.902 102.365 440.029 101.666 440.155C101.567 440.373 101.507 440.573 101.407 440.772C97.8929 449.567 94.0595 458.435 92.2625 467.447C91.8177 469.709 91.5111 471.992 91.344 474.284C91.2842 475.245 91.2442 476.206 91.2442 477.167Z" fill="#9747FF"/>
<path d="M292.893 337.517C293.368 338.149 294.617 338.903 295.104 339.525L294.585 338.094L294.762 337.763L295.867 335.755L324.019 284.224L324.03 284.214L371.754 196.9V196.89L372.849 194.892V194.882L396.467 151.667L397.584 149.618C396.744 149.638 395.903 149.668 395.063 149.709L393.935 151.767L370.383 194.882L370.372 194.892L369.277 196.89V196.9L322.77 281.994V282.005L321.675 284.003V284.013L293.523 335.503L293.147 336.196L292.893 337.517Z" fill="#524C97"/>
<path d="M296.033 196.901H506.72C506.156 196.228 505.581 195.555 504.984 194.893H297.769C297.172 195.555 296.597 196.228 296.033 196.901Z" fill="#524C97"/>
<path d="M498.703 188.273V349.885C499.466 349.152 500.196 348.409 500.915 347.665V190.493C500.196 189.75 499.466 189.007 498.703 188.273Z" fill="#524C97"/>
<path d="M294.073 335.753H499.809V337.762H294.073V335.753Z" fill="#524C97"/>
<path d="M294.253 337.517H293.998V337.186C294.076 337.301 294.161 337.411 294.253 337.517ZM295.956 196.654C296.52 195.981 297.094 195.309 297.691 194.646C309.436 181.262 324.191 170.308 340.969 162.516C357.747 154.724 376.162 150.274 394.985 149.462C395.825 149.422 396.666 149.392 397.506 149.372C398.767 149.342 400.027 149.322 401.299 149.322C419.586 149.313 437.677 152.748 454.429 159.41C471.181 166.072 486.23 175.816 498.626 188.027C499.389 188.761 500.119 189.504 500.837 190.247C502.242 191.683 503.598 193.149 504.907 194.646C505.504 195.309 506.078 195.981 506.642 196.654C525.329 218.78 534.967 246.118 533.908 273.987C532.85 301.856 521.159 328.525 500.837 349.428C500.119 350.171 499.389 350.914 498.626 351.647C485.263 364.791 468.842 375.064 450.558 381.718C432.274 388.372 412.586 391.241 392.928 390.114C373.269 388.988 354.135 383.895 336.916 375.206C319.698 366.518 304.828 354.452 293.39 339.887C292.903 339.264 292.417 338.642 291.942 338.009C279.679 321.873 271.975 303.245 269.506 283.767C269.407 283.104 269.329 282.431 269.263 281.758C268.832 277.842 268.615 273.868 268.611 269.837C268.577 243.37 278.192 217.636 295.956 196.654ZM271.729 283.767C274.136 302.463 281.455 320.36 293.07 335.95C293.368 336.362 293.678 336.774 293.998 337.186C294.076 337.301 294.161 337.411 294.253 337.517C294.33 337.627 294.418 337.738 294.507 337.848C305.786 352.486 320.568 364.615 337.744 373.325C354.919 382.036 374.043 387.102 393.681 388.143C413.319 389.185 432.962 386.175 451.137 379.34C469.312 372.504 485.547 362.021 498.626 348.675C499.389 347.911 500.13 347.148 500.837 346.365C520.281 325.558 531.204 299.285 531.754 271.999C532.304 244.713 522.448 218.093 503.856 196.654C503.27 195.981 502.684 195.309 502.076 194.646C501.677 194.194 501.269 193.752 500.837 193.31C500.13 192.527 499.389 191.763 498.626 191C486.411 178.517 471.421 168.527 454.645 161.689C437.868 154.851 419.687 151.32 401.299 151.33C399.651 151.33 398.015 151.36 396.39 151.421C395.538 151.441 394.698 151.481 393.857 151.521C375.862 152.455 358.276 156.77 342.211 164.193C326.145 171.616 311.95 181.985 300.522 194.646C299.914 195.308 299.328 195.981 298.742 196.654C277.877 220.752 268.104 251.255 271.474 281.758C271.552 282.431 271.629 283.104 271.729 283.767ZM294.253 337.517H293.998V337.186C294.076 337.301 294.161 337.411 294.253 337.517Z" fill="black"/>
<path d="M418.022 111.107C418.022 111.659 418.042 112.207 418.081 112.75C418.302 115.882 419.173 118.947 420.648 121.785C420.66 121.81 420.673 121.832 420.685 121.855C420.753 121.986 420.824 122.118 420.896 122.248C421.335 123.05 421.822 123.83 422.354 124.585C424.787 128.048 428.122 130.913 432.063 132.928C436.005 134.942 440.432 136.044 444.954 136.136L444.681 150.374L441.126 148.674L440.491 149.77L444.654 151.761L444.145 178.204L444.14 178.558L446.888 179.113L446.883 178.758L446.017 136.138C449.657 136.09 453.25 135.387 456.587 134.068C459.925 132.749 462.941 130.841 465.46 128.454C465.634 128.292 465.805 128.124 465.973 127.957L465.992 127.938C468.091 125.859 469.788 123.474 471.013 120.882C470.986 120.909 470.957 120.935 470.931 120.963C482.289 95.0377 475.681 83.0192 457.858 88.6953C457.763 88.652 457.666 88.6104 457.571 88.5672C451.337 85.84 444.203 85.3396 437.582 87.1651C430.961 88.9907 425.337 93.0089 421.825 98.4233C421.657 98.6795 421.495 98.941 421.338 99.2041C419.157 102.858 418.016 106.95 418.022 111.107Z" fill="#524C97"/>
<path d="M385.609 89.0542C385.941 94.0283 387.358 98.8928 389.777 103.365C394.432 111.922 402.604 118.41 412.788 120.83C412.804 120.838 412.824 120.842 412.843 120.84C415.405 121.447 418.035 121.788 420.682 121.855H420.904C421.18 121.865 421.457 121.865 421.733 121.865C421.921 121.865 422.109 121.865 422.297 121.855C431.778 121.722 440.822 118.208 447.475 112.071C454.128 105.934 457.857 97.6668 457.857 89.0542V88.6927C457.841 86.5987 457.506 84.5169 456.862 82.5062C456.862 82.4962 456.851 82.4861 456.851 82.4761C455.65 78.9819 453.484 75.8253 450.559 73.3068C443.317 66.799 431.85 62.7115 421.733 56.2438C399.574 42.0832 383.298 56.1736 385.609 89.0542Z" fill="#9747FF"/>
<path opacity="0.2" d="M390.226 103.028C394.881 111.584 403.052 118.072 413.236 120.493C413.253 120.501 413.272 120.504 413.291 120.503C415.847 121.079 418.465 121.395 421.098 121.447H421.352C421.817 121.457 422.281 121.457 422.745 121.447C432.252 121.231 441.283 117.625 447.885 111.407C454.486 105.19 458.126 96.8614 458.018 88.2245C457.985 86.1906 457.748 84.1636 457.311 82.1686C457.311 82.1586 457.3 82.1485 457.3 82.1385C456.099 78.6443 453.933 75.4877 451.008 72.9692C451.99 77.2249 452.031 81.6155 451.129 85.8857C450.227 90.1559 448.399 94.2206 445.751 97.8436C443.104 101.467 439.69 104.575 435.709 106.989C431.727 109.404 427.257 111.075 422.557 111.906C422.215 111.966 421.872 112.026 421.529 112.077C420.534 112.227 419.539 112.338 418.533 112.408C413.349 112.79 408.135 112.15 403.249 110.531C398.363 108.912 393.921 106.352 390.226 103.028Z" fill="#212529"/>
<path d="M420.509 142.337L415.055 139.729L415.887 138.293L420.545 140.52L420.895 122.248V122.246L420.904 121.859V121.79L421.085 112.416L421.338 99.2043L421.532 89.0532H421.634L421.824 98.4227V98.425L422.104 112.247L422.298 121.784L422.299 121.863L422.355 124.584L423.46 179.168L423.468 179.528L419.778 180.469L419.785 180.105L420.509 142.337Z" fill="#524C97"/>
<path d="M305.863 173.148C310.633 170.097 316.017 167.93 321.709 166.769C327.401 165.608 333.289 165.477 339.036 166.383C344.784 167.289 350.279 169.215 355.207 172.049C360.135 174.884 364.401 178.573 367.76 182.905C381.885 201.123 396.06 248.896 386.054 276.571C356.21 247.939 310.36 244.964 295.122 229.366C278.838 212.699 285.805 185.978 305.863 173.148Z" fill="#9747FF"/>
<path d="M332.045 214.402C324.044 214.402 317.558 208.511 317.558 201.244C317.558 193.977 324.044 188.086 332.045 188.086C340.046 188.086 346.532 193.977 346.532 201.244C346.532 208.511 340.046 214.402 332.045 214.402Z" fill="white"/>
<path d="M398.301 290.901C393.06 290.901 388.812 287.042 388.812 282.282C388.812 277.523 393.06 273.664 398.301 273.664C403.541 273.664 407.79 277.523 407.79 282.282C407.79 287.042 403.541 290.901 398.301 290.901Z" fill="#9747FF"/>
<path opacity="0.2" d="M316.545 198.208C315.586 199.7 314.96 201.349 314.702 203.061C314.445 204.773 314.561 206.515 315.044 208.186C315.528 209.857 316.369 211.425 317.52 212.801C318.67 214.177 320.108 215.334 321.751 216.205C323.394 217.077 325.21 217.645 327.095 217.879C328.98 218.113 330.897 218.008 332.737 217.569C334.577 217.129 336.304 216.366 337.819 215.32C339.334 214.275 340.607 212.969 341.566 211.477C338.98 213.537 335.672 214.695 332.232 214.742C328.793 214.789 325.447 213.723 322.794 211.734C320.141 209.745 318.353 206.964 317.752 203.888C317.15 200.811 317.774 197.641 319.511 194.944C318.335 195.88 317.333 196.982 316.545 198.208Z" fill="#AB1C3F"/>
<path opacity="0.2" d="M295.094 229.429C310.333 245.027 356.183 248.002 386.027 276.634C386.958 274.015 387.675 271.337 388.172 268.623C358.343 242.594 315.046 239.305 300.322 224.234C287.144 210.746 289.196 190.674 301.088 176.708C284.778 190.44 280.172 214.155 295.094 229.429Z" fill="#AB1C3F"/>
<path d="M139.392 466.913H149.215L154.216 430.086H139.389L139.392 466.913Z" fill="#EFE3FF" stroke="#212529" stroke-width="1.05752"/>
<path d="M136.105 476.963L170.974 476.962V476.561C170.974 473.292 169.544 470.157 166.998 467.845C164.453 465.533 161.001 464.235 157.402 464.235H157.401L151.032 459.846L139.148 464.235L136.104 464.235L136.105 476.963Z" fill="#212529"/>
<path d="M190.346 424.918L181.416 460.845L190.99 462.809L204.801 427.882L190.346 424.918Z" fill="#EFE3FF" stroke="#212529" stroke-width="1.05752"/>
<path d="M175.77 469.988L209.783 476.963L209.88 476.572C210.673 473.383 210.038 470.039 208.116 467.275C206.194 464.511 203.142 462.553 199.631 461.833L199.63 461.833L194.482 456.277L181.825 458.181L178.856 457.573L175.77 469.988Z" fill="#212529"/>
<path d="M125.166 235.834C120.096 249.723 120.632 264.798 126.385 280.979L128.844 372.079C124.779 376.143 122.227 392.713 128.49 404.577C136.853 420.421 131.092 442.332 137.003 452.843H154.15L158.364 410.048L162.075 405.222L162.64 366.623C164.917 361.726 167.556 356.869 162.924 351.195L163.048 344.49L163.706 308.752L189.566 343.097C190.3 350.87 194.675 354.943 200.467 357.576L192.458 389.68C178.451 400.569 181.877 417.422 181.646 433.023L177.053 451.433L198.157 453.147L207.47 428.18L217.94 412.796L236.152 351.289L223.452 324.518L218.261 313.576L189.273 252.47L125.166 235.834Z" fill="#212529"/>
<path d="M303.965 185.909L303.967 185.907C305.304 184.711 306.101 183.121 306.224 181.442C306.346 179.764 305.788 178.096 304.642 176.755C303.494 175.411 301.835 174.488 299.972 174.172C298.109 173.856 296.186 174.173 294.57 175.057L294.496 175.097L294.412 175.113L268.87 179.833L264.711 191.669L291.709 184.776L292.047 184.69L292.259 184.967C292.893 185.794 293.723 186.489 294.691 187C295.659 187.51 296.742 187.823 297.862 187.914C298.983 188.005 300.11 187.871 301.166 187.524C302.221 187.177 303.176 186.624 303.965 185.909Z" fill="#EFE3FF" stroke="#212529" stroke-width="1.05752"/>
<path d="M281.456 175.756L254.17 175.574C246.811 173.706 239.054 173.546 231.609 175.11L230.161 175.414L218.774 174.241C211.985 161.916 199.388 150.772 182.478 140.507C179.928 138.64 176.971 137.285 173.803 136.531C170.634 135.777 167.326 135.641 164.096 136.132C160.865 136.622 157.786 137.729 155.061 139.379C152.335 141.028 150.025 143.184 148.283 145.703C145.137 150.263 144.03 155.742 145.187 161.02C146.345 166.297 149.68 170.973 154.509 174.09L206.039 201.607C210.56 204.022 215.695 205.325 220.94 205.39L221.065 205.449L250.459 195.446L265.58 193.698L286.084 188.286L281.456 175.756Z" fill="#9747FF"/>
<path d="M146.767 94.5398C146.767 107.115 158.008 117.394 171.983 117.394C185.958 117.394 197.198 107.115 197.198 94.5398C197.198 81.9647 185.958 71.686 171.983 71.686C158.008 71.686 146.767 81.9647 146.767 94.5398Z" stroke="#212529" stroke-width="1.05752"/>
<path d="M147.94 109.369C146.032 106.896 144.679 102.936 143.879 100.041C142.81 96.2295 142.634 92.2563 143.363 88.3791C144.092 84.5019 145.71 80.8071 148.112 77.5342C148.999 76.2002 150.269 75.1113 151.786 74.3847C153.344 73.753 155.398 73.9035 156.484 75.0985C156.487 74.0499 156.727 73.0131 157.188 72.0521C157.65 71.091 158.324 70.2261 159.168 69.5106C160.869 68.0878 162.912 67.0445 165.135 66.4636C169.417 65.2777 173.973 65.1668 178.319 66.1427C182.665 67.1186 186.639 69.145 189.819 72.0067C191.061 73.1549 190.618 67.4178 191.998 68.4284C193.334 69.514 195.085 70.0814 196.876 70.0092C198.639 69.8387 201.88 75.543 201.899 73.9333C203.753 75.6208 204.57 82.7374 203.99 85.0625C203.41 87.3876 194.782 86.36 192.308 87.1569C190.669 87.6847 188.889 87.7026 187.192 88.0462C184.175 88.7543 181.547 90.4413 179.806 92.7887C178.064 95.1361 177.329 97.9814 177.739 100.787C176.653 99.4614 175.339 98.3034 173.847 97.3581C173.095 96.8914 172.231 96.5945 171.328 96.492C170.424 96.3896 169.507 96.4846 168.652 96.7691C167.88 97.1452 167.201 97.6606 166.657 98.2837C166.112 98.9068 165.714 99.6244 165.486 100.392C164.924 101.896 164.706 103.492 164.134 104.992C162.454 109.394 161.588 114.014 156.907 115.058C153.213 115.882 150.545 112.746 147.94 109.369Z" fill="#212529"/>
<path d="M122.97 231.199L125.796 226.064C129.256 206.593 132.675 188.433 128.031 172.098C127.739 157.837 132.592 144.44 146.066 137.125L152.144 133.823L155.221 126.734L183.554 127.363L183.638 136.655L193.785 151.355V151.415L193.151 231.403L190.35 239.658L194.577 249.261L192.334 255.387L136.477 247.276L129.982 246.33C129.232 246.112 128.508 245.825 127.822 245.474C125.492 244.299 123.665 242.444 122.636 240.211C122.578 240.082 122.528 239.961 122.478 239.832C122.039 238.789 121.786 237.69 121.727 236.576C121.626 234.716 122.054 232.864 122.97 231.199Z" fill="#9747FF"/>
<path opacity="0.2" d="M121.727 236.576C121.786 237.69 122.039 238.789 122.478 239.832L127.822 245.474C128.508 245.825 129.232 246.112 129.982 246.33L136.477 247.277L127.08 231.229L147.734 190.16L121.727 236.576Z" fill="#212529"/>
<path d="M98.9662 283.63L98.969 283.628C99.943 283.025 100.755 282.238 101.352 281.325C101.948 280.413 102.314 279.396 102.429 278.346C102.543 277.297 102.403 276.237 102.017 275.239C101.631 274.242 101.007 273.329 100.185 272.567L99.8826 272.287L100.081 271.925L113.186 248.009L98.7587 249.605L88.3863 272.62L88.3474 272.707L88.281 272.774C86.9643 274.111 86.2419 275.831 86.2355 277.605C86.2291 279.379 86.9389 281.103 88.2457 282.448C89.5537 283.794 91.3689 284.666 93.3513 284.886C95.3338 285.106 97.3322 284.656 98.9662 283.63Z" stroke="#212529" stroke-width="1.05752"/>
<path d="M154.357 198.721L144.045 197.427C144.045 197.427 143.049 211.549 138.116 213.689C133.183 215.829 134.846 216.181 134.264 218.447C133.683 220.712 131.05 224.136 127.143 225.697C123.235 227.258 105.461 266.513 105.461 266.513L90.4952 263.344C91.88 259.935 92.7918 256.384 93.2097 252.771C93.7355 247.309 100.551 234.42 102.796 232.506C105.041 230.593 104.153 227.22 105.317 222.689C106.48 218.158 105.672 222.359 107.611 214.808C109.55 207.256 131.349 161.998 132.262 155.025C133.176 148.052 143.873 143.948 143.873 143.948L152.188 145.709L154.357 198.721Z" fill="#9747FF"/>
<path d="M325.626 478H1.03979C0.764038 478 0.499542 477.901 0.304565 477.723C0.109558 477.546 3.05176e-05 477.306 3.05176e-05 477.056C3.05176e-05 476.805 0.109558 476.565 0.304565 476.388C0.499542 476.211 0.764038 476.111 1.03979 476.111H325.626C325.902 476.111 326.166 476.211 326.361 476.388C326.556 476.565 326.666 476.805 326.666 477.056C326.666 477.306 326.556 477.546 326.361 477.723C326.166 477.901 325.902 478 325.626 478Z" fill="black"/>
</svg>
