<svg width="158" height="173" viewBox="0 0 158 173" fill="none" xmlns="http://www.w3.org/2000/svg">
<path d="M77.4581 172.539C77.4581 172.539 71.3517 163.74 67.8789 157.83C65.8736 154.418 64.7026 152.521 62.9778 148.959C60.8562 144.577 58.2996 137.402 58.2996 137.402C58.2996 137.402 57.4872 140.432 57.2971 142.422C57.1193 144.282 56.8931 145.383 57.2971 147.208C57.699 149.023 59.302 151.527 59.302 151.527C59.302 151.527 52.4336 145.68 48.8423 141.203C42.7503 133.609 39.6562 128.536 37.3588 119.076C36.7795 116.69 36.2449 112.889 36.2449 112.889C36.2449 112.889 34.823 116.587 34.4627 119.076C34.0839 121.692 34.4627 125.846 34.4627 125.846C34.4627 125.846 32.6574 123.685 31.6964 122.165C30.0952 119.633 28.3618 114.083 27.3213 108.624C26.3806 103.689 26.4147 100.804 26.3429 95.796C26.2778 91.2501 26.9998 84.1729 26.9998 84.1729C26.9998 84.1729 25.8867 85.4608 25.329 86.3908C24.7362 87.3792 24.4949 87.9915 24.1037 89.0756C23.4859 90.7881 23.1012 93.6282 23.1012 93.6282C23.1012 93.6282 21.2579 87.9422 21.14 84.1729C21.0012 79.7323 20.5109 74.5477 22.1184 68.7174C24.1493 61.3516 32.0122 51.8384 32.0122 51.8384L27.1969 45.7168L3.19885 51.0379C3.19885 51.0379 1.60383 57.5624 0.597413 63.6904C-3.44901 88.3289 14.0573 116.653 23.1012 129.348C27.7303 135.846 30.6282 139.321 36.2449 144.987C49.875 158.736 77.4581 172.539 77.4581 172.539Z" fill="#333333"/>
<path d="M79.9352 172.539C79.9352 172.539 86.0416 163.74 89.5145 157.83C91.5198 154.418 92.6907 152.521 94.4155 148.959C96.5371 144.577 99.0937 137.402 99.0937 137.402C99.0937 137.402 99.9061 140.432 100.096 142.422C100.274 144.282 100.5 145.383 100.096 147.208C99.6943 149.024 98.0913 151.527 98.0913 151.527C98.0913 151.527 104.96 145.68 108.551 141.203C114.643 133.609 117.737 128.536 120.035 119.076C120.614 116.69 121.148 112.889 121.148 112.889C121.148 112.889 122.57 116.587 122.931 119.076C123.309 121.692 122.931 125.846 122.931 125.846C122.931 125.846 124.736 123.685 125.697 122.165C127.298 119.633 129.032 114.083 130.072 108.624C131.013 103.689 130.979 100.804 131.05 95.7961C131.116 91.2502 130.394 84.173 130.394 84.173C130.394 84.173 131.507 85.4609 132.064 86.3909C132.657 87.3793 132.898 87.9916 133.29 89.0757C133.907 90.7881 134.292 93.6282 134.292 93.6282C134.292 93.6282 136.135 87.9422 136.253 84.173C136.392 79.7323 136.882 74.5477 135.275 68.7174C133.244 61.3517 125.381 51.8384 125.381 51.8384L129.25 45.4803L154.194 51.038C154.194 51.038 155.789 57.5624 156.796 63.6904C160.842 88.3289 143.336 116.654 134.292 129.348C129.663 135.846 126.765 139.321 121.148 144.987C107.518 158.736 79.9352 172.539 79.9352 172.539Z" fill="#333333"/>
<path d="M78.1617 0L13.4805 26.0664V50.6108H27.1972V35.3273L78.1617 14.7886L129.126 35.3273V50.5288H142.843V26.0664L78.1617 0Z" fill="#333333"/>
<rect x="99.3281" y="0.0739746" width="17.2641" height="19.8655" fill="#333333"/>
<path d="M78.6182 120.547L78.6278 120.552L78.6374 120.547C78.6374 120.547 83.9267 123.605 87.5274 125.148C91.2233 126.731 97.2847 128.493 97.2847 128.493C97.2847 128.493 93.8082 133.625 90.563 135.812C86.5462 138.519 83.5325 139.358 78.6374 139.576L78.6278 139.576L78.6182 139.576C73.7231 139.358 70.7094 138.519 66.6926 135.812C63.4474 133.625 59.9709 128.493 59.9709 128.493C59.9709 128.493 66.0323 126.731 69.7282 125.148C73.3289 123.605 78.6182 120.547 78.6182 120.547Z" fill="#333333"/>
<path fill-rule="evenodd" clip-rule="evenodd" d="M66.0085 37.7611C71.078 38.7002 77.8672 43.1383 78.6271 43.6429C79.3869 43.1383 86.1761 38.7002 91.2456 37.7611C95.1436 37.039 101.396 37.7611 101.396 37.7611C101.396 37.7611 105.712 39.4151 107.529 41.5723C109.568 43.9912 110.278 49.1946 110.278 49.1946C110.278 49.1946 115.354 53.6634 118.314 56.8169C121.275 59.9704 122.038 62.5134 122.61 66.4474C123.161 70.2334 121.553 76.187 121.553 76.187C121.553 76.187 119.69 80.7848 117.755 83.2448C114.701 87.1301 107.529 90.6939 107.529 90.6939L110.004 101.043C110.004 101.043 112.515 108.039 109.776 114.612C107.036 121.184 98.502 120.548 98.502 120.548C98.502 120.548 89.9889 120.453 86.6594 116.949C84.1993 114.36 82.6275 112.003 83.2095 108.479C83.7375 105.282 85.5818 103.702 88.2849 101.916C90.8802 100.2 95.9643 99.7983 95.9643 99.7983L93.1489 92.176C93.1489 92.176 84.4251 95.0243 78.6271 94.9298C72.8291 95.0243 64.1052 92.176 64.1052 92.176L61.2898 99.7983C61.2898 99.7983 66.3739 100.2 68.9692 101.916C71.6724 103.702 73.5166 105.282 74.0446 108.479C74.6266 112.003 73.0548 114.36 70.5948 116.949C67.2652 120.453 58.7521 120.548 58.7521 120.548C58.7521 120.548 50.2178 121.184 47.4784 114.612C44.7389 108.039 47.2496 101.043 47.2496 101.043L49.7249 90.6939C49.7249 90.6939 42.5535 87.1301 39.4987 83.2448C37.5646 80.7848 35.7012 76.187 35.7012 76.187C35.7012 76.187 34.0933 70.2334 34.6439 66.4474C35.216 62.5134 35.9787 59.9704 38.9396 56.8169C41.9006 53.6634 46.9757 49.1946 46.9757 49.1946C46.9757 49.1946 47.6866 43.9912 49.7249 41.5723C51.5426 39.4151 55.8577 37.7611 55.8577 37.7611C55.8577 37.7611 62.1105 37.039 66.0085 37.7611ZM93.4682 87.4741L90.5001 65.6371C90.5001 65.6371 97.4676 65.0588 101.525 63.941C105.582 62.8233 111.277 59.9128 111.277 59.9128L112.549 64.7891C112.549 64.7891 108.911 72.8503 104.493 73.4815C101.525 73.9055 97.7084 74.3295 97.7084 74.3295L93.4682 87.4741ZM67.1791 65.6371L64.211 87.4741L59.9708 74.3295C59.9708 74.3295 56.1546 73.9055 53.1865 73.4815C48.7681 72.8503 45.1301 64.7891 45.1301 64.7891L46.4022 59.9128C46.4022 59.9128 52.0977 62.8233 56.1546 63.941C60.2116 65.0588 67.1791 65.6371 67.1791 65.6371Z" fill="#333333"/>
</svg>
