<svg width="545" height="189" viewBox="0 0 545 189" fill="none" xmlns="http://www.w3.org/2000/svg">
<path d="M85.1452 188.736C85.1452 188.736 78.4655 179.112 74.6666 172.647C72.4731 168.915 71.1922 166.84 69.3055 162.943C66.9847 158.149 64.1881 150.302 64.1881 150.302C64.1881 150.302 63.2994 153.616 63.0915 155.792C62.897 157.828 62.6496 159.031 63.0915 161.028C63.5312 163.014 65.2847 165.752 65.2847 165.752C65.2847 165.752 57.7715 159.356 53.843 154.459C47.1791 146.152 43.7945 140.603 41.2814 130.254C40.6477 127.645 40.063 123.487 40.063 123.487C40.063 123.487 38.5076 127.532 38.1135 130.254C37.6991 133.117 38.1135 137.66 38.1135 137.66C38.1135 137.66 36.1387 135.296 35.0875 133.634C33.3359 130.864 31.4398 124.793 30.3016 118.822C29.2726 113.423 29.3099 110.268 29.2314 104.789C29.1601 99.8167 29.9499 92.0751 29.9499 92.0751C29.9499 92.0751 28.7324 93.4839 28.1223 94.5012C27.4739 95.5824 27.2099 96.2522 26.782 97.4381C26.1061 99.3112 25.6854 102.418 25.6854 102.418C25.6854 102.418 23.669 96.1982 23.5401 92.0751C23.3882 87.2176 22.8519 81.5463 24.6103 75.1686C26.8318 67.1114 35.4329 56.705 35.4329 56.705L30.1655 50.0088L3.91462 55.8295C3.91462 55.8295 2.16986 62.9664 1.06896 69.6697C-3.35733 96.6212 15.7924 127.605 25.6854 141.491C30.7491 148.599 33.919 152.401 40.063 158.598C54.9727 173.638 85.1452 188.736 85.1452 188.736Z" fill="white"/>
<path d="M87.855 188.736C87.855 188.736 94.5347 179.112 98.3335 172.647C100.527 168.914 101.808 166.84 103.695 162.943C106.015 158.149 108.812 150.302 108.812 150.302C108.812 150.302 109.701 153.616 109.909 155.792C110.103 157.827 110.351 159.031 109.909 161.028C109.469 163.014 107.716 165.752 107.716 165.752C107.716 165.752 115.229 159.356 119.157 154.459C125.821 146.152 129.206 140.603 131.719 130.254C132.352 127.645 132.937 123.487 132.937 123.487C132.937 123.487 134.493 127.532 134.887 130.254C135.301 133.117 134.887 137.66 134.887 137.66C134.887 137.66 136.861 135.296 137.913 133.634C139.664 130.864 141.56 124.793 142.699 118.822C143.728 113.423 143.69 110.268 143.769 104.789C143.84 99.8166 143.05 92.075 143.05 92.075C143.05 92.075 144.268 93.4838 144.878 94.5011C145.526 95.5823 145.79 96.2521 146.218 97.438C146.894 99.3112 147.315 102.418 147.315 102.418C147.315 102.418 149.331 96.1981 149.46 92.075C149.612 87.2175 150.148 81.5462 148.39 75.1685C146.168 67.1113 137.567 56.7049 137.567 56.7049L141.8 49.75L169.086 55.8294C169.086 55.8294 170.83 62.9663 171.931 69.6696C176.358 96.6211 157.208 127.605 147.315 141.491C142.251 148.599 139.081 152.401 132.937 158.598C118.028 173.638 87.855 188.736 87.855 188.736Z" fill="white"/>
<path d="M85.9148 0L15.1614 28.5135V55.3621H30.1658V38.6437L85.9148 16.177L141.664 38.6437V55.2723H156.668V28.5135L85.9148 0Z" fill="white"/>
<rect x="109.068" y="0.0810547" width="18.8848" height="21.7305" fill="white"/>
<path d="M86.4142 131.864L86.4247 131.87L86.4353 131.864C86.4353 131.864 92.2211 135.209 96.1598 136.896C100.203 138.628 106.833 140.556 106.833 140.556C106.833 140.556 103.03 146.17 99.4804 148.562C95.0865 151.523 91.7899 152.441 86.4353 152.679L86.4247 152.68L86.4142 152.679C81.0596 152.441 77.7629 151.523 73.3691 148.562C69.8192 146.17 66.0164 140.556 66.0164 140.556C66.0164 140.556 72.6468 138.628 76.6897 136.896C80.6284 135.209 86.4142 131.864 86.4142 131.864Z" fill="white"/>
<path d="M72.6207 41.3061C78.166 42.3334 85.5926 47.1882 86.4238 47.74C87.255 47.1882 94.6816 42.3334 100.227 41.3061C104.491 40.5163 111.331 41.3061 111.331 41.3061C111.331 41.3061 116.051 43.1154 118.039 45.4751C120.269 48.1211 121.047 53.813 121.047 53.813C121.047 53.813 126.598 58.7013 129.837 62.1509C133.076 65.6004 133.91 68.3821 134.536 72.6854C135.138 76.8269 133.379 83.3394 133.379 83.3394C133.379 83.3394 131.341 88.3688 129.225 91.0597C125.884 95.3098 118.039 99.2081 118.039 99.2081L120.747 110.529C120.747 110.529 123.493 118.182 120.497 125.371C117.5 132.561 108.165 131.865 108.165 131.865C108.165 131.865 98.8523 131.761 95.2102 127.928C92.5192 125.096 90.7998 122.518 91.4365 118.663C92.0141 115.166 94.0314 113.438 96.9883 111.483C99.8272 109.607 105.389 109.167 105.389 109.167L102.309 100.829C102.309 100.829 92.7661 103.945 86.4238 103.842C80.0815 103.945 70.5387 100.829 70.5387 100.829L67.459 109.167C67.459 109.167 73.0204 109.607 75.8593 111.483C78.8162 113.438 80.8336 115.166 81.4112 118.663C82.0478 122.518 80.3284 125.096 77.6375 127.928C73.9953 131.761 64.6831 131.865 64.6831 131.865C64.6831 131.865 55.3475 132.561 52.3509 125.371C49.3543 118.182 52.1007 110.529 52.1007 110.529L54.8084 99.2081C54.8084 99.2081 46.9637 95.3098 43.6222 91.0597C41.5065 88.3688 39.4682 83.3394 39.4682 83.3394C39.4682 83.3394 37.7093 76.8269 38.3116 72.6854C38.9374 68.3821 39.7717 65.6004 43.0106 62.1509C46.2496 58.7013 51.8011 53.813 51.8011 53.813C51.8011 53.813 52.5787 48.1211 54.8084 45.4751C56.7967 43.1154 61.5169 41.3061 61.5169 41.3061C61.5169 41.3061 68.3568 40.5163 72.6207 41.3061Z" fill="white"/>
<path d="M102.658 95.6858L99.4115 71.7988C99.4115 71.7988 107.033 71.1661 111.471 69.9435C115.909 68.7208 122.139 65.5371 122.139 65.5371L123.53 70.8711C123.53 70.8711 119.551 79.6891 114.718 80.3795C111.471 80.8433 107.297 81.3072 107.297 81.3072L102.658 95.6858Z" fill="#9747FF"/>
<path d="M70.6544 95.6858L73.9012 71.7988C73.9012 71.7988 66.2796 71.1661 61.8417 69.9435C57.4039 68.7208 51.1738 65.5371 51.1738 65.5371L49.7823 70.8711C49.7823 70.8711 53.7618 79.6891 58.595 80.3795C61.8417 80.8433 66.0162 81.3072 66.0162 81.3072L70.6544 95.6858Z" fill="#9747FF"/>
<path d="M306.715 10.7734H342.043V119.287C342.043 131.471 339.133 142.132 333.313 151.27C327.548 160.408 319.47 167.534 309.081 172.646C298.692 177.705 286.59 180.234 272.774 180.234C258.904 180.234 246.774 177.705 236.385 172.646C225.996 167.534 217.919 160.408 212.153 151.27C206.388 142.132 203.505 131.471 203.505 119.287V10.7734H238.833V116.268C238.833 122.632 240.22 128.289 242.994 133.239C245.822 138.189 249.793 142.078 254.906 144.906C260.019 147.735 265.975 149.149 272.774 149.149C279.628 149.149 285.584 147.735 290.642 144.906C295.755 142.078 299.699 138.189 302.473 133.239C305.301 128.289 306.715 122.632 306.715 116.268V10.7734ZM357.324 177.868V10.7734H423.248C435.867 10.7734 446.637 13.0307 455.558 17.5453C464.532 22.0055 471.359 28.3423 476.036 36.5556C480.769 44.7145 483.135 54.3149 483.135 65.3566C483.135 76.4528 480.741 85.9987 475.955 93.9944C471.168 101.936 464.233 108.028 455.15 112.27C446.12 116.513 435.187 118.634 422.351 118.634H378.211V90.2413H416.64C423.384 90.2413 428.987 89.3167 433.447 87.4673C437.907 85.6179 441.225 82.8439 443.401 79.1452C445.631 75.4465 446.746 70.8503 446.746 65.3566C446.746 59.8085 445.631 55.1308 443.401 51.3233C441.225 47.5158 437.88 44.6329 433.365 42.6748C428.905 40.6623 423.275 39.656 416.476 39.656H392.652V177.868H357.324ZM447.562 101.827L489.091 177.868H450.091L409.46 101.827H447.562ZM529.644 10.7734V177.868H494.316V10.7734H529.644Z" fill="white"/>
</svg>
