<svg width="545" height="189" viewBox="0 0 545 189" fill="none" xmlns="http://www.w3.org/2000/svg">
<path d="M85.1452 188.735C85.1452 188.735 78.4655 179.111 74.6667 172.646C72.4731 168.914 71.1922 166.839 69.3055 162.942C66.9847 158.148 64.1881 150.301 64.1881 150.301C64.1881 150.301 63.2994 153.615 63.0915 155.791C62.8971 157.827 62.6496 159.03 63.0915 161.027C63.5312 163.013 65.2847 165.751 65.2847 165.751C65.2847 165.751 57.7715 159.355 53.843 154.458C47.1791 146.151 43.7945 140.602 41.2814 130.253C40.6477 127.644 40.063 123.486 40.063 123.486C40.063 123.486 38.5076 127.531 38.1135 130.253C37.6991 133.116 38.1135 137.659 38.1135 137.659C38.1135 137.659 36.1387 135.296 35.0875 133.633C33.3359 130.863 31.4398 124.792 30.3016 118.821C29.2726 113.422 29.3099 110.267 29.2314 104.788C29.1601 99.8157 29.9499 92.0741 29.9499 92.0741C29.9499 92.0741 28.7324 93.4829 28.1223 94.5002C27.4739 95.5814 27.2099 96.2512 26.782 97.4371C26.1061 99.3103 25.6854 102.417 25.6854 102.417C25.6854 102.417 23.669 96.1972 23.5401 92.0741C23.3882 87.2166 22.8519 81.5453 24.6103 75.1677C26.8318 67.1104 35.4329 56.704 35.4329 56.704L30.1655 50.0078L3.91462 55.8285C3.91462 55.8285 2.16986 62.9654 1.06896 69.6687C-3.35733 96.6202 15.7924 127.604 25.6854 141.49C30.7491 148.598 33.919 152.4 40.063 158.597C54.9727 173.637 85.1452 188.735 85.1452 188.735Z" fill="white"/>
<path d="M87.855 188.736C87.855 188.736 94.5347 179.112 98.3335 172.647C100.527 168.914 101.808 166.84 103.695 162.943C106.015 158.149 108.812 150.302 108.812 150.302C108.812 150.302 109.701 153.616 109.909 155.792C110.103 157.827 110.351 159.031 109.909 161.028C109.469 163.014 107.716 165.752 107.716 165.752C107.716 165.752 115.229 159.356 119.157 154.459C125.821 146.152 129.206 140.603 131.719 130.254C132.352 127.645 132.937 123.487 132.937 123.487C132.937 123.487 134.493 127.532 134.887 130.254C135.301 133.117 134.887 137.66 134.887 137.66C134.887 137.66 136.861 135.296 137.913 133.634C139.664 130.864 141.56 124.793 142.699 118.822C143.728 113.423 143.69 110.268 143.769 104.789C143.84 99.8166 143.05 92.075 143.05 92.075C143.05 92.075 144.268 93.4838 144.878 94.5011C145.526 95.5823 145.79 96.2521 146.218 97.438C146.894 99.3112 147.315 102.418 147.315 102.418C147.315 102.418 149.331 96.1981 149.46 92.075C149.612 87.2175 150.148 81.5462 148.39 75.1685C146.168 67.1113 137.567 56.7049 137.567 56.7049L141.8 49.75L169.086 55.8294C169.086 55.8294 170.83 62.9663 171.931 69.6696C176.358 96.6211 157.208 127.605 147.315 141.491C142.251 148.599 139.081 152.401 132.937 158.598C118.027 173.638 87.855 188.736 87.855 188.736Z" fill="white"/>
<path d="M85.9148 0L15.1614 28.5135V55.3621H30.1658V38.6437L85.9148 16.177L141.664 38.6437V55.2723H156.668V28.5135L85.9148 0Z" fill="white"/>
<rect x="109.068" y="0.0800781" width="18.8848" height="21.7305" fill="white"/>
<path d="M86.4142 131.863L86.4247 131.869L86.4353 131.863C86.4353 131.863 92.2211 135.208 96.1598 136.895C100.203 138.627 106.833 140.555 106.833 140.555C106.833 140.555 103.03 146.169 99.4804 148.561C95.0865 151.522 91.7899 152.44 86.4353 152.678L86.4247 152.679L86.4142 152.678C81.0596 152.44 77.7629 151.522 73.3691 148.561C69.8192 146.169 66.0164 140.555 66.0164 140.555C66.0164 140.555 72.6468 138.627 76.6897 136.895C80.6284 135.208 86.4142 131.863 86.4142 131.863Z" fill="white"/>
<path fill-rule="evenodd" clip-rule="evenodd" d="M72.6207 41.3061C78.166 42.3334 85.5926 47.1882 86.4238 47.74C87.255 47.1882 94.6816 42.3334 100.227 41.3061C104.491 40.5163 111.331 41.3061 111.331 41.3061C111.331 41.3061 116.051 43.1154 118.039 45.4751C120.269 48.1211 121.047 53.813 121.047 53.813C121.047 53.813 126.598 58.7013 129.837 62.1509C133.076 65.6004 133.91 68.3821 134.536 72.6854C135.138 76.8269 133.379 83.3394 133.379 83.3394C133.379 83.3394 131.341 88.3688 129.225 91.0597C125.884 95.3098 118.039 99.2081 118.039 99.2081L120.747 110.529C120.747 110.529 123.493 118.182 120.497 125.371C117.5 132.561 108.165 131.865 108.165 131.865C108.165 131.865 98.8523 131.761 95.2102 127.928C92.5192 125.096 90.7998 122.518 91.4365 118.663C92.0141 115.166 94.0314 113.438 96.9883 111.483C99.8272 109.607 105.389 109.167 105.389 109.167L102.309 100.829C102.309 100.829 92.7661 103.945 86.4238 103.842C80.0815 103.945 70.5387 100.829 70.5387 100.829L67.459 109.167C67.459 109.167 73.0204 109.607 75.8593 111.483C78.8162 113.438 80.8336 115.166 81.4112 118.663C82.0478 122.518 80.3284 125.096 77.6375 127.928C73.9953 131.761 64.6831 131.865 64.6831 131.865C64.6831 131.865 55.3475 132.561 52.3509 125.371C49.3543 118.182 52.1007 110.529 52.1007 110.529L54.8084 99.2081C54.8084 99.2081 46.9637 95.3098 43.6222 91.0597C41.5065 88.3688 39.4682 83.3394 39.4682 83.3394C39.4682 83.3394 37.7093 76.8269 38.3116 72.6854C38.9374 68.3821 39.7717 65.6004 43.0106 62.1509C46.2496 58.7013 51.8011 53.813 51.8011 53.813C51.8011 53.813 52.5787 48.1211 54.8084 45.4751C56.7967 43.1154 61.5169 41.3061 61.5169 41.3061C61.5169 41.3061 68.3568 40.5163 72.6207 41.3061ZM102.658 95.6858L99.4115 71.7988C99.4115 71.7988 107.033 71.1661 111.471 69.9435C115.909 68.7208 122.139 65.5371 122.139 65.5371L123.53 70.8711C123.53 70.8711 119.551 79.6891 114.718 80.3795C111.471 80.8433 107.297 81.3072 107.297 81.3072L102.658 95.6858ZM73.9012 71.7988L70.6544 95.6858L66.0162 81.3072C66.0162 81.3072 61.8417 80.8433 58.595 80.3795C53.7618 79.6891 49.7823 70.8711 49.7823 70.8711L51.1738 65.5371C51.1738 65.5371 57.4039 68.7208 61.8417 69.9435C66.2796 71.1661 73.9012 71.7988 73.9012 71.7988Z" fill="white"/>
<path d="M306.715 10.7744H342.043V119.288C342.043 131.472 339.133 142.133 333.313 151.271C327.548 160.409 319.47 167.535 309.081 172.647C298.692 177.706 286.59 180.235 272.774 180.235C258.904 180.235 246.774 177.706 236.385 172.647C225.996 167.535 217.919 160.409 212.153 151.271C206.388 142.133 203.505 131.472 203.505 119.288V10.7744H238.833V116.269C238.833 122.633 240.22 128.29 242.994 133.24C245.822 138.19 249.793 142.079 254.906 144.907C260.019 147.736 265.975 149.15 272.774 149.15C279.628 149.15 285.584 147.736 290.642 144.907C295.755 142.079 299.699 138.19 302.473 133.24C305.301 128.29 306.715 122.633 306.715 116.269V10.7744ZM357.324 177.869V10.7744H423.248C435.867 10.7744 446.637 13.0317 455.558 17.5463C464.532 22.0065 471.359 28.3433 476.036 36.5566C480.769 44.7155 483.135 54.3158 483.135 65.3576C483.135 76.4537 480.741 85.9997 475.955 93.9954C471.168 101.937 464.233 108.029 455.15 112.271C446.12 116.514 435.187 118.635 422.351 118.635H378.211V90.2423H416.64C423.384 90.2423 428.987 89.3176 433.447 87.4683C437.907 85.6189 441.225 82.8449 443.401 79.1462C445.631 75.4475 446.746 70.8513 446.746 65.3576C446.746 59.8095 445.631 55.1317 443.401 51.3242C441.225 47.5167 437.88 44.6339 433.365 42.6758C428.905 40.6633 423.275 39.657 416.476 39.657H392.652V177.869H357.324ZM447.562 101.828L489.091 177.869H450.091L409.46 101.828H447.562ZM529.644 10.7744V177.869H494.316V10.7744H529.644Z" fill="white"/>
</svg>
