<svg width="103" height="44" viewBox="0 0 103 44" fill="none" xmlns="http://www.w3.org/2000/svg">
<path d="M47.1023 7.57139V25.871C47.1023 27.7009 47.5525 29.1097 48.4529 30.0973C49.3534 31.0849 50.675 31.5787 52.4179 31.5787C54.1607 31.5787 55.4968 31.0849 56.4263 30.0973C57.3558 29.1097 57.8206 27.7009 57.8206 25.871V7.57139H65.2711V25.8274C65.2711 28.5578 64.6902 30.8671 63.5283 32.7551C62.3664 34.6432 60.7979 36.0665 58.8227 37.025C56.8766 37.9836 54.698 38.4628 52.2871 38.4628C49.8762 38.4628 47.7122 37.9981 45.7951 37.0686C43.9071 36.11 42.4112 34.6867 41.3074 32.7987C40.2036 30.8816 39.6517 28.5578 39.6517 25.8274V7.57139H47.1023ZM82.6156 38.1578L76.2543 26.6117H74.4679V38.1578H67.0174V7.57139H79.5221C81.933 7.57139 83.9808 7.99257 85.6655 8.83494C87.3793 9.6773 88.6573 10.8392 89.4997 12.3206C90.3421 13.7729 90.7632 15.3995 90.7632 17.2005C90.7632 19.2337 90.1823 21.0492 89.0204 22.6468C87.8876 24.2443 86.2029 25.3772 83.9663 26.0453L91.0247 38.1578H82.6156ZM74.4679 21.3397H79.0864C80.4516 21.3397 81.4682 21.0056 82.1363 20.3375C82.8334 19.6695 83.182 18.7254 83.182 17.5055C83.182 16.3436 82.8334 15.4286 82.1363 14.7605C81.4682 14.0924 80.4516 13.7584 79.0864 13.7584H74.4679V21.3397ZM99.4052 7.57139V38.1578H91.9546V7.57139H99.4052Z" fill="#5e1cd2"/>
<path d="M30.652 5.75289C27.2847 2.38952 22.7176 0.5 17.9555 0.5C13.1934 0.5 8.62635 2.38952 5.25904 5.75289C1.89173 9.11625 0 13.678 0 18.4345C0 25.8594 8.14375 35.3562 15.012 39.747C16.2877 40.5625 16.7781 41.5622 16.0177 43.5C17.1951 43.2056 18.8072 42.2073 19.1525 41.9486C30.245 33.6389 35.911 25.8594 35.911 18.4345C35.911 13.678 34.0193 9.11625 30.652 5.75289Z" fill="#5e1cd2"/>
<path d="M17.834 38.6801C17.834 38.6801 16.5673 36.855 15.8469 35.6291C15.4309 34.9212 15.188 34.5277 14.8302 33.7887C14.3901 32.8797 13.8597 31.3915 13.8597 31.3915C13.8597 31.3915 13.6912 32.0199 13.6518 32.4327C13.6149 32.8187 13.568 33.047 13.6518 33.4255C13.7352 33.8021 14.0677 34.3215 14.0677 34.3215C14.0677 34.3215 12.6429 33.1085 11.8979 32.1799C10.6342 30.6045 9.99233 29.5523 9.51575 27.5897C9.39558 27.0948 9.28469 26.3063 9.28469 26.3063C9.28469 26.3063 8.98972 27.0735 8.91499 27.5897C8.83639 28.1325 8.91499 28.9942 8.91499 28.9942C8.91499 28.9942 8.54049 28.5459 8.34114 28.2306C8.00897 27.7053 7.64939 26.5541 7.43356 25.4217C7.23842 24.3979 7.24549 23.7995 7.2306 22.7606C7.21709 21.8176 7.36686 20.3495 7.36686 20.3495C7.36686 20.3495 7.13597 20.6166 7.02027 20.8095C6.89731 21.0146 6.84724 21.1416 6.7661 21.3665C6.63793 21.7217 6.55814 22.3109 6.55814 22.3109C6.55814 22.3109 6.17576 21.1314 6.15131 20.3495C6.1225 19.4283 6.0208 18.3528 6.35427 17.1433C6.77555 15.6154 8.40665 13.6419 8.40665 13.6419L7.40775 12.3721L2.42957 13.4759C2.42957 13.4759 2.09869 14.8293 1.88992 16.1005C1.05052 21.2116 4.68206 27.0873 6.55814 29.7206C7.51841 31.0685 8.11954 31.7895 9.28469 32.9648C12.1121 35.8169 17.834 38.6801 17.834 38.6801Z" fill="white"/>
<path d="M18.3478 38.6801C18.3478 38.6801 19.6145 36.855 20.335 35.6291C20.7509 34.9212 20.9938 34.5277 21.3516 33.7887C21.7917 32.8797 22.3221 31.3914 22.3221 31.3914C22.3221 31.3914 22.4906 32.0199 22.53 32.4327C22.5669 32.8186 22.6139 33.0469 22.53 33.4255C22.4467 33.8021 22.1141 34.3214 22.1141 34.3214C22.1141 34.3214 23.5389 33.1085 24.2839 32.1798C25.5476 30.6045 26.1895 29.5522 26.6661 27.5897C26.7862 27.0948 26.8971 26.3063 26.8971 26.3063C26.8971 26.3063 27.1921 27.0735 27.2668 27.5897C27.3454 28.1325 27.2668 28.9942 27.2668 28.9942C27.2668 28.9942 27.6413 28.5459 27.8407 28.2306C28.1729 27.7053 28.5324 26.5541 28.7483 25.4217C28.9434 24.3979 28.9363 23.7994 28.9512 22.7606C28.9647 21.8176 28.815 20.3494 28.815 20.3494C28.815 20.3494 29.0459 20.6166 29.1616 20.8095C29.2845 21.0146 29.3346 21.1416 29.4157 21.3665C29.5439 21.7217 29.6237 22.3109 29.6237 22.3109C29.6237 22.3109 30.0061 21.1313 30.0305 20.3494C30.0593 19.4283 30.161 18.3528 29.8276 17.1433C29.4063 15.6154 27.7752 13.6419 27.7752 13.6419L28.5778 12.323L33.7523 13.4759C33.7523 13.4759 34.0831 14.8293 34.2919 16.1005C35.1313 21.2116 31.4998 27.0873 29.6237 29.7206C28.6634 31.0685 28.0623 31.7895 26.8971 32.9648C24.0697 35.8169 18.3478 38.6801 18.3478 38.6801Z" fill="white"/>
<path d="M17.9799 2.88855L4.56238 8.2958V13.3873H7.40779V10.2169L17.9799 5.95633L28.5521 10.2169V13.3703H31.3975V8.2958L17.9799 2.88855Z" fill="white"/>
<rect x="22.3708" y="2.90393" width="3.58129" height="4.12094" fill="white"/>
<path d="M18.0746 27.895L18.0766 27.8961L18.0786 27.895C18.0786 27.895 19.1758 28.5293 19.9228 28.8493C20.6894 29.1777 21.9468 29.5433 21.9468 29.5433C21.9468 29.5433 21.2257 30.6079 20.5525 31.0615C19.7192 31.623 19.0941 31.7971 18.0786 31.8423L18.0766 31.8424L18.0746 31.8423C17.0592 31.7971 16.434 31.623 15.6008 31.0615C14.9276 30.6079 14.2064 29.5433 14.2064 29.5433C14.2064 29.5433 15.4638 29.1777 16.2305 28.8493C16.9774 28.5293 18.0746 27.895 18.0746 27.895Z" fill="white"/>
<path d="M15.4589 10.7217C16.5105 10.9165 17.9188 11.8372 18.0765 11.9418C18.2341 11.8372 19.6425 10.9165 20.6941 10.7217C21.5027 10.5719 22.7998 10.7217 22.7998 10.7217C22.7998 10.7217 23.6949 11.0648 24.072 11.5123C24.4948 12.0141 24.6423 13.0935 24.6423 13.0935C24.6423 13.0935 25.695 14.0205 26.3093 14.6747C26.9235 15.3289 27.0817 15.8564 27.2004 16.6724C27.3146 17.4578 26.9811 18.6928 26.9811 18.6928C26.9811 18.6928 26.5945 19.6466 26.1933 20.1569C25.5596 20.9629 24.072 21.7022 24.072 21.7022L24.5854 23.849C24.5854 23.849 25.1063 25.3003 24.538 26.6637C23.9697 28.0271 22.1993 27.8951 22.1993 27.8951C22.1993 27.8951 20.4334 27.8754 19.7427 27.1485C19.2324 26.6114 18.9063 26.1225 19.0271 25.3916C19.1366 24.7284 19.5192 24.4006 20.0799 24.03C20.6183 23.6742 21.6729 23.5908 21.6729 23.5908L21.0889 22.0096C21.0889 22.0096 19.2792 22.6005 18.0765 22.5809C16.8737 22.6005 15.064 22.0096 15.064 22.0096L14.48 23.5908C14.48 23.5908 15.5347 23.6742 16.073 24.03C16.6338 24.4006 17.0163 24.7284 17.1259 25.3916C17.2466 26.1225 16.9205 26.6114 16.4102 27.1485C15.7195 27.8754 13.9536 27.8951 13.9536 27.8951C13.9536 27.8951 12.1832 28.0271 11.6149 26.6637C11.0467 25.3003 11.5675 23.849 11.5675 23.849L12.081 21.7022C12.081 21.7022 10.5933 20.9629 9.95962 20.1569C9.5584 19.6466 9.17187 18.6928 9.17187 18.6928C9.17187 18.6928 8.83832 17.4578 8.95253 16.6724C9.0712 15.8564 9.22942 15.3289 9.84365 14.6747C10.4579 14.0205 11.5107 13.0935 11.5107 13.0935C11.5107 13.0935 11.6581 12.0141 12.081 11.5123C12.458 11.0648 13.3532 10.7217 13.3532 10.7217C13.3532 10.7217 14.6503 10.5719 15.4589 10.7217Z" fill="white"/>
<path d="M21.1552 21.0342L20.5395 16.5043C20.5395 16.5043 21.9848 16.3844 22.8264 16.1525C23.668 15.9206 24.8495 15.3169 24.8495 15.3169L25.1133 16.3284C25.1133 16.3284 24.3587 18.0006 23.4421 18.1316C22.8264 18.2195 22.0348 18.3075 22.0348 18.3075L21.1552 21.0342Z" fill="#5e1cd2"/>
<path d="M15.086 21.0342L15.7017 16.5043C15.7017 16.5043 14.2563 16.3844 13.4147 16.1525C12.5732 15.9206 11.3917 15.3169 11.3917 15.3169L11.1278 16.3284C11.1278 16.3284 11.8825 18.0006 12.799 18.1316C13.4147 18.2195 14.2064 18.3075 14.2064 18.3075L15.086 21.0342Z" fill="#5e1cd2"/>
</svg>
