<svg width="402" height="306" viewBox="0 0 402 306" fill="none" xmlns="http://www.w3.org/2000/svg">
<path fill-rule="evenodd" clip-rule="evenodd" d="M118.515 272.873C119.522 275.597 119.602 279.727 117.13 280.518C113.869 278.664 111.544 274.775 111.201 270.597C97.823 271.27 84.4451 271.944 71.0678 272.617C66.0955 272.867 59.9584 274.091 58.4782 279.577C57.9004 275.254 52.9558 274.261 49.1677 274.319C37.847 274.495 26.5264 274.671 15.2057 274.846C15.0331 268.88 14.8605 262.915 14.6879 256.949C14.6544 255.793 14.631 254.582 15.0801 253.548C16.2859 250.772 19.7489 251.067 22.3667 251.78C21.5249 242.068 20.6838 232.355 19.842 222.642C15.9389 223.673 17.1946 212.12 13.2657 213.011C10.8873 213.552 8.64503 211.03 8.13745 208.294C7.62986 205.558 8.37027 202.742 9.10289 200.074C11.3109 199.296 14.4754 200.066 16.713 199.296C18.9508 198.525 20.3143 197.036 20.2365 194.342C18.6133 138.393 15.1084 82.5182 9.73292 26.8828C6.30117 28.5875 2.21452 25.5117 0.833946 21.5043C-0.5467 17.4969 0.0446443 12.9836 0.766987 8.75251C1.0205 7.26757 1.3318 5.68963 2.27647 4.64007C3.48063 3.30187 5.3315 3.21847 7.00282 3.21366C59.4492 3.07575 111.895 2.93784 164.342 2.80074C165.485 2.79753 166.744 2.84323 167.589 3.73243C168.361 4.54465 168.565 5.83475 168.726 7.02623C169.349 11.6622 169.961 16.4947 168.735 20.9671C167.509 25.4404 163.845 29.3973 159.809 28.8505C162.016 84.0673 164.224 139.284 166.432 194.501C170.03 193.593 174.238 195.13 176.033 198.844C177.827 202.557 176.19 208.167 172.597 209.096C174.889 211.297 173.783 215.981 171.259 217.816C168.736 219.651 165.527 219.463 162.557 219.15C159.587 218.837 156.418 218.503 153.785 220.118C154.407 226.772 154.329 233.512 153.554 240.144C156.109 238.386 159.566 238.57 161.969 240.592C163.637 241.996 165.153 238.58 165.138 236.196C165.101 230.646 165.064 225.095 165.027 219.545C167.631 226.44 168.356 234.262 167.073 241.637C170.284 241.926 173.495 242.215 176.706 242.504C177.671 242.591 178.716 242.716 179.424 243.479C180.129 244.238 180.312 245.428 180.435 246.531C181.225 253.656 181.107 260.914 180.085 268C159.283 266.334 139.543 266.867 118.865 269.972C118.346 269.972 117.509 270.148 118.515 272.873Z" fill="#F5F9FC"/>
<path d="M93.4287 150.538C93.6078 150.617 93.9758 150.011 94.2507 149.184C94.5257 148.357 94.6034 147.623 94.4243 147.543C94.2453 147.464 93.8772 148.07 93.6023 148.897C93.3274 149.724 93.2496 150.458 93.4287 150.538Z" fill="#343A40"/>
<path fill-rule="evenodd" clip-rule="evenodd" d="M256.478 157.236C256.478 157.236 253.56 80.7085 255.252 42.481C255.437 38.3076 255.639 34.03 254.568 30.0379C253.498 26.0457 250.859 22.3334 247.301 21.5596C246.6 14.3987 246.694 7.13362 247.58 0C298.853 0.307892 350.126 0.615777 401.399 0.923669C401.585 5.42739 401.77 9.9311 401.955 14.4348C402.13 18.6988 400.668 24.7364 397.044 23.8873C395.571 23.5417 394.865 25.8869 394.788 27.6188C394.151 41.8468 393.515 56.074 392.879 70.3019C390.989 112.586 389.098 154.932 390.367 197.246C393.644 197.436 396.921 197.624 400.197 197.813C401.066 200.188 401.954 202.715 401.63 205.267C401.306 207.818 399.254 210.262 397.07 209.722C398.974 214.846 393.895 221.27 389.302 219.548C389.671 225.674 390.039 231.801 390.408 237.927C390.477 239.083 390.581 240.334 391.26 241.187C393.38 243.847 397.921 239.741 400.159 242.267C400.462 248.293 400.765 254.318 401.068 260.344C401.15 261.988 401.159 263.86 400.125 264.992C399.431 265.752 398.43 265.977 397.487 266.161C379.094 269.751 360.241 270.175 341.741 267.415C342.735 272.906 343.503 279.394 340.139 283.442C337.659 286.428 337.921 290.713 339.039 288.691C338.823 291.315 336.708 293.544 334.424 293.555C332.464 293.794 332.854 290.015 334.191 288.343C337.128 284.674 340.925 281.391 341.86 276.513C342.795 271.636 332.566 274.123 332.855 277.109C331.005 274.699 331.246 270.549 333.359 268.446C327.849 269.897 322.132 270.295 316.512 269.618C323.611 268.376 330.71 267.134 337.809 265.892C335.789 259.435 312.75 276.53 312.24 289.382C311.135 281.986 311.949 274.222 314.551 267.345C313.926 266.197 313.114 265.185 312.172 264.375C318.645 261.45 305.646 277.49 303.535 271.395C296.421 272.331 289.307 273.266 282.193 274.201C282.45 275.705 283.122 277.111 284.087 278.164C279.868 278.87 275.632 274.229 276.021 269.328C273.946 273.649 277.148 278.801 280.444 281.953C283.739 285.104 287.734 288.644 287.595 293.582C284.319 294.908 280.294 292.212 279.664 288.272C280.855 290.831 279.498 285.226 278.061 285.751C275.393 286.725 273.442 295.337 274.726 292.474C274.586 296.324 271.357 299.652 268.028 299.38C265.668 294.03 269.567 286.552 274.766 286.454C276.91 286.414 278.181 283.312 277.616 280.925C277.052 278.538 275.323 276.798 273.679 275.209C272.573 276.876 271.145 278.257 269.529 279.222C269.476 276.406 269.956 273.58 270.924 270.996C268.737 273.862 267.505 277.673 267.529 281.492C266.413 278.344 266.513 274.653 267.796 271.591C261.329 272.863 254.762 273.459 248.202 273.37C247.121 264.721 246.041 256.071 244.961 247.421C249.017 246.155 253.22 245.513 257.422 245.518C255.316 230.968 257.422 230.564 254.806 224.014C254.45 223.124 253.188 224.824 252.329 222.82C251.469 220.814 251.086 215.593 251.086 215.593C251.086 215.593 247.578 215.002 247.301 213.912C246.216 209.635 244.997 205.814 247.635 203.512C250.449 201.059 254.855 203.16 257.802 200.928C257.182 198.103 258.028 188.23 256.01 182.093C254.422 177.263 251.114 179.424 247.592 175.93C245.307 173.663 242.815 171.355 241.818 168.073C240.82 164.791 242.181 160.296 245.165 159.817C248.083 159.348 250.289 162.681 251.78 165.614C251.11 163.025 252.904 159.99 255.235 159.768C258.121 170.273 256.478 157.236 256.478 157.236Z" fill="#F5F9FC"/>
<path d="M306.809 138.618C307.193 138.618 307.504 137.9 307.504 137.014C307.504 136.129 307.193 135.411 306.809 135.411C306.425 135.411 306.115 136.129 306.115 137.014C306.115 137.9 306.425 138.618 306.809 138.618Z" fill="#343A40"/>
<path fill-rule="evenodd" clip-rule="evenodd" d="M56.4711 49.0623C56.7732 49.3349 56.826 49.8392 56.5891 50.1872L47.4703 63.627C47.2334 63.9749 46.7972 64.0367 46.4951 63.7633C46.193 63.4907 46.1402 62.9863 46.3763 62.6375L55.4959 49.1985C55.7328 48.8498 56.1689 48.7888 56.4711 49.0623Z" fill="#343A40"/>
<path fill-rule="evenodd" clip-rule="evenodd" d="M68.3487 52.9101C68.6411 53.1972 68.6758 53.7039 68.4272 54.0407L56.2224 70.5722C55.9737 70.909 55.5355 70.949 55.2431 70.662C54.9513 70.375 54.9166 69.869 55.1653 69.5315L67.3701 53.0007C67.6187 52.6632 68.057 52.6231 68.3487 52.9101Z" fill="#343A40"/>
<path fill-rule="evenodd" clip-rule="evenodd" d="M87.7109 54.0014C88.0144 54.2724 88.07 54.776 87.8345 55.1263L77.7961 70.0944C77.5613 70.4448 77.1244 70.5089 76.8216 70.2379C76.5181 69.9669 76.4625 69.4625 76.6973 69.113L86.7364 54.1449C86.9712 53.7945 87.4074 53.7304 87.7109 54.0014Z" fill="#343A40"/>
<path fill-rule="evenodd" clip-rule="evenodd" d="M114.808 52.7923C115.119 53.0512 115.189 53.5524 114.965 53.9116L106.79 66.9841C106.565 67.3433 106.131 67.4243 105.82 67.1653C105.509 66.9064 105.439 66.4052 105.664 66.046L113.839 52.9726C114.063 52.6142 114.497 52.5333 114.808 52.7923Z" fill="#343A40"/>
<path fill-rule="evenodd" clip-rule="evenodd" d="M300.523 50.455C300.795 50.7669 300.797 51.2744 300.527 51.5887L290.953 62.7329C290.683 63.0472 290.243 63.0497 289.971 62.7378C289.699 62.4259 289.697 61.9183 289.967 61.604L299.541 50.4598C299.811 50.1455 300.25 50.1431 300.523 50.455Z" fill="#343A40"/>
<path fill-rule="evenodd" clip-rule="evenodd" d="M313.767 53.5563C314.033 53.8755 314.024 54.383 313.749 54.6901L301.169 68.6655C300.893 68.9726 300.453 68.963 300.187 68.6438C299.921 68.3247 299.93 67.8172 300.206 67.5101L312.785 53.5347C313.062 53.2276 313.501 53.2372 313.767 53.5563Z" fill="#343A40"/>
<path fill-rule="evenodd" clip-rule="evenodd" d="M343.984 60.5673C344.249 60.888 344.24 61.3955 343.962 61.701L335.67 70.8576C335.392 71.1639 334.953 71.1527 334.687 70.8319C334.422 70.512 334.432 70.0045 334.71 69.699L343.002 60.5424C343.279 60.2361 343.719 60.2474 343.984 60.5673Z" fill="#343A40"/>
<path fill-rule="evenodd" clip-rule="evenodd" d="M359.759 61.2119C360.02 61.5358 360.004 62.0434 359.723 62.3448L351.124 71.572C350.843 71.8735 350.404 71.855 350.143 71.5311C349.882 71.2064 349.898 70.6988 350.179 70.3973L358.777 61.1702C359.058 60.8687 359.498 60.8872 359.759 61.2119Z" fill="#343A40"/>
<path fill-rule="evenodd" clip-rule="evenodd" d="M208.364 119.945C208.087 117.134 207.967 114.302 208.007 111.473C206.465 110.776 204.751 110.89 203.1 111.015C196.794 111.491 190.488 111.967 184.182 112.443C183.14 112.522 182.075 112.599 181.067 112.287C180.036 111.968 178.857 111.281 178.004 112.02C177.264 112.66 177.325 113.939 177.46 114.995C177.714 116.982 177.968 118.968 178.222 120.955C178.265 121.293 178.323 121.661 178.55 121.881C178.758 122.083 179.053 122.102 179.326 122.11C188.173 122.381 197.029 122.287 205.871 121.828C206.991 121.77 208.491 121.231 208.364 119.945Z" fill="#F5F9FC"/>
<path fill-rule="evenodd" clip-rule="evenodd" d="M238.626 72.3545C238.822 71.4701 238.105 70.6026 237.331 70.4126C236.557 70.2217 235.763 70.5 234.995 70.7221C231.937 71.6097 223.443 71.6057 222.289 71.6145C218.913 71.6417 215.538 71.6682 212.164 71.6955C211.363 71.7019 210.686 72.4612 210.402 73.3247C210.118 74.1874 210.145 75.1392 210.174 76.0621C210.205 77.0146 210.236 77.9679 210.266 78.9205C210.284 79.489 210.349 80.1529 210.772 80.4455C210.954 80.5722 211.174 80.6019 211.386 80.6275C214.658 81.026 217.956 81.1319 221.242 80.9451C227.056 80.6139 232.871 79.3671 238.661 80.0567C238.082 77.5486 238.069 74.8698 238.626 72.3545Z" fill="#F5F9FC"/>
<path fill-rule="evenodd" clip-rule="evenodd" d="M343.209 270.909C343.278 270.358 343.667 269.924 344.099 269.676C345.276 268.999 346.762 269.47 347.755 270.464C348.749 271.459 349.338 272.88 349.807 274.298C349.975 274.803 350.114 275.431 349.805 275.836C349.689 275.989 349.527 276.082 349.364 276.16C348.005 276.824 346.377 276.75 345.098 275.9C343.819 275.05 342.937 273.425 342.893 271.722C343.448 271.807 343.719 272.515 344.007 273.069C344.996 274.966 347.37 275.682 349.036 274.586C347.459 272.741 345.405 271.446 343.209 270.909Z" fill="#343A40"/>
<path fill-rule="evenodd" clip-rule="evenodd" d="M335.076 254.682C335.555 253.995 336.034 253.309 336.513 252.623C336.196 255.706 334.001 258.405 331.356 258.965C330.54 258.241 329.157 258.723 328.823 259.848C328.331 259.963 327.837 259.517 327.675 258.97C327.514 258.421 327.617 257.814 327.8 257.274C328.076 256.461 328.521 255.742 328.962 255.031C330.448 252.638 332.167 250.063 334.667 249.472C335.313 249.319 336.042 249.334 336.563 249.801C337.083 250.269 337.228 251.308 336.708 251.775C336.105 250.841 334.891 250.688 333.95 251.108C333.009 251.527 332.276 252.389 331.574 253.226C330.894 254.036 330.214 254.848 329.534 255.658C329.16 256.104 328.819 256.927 329.286 257.232C329.82 255.91 331.433 255.803 332.366 254.82C333.175 253.969 333.716 252.339 334.795 252.551C334.232 254.048 333.21 255.308 331.954 256.054C331.413 256.374 330.786 256.653 330.517 257.28C331.351 257.721 332.36 257.472 333.135 256.908C333.91 256.345 334.5 255.505 335.076 254.682Z" fill="#343A40"/>
<path fill-rule="evenodd" clip-rule="evenodd" d="M312.475 251.506C313.792 251.774 315.221 250.922 315.793 249.526C316.366 248.131 316.032 246.315 315.017 245.308C315.31 244.894 315.876 244.843 316.286 245.091C316.695 245.341 316.964 245.824 317.118 246.329C317.611 247.943 317.061 249.786 316.1 251.089C315.138 252.393 313.821 253.266 312.533 254.112C311.936 254.505 311.312 254.906 310.626 254.955C309.942 255.004 309.178 254.585 308.998 253.82C308.939 253.57 308.952 253.283 309.088 253.077C309.755 252.067 311.328 254.463 312.046 253.501C311.873 252.731 311.701 251.96 311.529 251.19C311.839 251.315 312.151 251.44 312.475 251.506Z" fill="#343A40"/>
<path fill-rule="evenodd" clip-rule="evenodd" d="M300.396 249.138C298.926 248.931 297.88 247.097 298.041 245.398C298.201 243.699 299.355 242.269 300.727 241.628C301.148 241.432 301.673 241.316 302.019 241.653C302.366 241.991 302.128 242.865 301.694 242.71C300.634 242.332 299.622 243.561 299.328 244.796C299.141 245.583 299.13 246.473 299.507 247.162C299.884 247.851 300.734 248.223 301.337 247.799C301.771 247.493 302.214 248.201 302.317 248.776C302.421 249.352 302.649 250.112 303.155 250.043C303.986 249.566 304.297 248.414 304.771 247.492C305.245 246.57 306.317 245.768 307.046 246.432C307.139 246.517 307.224 246.634 307.229 246.772C307.235 246.922 307.147 247.052 307.063 247.166C306.251 248.275 305.354 249.3 304.385 250.225C303.737 250.845 302.84 251.444 302.107 250.966C301.413 250.513 301.187 249.249 300.396 249.138Z" fill="#343A40"/>
<path fill-rule="evenodd" clip-rule="evenodd" d="M307.471 266.522C306.752 265.785 306.019 265.028 305.55 264.059C305.08 263.091 304.914 261.853 305.369 260.875C305.494 260.607 305.686 260.348 305.946 260.3C306.206 260.251 306.504 260.53 306.429 260.821C306.097 262.095 306.579 263.59 307.551 264.304C307.927 264.58 308.431 265.096 308.116 265.459C307.74 265.892 308.424 266.477 308.948 266.576C309.953 266.766 310.958 266.955 311.963 267.145C311.768 268.101 310.745 268.566 309.912 268.36C309.08 268.155 308.402 267.478 307.766 266.825C307.668 266.724 307.569 266.623 307.471 266.522Z" fill="#343A40"/>
<path fill-rule="evenodd" clip-rule="evenodd" d="M270.439 295.614C270.538 294.902 270.638 294.19 270.738 293.478C270.795 293.07 270.856 292.653 271.025 292.289C271.229 291.854 271.571 291.532 271.905 291.223C272.821 290.373 273.736 289.523 274.652 288.673C275.373 289.308 275.518 290.651 274.954 291.47C274.907 290.716 274.484 290.009 273.889 289.693C273.224 291.974 272.019 294.042 270.439 295.614Z" fill="#343A40"/>
<path fill-rule="evenodd" clip-rule="evenodd" d="M341.094 285.178C341.432 287.272 342.127 289.288 343.126 291.078C343.913 292.488 343.193 294.332 342.473 295.788C342.148 295.934 341.841 295.447 341.895 295.049C341.948 294.651 342.2 294.335 342.364 293.979C343.003 292.582 342.209 290.925 341.504 289.57C340.8 288.216 340.194 286.369 341.094 285.178Z" fill="#343A40"/>
<path fill-rule="evenodd" clip-rule="evenodd" d="M210.006 121.785C209.992 122.271 209.971 122.781 209.751 123.195C209.351 123.95 208.471 124.098 207.706 124.164C197.385 125.057 187.016 125.185 176.681 124.549C176.553 124.541 176.42 124.532 176.304 124.467C176.019 124.306 175.943 123.888 175.9 123.526C175.612 121.102 175.325 118.678 175.037 116.254C174.832 114.52 174.657 112.612 175.49 111.151C176.621 109.162 179.022 108.926 181.082 108.893C190.446 108.741 199.81 108.59 209.174 108.438C209.569 108.432 210.035 108.468 210.244 108.854C210.365 109.077 210.362 109.358 210.354 109.621C210.238 113.676 210.121 117.73 210.006 121.785ZM208.364 119.944C208.086 117.133 207.967 114.301 208.007 111.472C206.465 110.775 204.751 110.889 203.1 111.014C196.794 111.49 190.488 111.966 184.182 112.442C183.14 112.521 182.075 112.598 181.067 112.286C180.036 111.967 178.857 111.28 178.004 112.019C177.264 112.659 177.325 113.938 177.46 114.994C177.714 116.981 177.968 118.967 178.222 120.954C178.265 121.292 178.322 121.661 178.549 121.88C178.758 122.082 179.053 122.101 179.326 122.109C188.173 122.38 197.029 122.286 205.871 121.827C206.991 121.77 208.491 121.23 208.364 119.944Z" fill="#343A40"/>
<path fill-rule="evenodd" clip-rule="evenodd" d="M333.521 274.756C333.993 272.837 334.828 271.039 335.951 269.525C335.932 271.581 334.995 273.599 333.521 274.756Z" fill="#343A40"/>
<path fill-rule="evenodd" clip-rule="evenodd" d="M337.75 286.356C337.443 287.452 336.968 288.486 336.355 289.395C336.094 289.782 335.76 290.175 335.335 290.2C335.888 288.716 336.522 287.126 337.75 286.356Z" fill="#343A40"/>
<path fill-rule="evenodd" clip-rule="evenodd" d="M345.32 292.228C346.002 292.78 346.684 293.332 347.366 293.883C347.518 294.005 347.688 294.227 347.58 294.401C346.543 294.286 345.605 293.385 345.32 292.228Z" fill="#343A40"/>
<path fill-rule="evenodd" clip-rule="evenodd" d="M346.57 291.921C345.864 292.17 345.266 290.836 345.85 290.315C346.245 290.758 346.537 291.324 346.686 291.937L346.57 291.921Z" fill="#343A40"/>
<path fill-rule="evenodd" clip-rule="evenodd" d="M337.598 268.967C338.113 269.719 338.13 270.802 337.852 271.705C337.575 272.608 337.045 273.373 336.524 274.121C336.038 274.817 335.423 275.584 334.65 275.516C334.517 274.909 335.005 274.386 335.403 273.961C336.615 272.665 337.408 270.86 337.598 268.967Z" fill="#343A40"/>
<path fill-rule="evenodd" clip-rule="evenodd" d="M343.339 288.65C344.201 287.743 345.495 287.422 346.605 287.839C347.713 288.257 348.594 289.397 348.827 290.717C348.998 291.684 349.083 293.038 349.934 293.134C350.088 293.767 349.112 294.006 348.759 293.491C348.406 292.977 348.47 292.248 348.381 291.6C348.144 289.866 346.52 288.562 345.029 288.907C344.421 289.049 343.592 289.304 343.339 288.65Z" fill="#343A40"/>
<path fill-rule="evenodd" clip-rule="evenodd" d="M279.094 299.777C278.682 298.248 279.628 296.492 279.046 295.039C278.855 294.562 278.52 294.186 278.226 293.783C277.257 292.453 276.708 290.723 276.704 288.984C276.703 288.454 276.91 287.758 277.367 287.809C277.967 287.876 277.813 288.911 277.774 289.605C277.698 290.924 278.693 291.941 279.32 293.048C280.252 294.696 280.394 296.901 279.683 298.689C279.421 299.348 279.941 300.033 280.301 300.627C281.24 302.169 281.162 304.434 280.121 305.886C279.73 305.583 279.712 304.918 279.855 304.4C279.999 303.882 280.26 303.398 280.287 302.855C280.344 301.716 279.388 300.865 279.094 299.777Z" fill="#343A40"/>
<path fill-rule="evenodd" clip-rule="evenodd" d="M299.362 138.883C299.902 138.195 300.825 138.945 301.578 139.271C303.037 139.902 304.647 138.687 306.189 138.943C305.33 140.989 302.904 141.228 300.95 140.937C300.461 140.863 299.947 140.761 299.57 140.394C299.192 140.027 299.031 139.306 299.362 138.883Z" fill="#343A40"/>
<path fill-rule="evenodd" clip-rule="evenodd" d="M303.158 132.368C302.872 131.947 302.916 131.352 302.974 130.821C303.015 130.443 303.056 130.066 303.097 129.688C303.194 128.8 303.511 127.669 304.287 127.662C305.098 127.655 305.407 128.875 305.423 129.811C305.437 130.621 305.401 131.495 304.974 132.139C304.548 132.784 303.593 133.005 303.158 132.368Z" fill="#343A40"/>
<path fill-rule="evenodd" clip-rule="evenodd" d="M298.287 128.139C298.667 128.24 298.755 128.812 298.763 129.262C298.789 130.759 298.522 132.702 297.248 132.978C296.625 131.62 296.741 129.853 297.535 128.62C297.717 128.339 297.991 128.06 298.287 128.139Z" fill="#343A40"/>
<path fill-rule="evenodd" clip-rule="evenodd" d="M300.805 130.1C300.9 130.293 300.837 130.533 300.782 130.747C300.24 132.838 300.84 135.264 302.256 136.711C301.197 137.483 299.718 136.417 299.352 135.035C298.986 133.652 299.377 132.17 299.766 130.796C299.925 130.235 300.55 129.588 300.805 130.1Z" fill="#343A40"/>
<path fill-rule="evenodd" clip-rule="evenodd" d="M240.573 82.2311C238.714 82.3682 236.855 82.5045 234.996 82.6408C226.953 83.2325 218.91 83.8234 210.868 84.4144C209.733 84.4978 208.207 84.2316 208.075 82.9278C207.668 78.8868 207.743 74.7815 208.295 70.7637C208.526 69.0895 210.406 68.6421 211.873 68.586C220.758 68.2477 229.642 67.9101 238.526 67.5717C239.62 67.53 240.59 68.5002 241.048 69.6468C241.507 70.7934 241.561 72.0931 241.607 73.3551C241.695 75.7694 241.784 78.1844 241.873 80.5986C241.889 81.0187 241.891 81.4822 241.657 81.8029C241.402 82.1485 240.965 82.2022 240.573 82.2311ZM238.626 72.3561C238.821 71.4717 238.104 70.605 237.33 70.4141C236.556 70.2233 235.763 70.5015 234.995 70.7244C231.937 71.6112 223.442 71.6072 222.289 71.6168C218.913 71.6433 215.538 71.6705 212.163 71.697C211.363 71.7034 210.686 72.4635 210.402 73.3263C210.118 74.189 210.144 75.1407 210.174 76.0636C210.204 77.017 210.235 77.9695 210.266 78.9228C210.284 79.4913 210.349 80.1552 210.772 80.4471C210.954 80.5737 211.174 80.6034 211.386 80.6291C214.658 81.0276 217.956 81.1342 221.242 80.9466C227.056 80.6154 232.871 79.3686 238.661 80.059C238.082 77.551 238.069 74.8713 238.626 72.3561Z" fill="#343A40"/>
<path fill-rule="evenodd" clip-rule="evenodd" d="M105.965 246.438C105.586 246.58 105.017 246.603 104.949 246.15C105.524 245.358 106.713 245.322 107.324 246.078C106.999 246.487 106.456 246.644 106.002 246.461L105.965 246.438Z" fill="#343A40"/>
<path fill-rule="evenodd" clip-rule="evenodd" d="M306.799 125.444C307.315 126.082 307.788 126.796 308.005 127.632C308.149 128.186 307.464 128.618 307.001 128.397C306.538 128.177 306.277 127.623 306.001 127.139C305.725 126.657 305.319 126.166 304.818 126.208C304.311 126.249 303.982 125.45 304.231 124.939C304.481 124.428 305.086 124.267 305.573 124.433C306.061 124.599 306.451 125.016 306.799 125.444Z" fill="#343A40"/>
<path fill-rule="evenodd" clip-rule="evenodd" d="M127.084 231.289C126.476 227.918 125.801 224.531 124.529 221.417C123.256 218.303 121.329 215.449 118.716 213.79C117.339 212.916 115.818 212.398 114.369 211.699C112.595 210.842 110.921 209.709 109.408 208.338C110.758 207.459 112.432 208.285 113.809 209.108C117.019 211.028 120.303 213.013 122.724 216.112C125.947 220.236 127.274 225.849 128.231 231.292C127.884 231.522 127.431 231.521 127.084 231.289Z" fill="#343A40"/>
<path fill-rule="evenodd" clip-rule="evenodd" d="M112.034 260.387C112.04 260.117 112.092 259.799 112.305 259.691C112.984 259.35 113.212 261.558 113.824 261.077C114.535 260.517 115.54 261.741 115.169 262.638C114.798 263.534 113.627 263.663 112.944 263.058C112.26 262.454 112.011 261.38 112.034 260.387Z" fill="#343A40"/>
<path fill-rule="evenodd" clip-rule="evenodd" d="M109.765 250.634C109 249.156 109.275 247.254 109.82 245.65C110.149 244.683 110.651 243.669 111.51 243.359C112.369 243.049 113.497 244.007 113.157 244.969C112.356 245.265 111.521 245.617 110.976 246.358C110.43 247.099 110.312 248.347 110.946 248.986C111.261 249.305 111.198 249.887 111.058 250.342C110.918 250.797 110.726 251.287 110.867 251.742C111.007 252.197 111.698 252.346 111.797 251.876C111.906 251.36 112.6 251.381 112.928 251.754C113.256 252.126 113.387 252.677 113.69 253.077C113.993 253.477 114.65 253.625 114.856 253.149C115.051 252.696 115.69 252.726 115.957 253.128C116.223 253.53 116.168 254.119 115.957 254.563C115.498 255.528 114.322 255.925 113.484 255.4C112.991 255.091 112.652 254.545 112.234 254.112C111.817 253.68 111.221 253.35 110.706 253.606C110.214 253.849 109.785 253.072 109.809 252.454C109.833 251.836 110.04 251.165 109.765 250.634Z" fill="#343A40"/>
<path fill-rule="evenodd" clip-rule="evenodd" d="M91.7574 149.45C92.7513 148.457 93.1055 146.7 92.5922 145.303C92.4012 144.781 92.2151 143.965 92.6916 143.829C94.1425 145.294 94.2654 148.181 92.9465 149.804C92.7173 150.086 92.4103 150.346 92.0776 150.294C91.7456 150.243 91.5039 149.703 91.7574 149.45Z" fill="#343A40"/>
<path fill-rule="evenodd" clip-rule="evenodd" d="M89.4563 140.607C90.1974 140.63 90.7551 141.493 90.819 142.345C90.8822 143.198 90.578 144.025 90.2537 144.794C90.0529 145.27 89.7182 145.818 89.2667 145.729C88.9257 145.662 88.7277 145.258 88.5805 144.897C88.254 144.095 87.938 143.237 88.0109 142.354C88.0839 141.471 88.6881 140.583 89.4563 140.607Z" fill="#343A40"/>
<path fill-rule="evenodd" clip-rule="evenodd" d="M94.6572 144.618C94.0216 144.819 93.6695 143.779 93.6889 143.019C93.7063 142.346 93.7896 141.642 94.1307 141.096C94.471 140.549 95.3205 139.893 95.6448 140.798C95.9685 141.702 95.7754 143.072 95.1718 144.107C95.0426 144.329 94.8801 144.549 94.6572 144.618Z" fill="#343A40"/>
<path fill-rule="evenodd" clip-rule="evenodd" d="M87.3532 149.928C87.5706 149.881 87.7887 149.833 88.0068 149.787C88.0721 150.626 88.7777 151.193 89.4563 151.501C90.1356 151.809 90.892 152.005 91.4025 152.608C91.5872 152.825 91.7136 153.223 91.499 153.401C91.4052 153.479 91.2795 153.477 91.1635 153.468C89.382 153.332 87.4449 151.986 87.3532 149.928Z" fill="#343A40"/>
<path fill-rule="evenodd" clip-rule="evenodd" d="M87.1184 139.411C86.6329 139.284 86.6197 138.386 87.0191 138.044C87.4184 137.702 87.9769 137.78 88.4547 137.939C89.5077 138.293 90.4766 138.975 91.2309 139.894C89.921 140.569 88.2839 138.445 87.1184 139.411Z" fill="#343A40"/>
<path fill-rule="evenodd" clip-rule="evenodd" d="M56.7294 249.892C57.9921 250.575 59.6833 249.197 59.55 247.595C60.3626 248.407 61.26 249.552 60.8946 250.719C60.7585 251.155 60.4605 251.497 60.1438 251.782C59.0339 252.776 57.626 253.215 56.2376 253.466C54.7832 253.729 53.151 253.759 52.0056 252.691C50.8749 251.636 50.5644 249.581 51.3194 248.146C51.5056 247.793 51.7688 247.461 52.1161 247.363C52.878 247.146 53.5184 248.174 53.5094 249.08C53.5003 249.985 53.1079 250.825 52.9773 251.718C52.9537 251.877 52.9391 252.042 52.9732 252.199C53.1156 252.851 53.9817 252.874 54.4116 252.421C54.8415 251.967 55.0006 251.273 55.2979 250.694C55.5951 250.115 56.2015 249.607 56.7294 249.892ZM56.7544 252.692C57.0002 252.428 57.2461 252.162 57.492 251.897C57.3989 251.556 57.003 251.383 56.7384 251.568C56.4737 251.752 56.4224 252.237 56.6397 252.49L56.7544 252.692Z" fill="#343A40"/>
<path fill-rule="evenodd" clip-rule="evenodd" d="M50.927 259.468C51.2222 260.43 52.3765 260.676 53.1829 260.259C53.3406 260.177 53.501 260.066 53.5725 259.884C53.7816 259.357 53.1148 258.825 53.21 258.256C53.2906 257.775 53.8441 257.639 54.2595 257.739C54.6748 257.839 55.1027 258.066 55.5055 257.913C55.9729 257.736 56.1945 257.128 56.3119 256.576C56.4286 256.025 56.521 255.414 56.8932 255.043C57.2662 254.672 58.0184 254.832 58.0337 255.399C58.0643 256.499 57.3378 257.425 56.5772 258.087C55.8167 258.749 54.9464 259.315 54.447 260.251C53.9733 261.14 53.6983 262.458 52.7981 262.561C52.5099 262.594 52.2244 262.475 51.9632 262.331C50.0845 261.292 48.9662 258.685 49.3892 256.33C49.5767 255.285 50.4825 254.138 51.2729 254.691C51.9126 255.137 51.7848 256.256 51.4583 257.032C51.1326 257.808 50.6776 258.655 50.927 259.468Z" fill="#343A40"/>
<path fill-rule="evenodd" clip-rule="evenodd" d="M101.271 188.701C102.129 202.466 110.008 214.116 117.551 224.823C119.694 227.865 121.978 231.029 125.135 232.473C131.08 235.19 138.461 231.075 143.954 234.854C115.215 234.93 86.4801 236.747 57.9066 240.293C55.4479 240.599 52.9079 240.909 50.5436 240.07C48.1793 239.233 46.0185 236.925 45.9206 234.072C44.6648 197.613 43.4091 161.155 42.154 124.696C41.9213 117.942 41.6859 111.161 40.6183 104.515C39.2209 95.8168 39.1875 86.9136 39.1584 78.0673C39.1208 66.5647 39.0833 55.0621 39.0451 43.5602C71.4345 41.9414 103.875 41.6663 136.281 42.736C137.611 45.0195 137.88 47.8843 138.102 50.6233C141.863 96.9906 143.03 143.58 144.196 190.13C144.545 204.079 144.895 218.028 145.244 231.976C144.645 231.745 144.045 231.515 143.446 231.284C142.033 187.235 140.62 143.186 139.208 99.1362C139.181 98.2952 139.106 97.341 138.532 96.823C138.092 96.4262 137.487 96.4117 136.929 96.4133C106.888 96.54 76.8472 96.6667 46.8068 96.7926C44.478 96.8022 41.2059 98.2006 41.9616 100.744C45.6108 113.024 44.3238 126.401 44.3676 139.384C44.3919 146.599 44.8405 153.801 45.2892 160.998C45.8372 169.774 46.3846 178.55 46.9319 187.326C48.2321 183.432 49.5323 179.537 50.8325 175.642C51.134 174.739 51.4062 173.613 50.8499 172.889C46.7172 167.507 48.0126 157.892 53.3663 154.214C54.3942 153.508 55.5444 152.985 56.3862 152.005C58.7554 149.245 57.635 144.376 59.3825 141.055C61.976 136.125 69.9885 135.941 70.267 130.181C70.5184 124.979 74.6094 120.783 79.0393 119.787C83.4692 118.791 88.0595 120.412 92.0491 122.849C95.9435 125.226 99.8045 129.084 99.9719 134.167C100.038 136.167 99.5114 138.121 98.9912 140.031C97.1048 146.945 94.8898 154.386 89.6806 158.435C96.4012 166.585 100.573 177.478 101.271 188.701ZM96.3206 207.104C100.188 215.893 107.528 222.153 111.302 230.996C111.472 231.393 111.647 231.813 111.968 232.057C112.332 232.334 112.799 232.321 113.235 232.307C116.536 232.198 119.85 232.588 123.063 233.465C115.455 225.848 109.717 216.075 104.511 206.122C102.633 202.533 100.763 198.72 100.579 194.531C100.041 182.318 96.1581 170.33 89.6223 160.706C87.2198 157.167 82.0495 157.851 79.29 161.023C76.5298 164.195 75.6464 168.915 75.2442 173.387C75.1136 174.842 75.0247 176.352 75.4422 177.734C75.8603 179.115 76.9118 180.342 78.178 180.394C79.4449 180.445 80.6777 178.908 80.2388 177.536C80.6882 178.648 81.1382 179.761 81.5883 180.873C79.7422 183.164 76.161 182.419 74.4635 179.98C72.7653 177.541 72.6215 174.081 73.2015 171.024C74.5698 163.81 79.788 157.767 86.0321 156.163C86.1057 154.756 84.3033 154.339 83.1934 154.925C82.0842 155.512 81.0264 156.593 79.8241 156.35C78.7253 156.126 78.0988 157.699 77.7085 158.906C75.5109 165.704 69.2238 169.218 64.1396 173.486C62.406 174.941 60.6953 176.587 58.6144 177.18C56.5335 177.773 53.9379 176.893 53.1961 174.571C46.8305 193.56 45.3226 214.678 48.91 234.613C49.1649 236.03 50.2942 237.063 51.4986 237.465C52.703 237.865 53.9851 237.752 55.2346 237.635C73.7634 235.906 92.2929 234.176 110.822 232.445C106.408 222.628 98.1056 215.563 94.3238 205.401C93.4417 203.03 92.8194 200.519 91.699 198.286C90.0029 194.906 87.2372 192.305 85.8522 188.74C84.1804 191.395 82.5079 194.05 80.8354 196.705C80.4597 197.303 80.6333 198.132 80.8222 198.838C81.2417 200.402 81.68 202.008 82.5725 203.281C83.465 204.554 84.9312 205.431 86.3051 205.024C89.1069 204.194 92.2984 205.591 93.9195 208.357C90.4926 207.611 87.0656 206.865 83.6387 206.119C83.1427 206.011 82.6218 205.89 82.237 205.512C81.9106 205.192 81.7231 204.726 81.5453 204.276C80.9076 202.659 80.27 201.043 79.6324 199.426C79.0768 198.017 78.5316 196.315 79.2407 195C79.8408 193.887 81.0882 193.552 82.0245 192.808C84.6069 190.756 84.2686 186.215 83.092 182.861C81.9148 179.506 80.1513 176.052 80.8312 172.519C82.2245 177.746 83.6498 183.053 86.2502 187.624C88.17 190.999 90.6898 193.896 92.4498 197.385C94.005 200.468 94.9211 203.923 96.3206 207.104ZM41.2962 46.9029C41.3754 55.0717 41.4546 63.2404 41.5337 71.41C41.5518 73.21 42.1248 75.6443 43.6792 75.5024C74.3975 72.684 105.255 71.883 136.052 73.1042C136.904 73.1378 137.609 72.2326 137.799 71.272C137.988 70.3115 137.792 69.3125 137.609 68.3503C136.212 61.0178 135.548 53.4993 135.633 45.9921C135.647 44.8006 134.273 44.3989 133.241 44.3772C103.049 43.7406 72.8438 43.9331 42.6596 44.9537C42.3631 44.9642 42.0491 44.9802 41.7998 45.1654C41.3337 45.511 41.29 46.2639 41.2962 46.9029ZM139.106 93.0337C139.222 86.9056 138.9 80.767 138.144 74.6998C135.672 75.7734 132.96 76.1021 130.348 75.6459C127.758 75.1937 125.129 75.168 122.509 75.1431C110.504 75.0285 98.496 74.9138 86.4912 75.1584C71.9652 75.4551 57.4503 76.2769 42.9451 77.2302C42.5492 77.2567 42.1213 77.2968 41.8213 77.5967C41.431 77.9855 41.3983 78.6582 41.3983 79.2532C41.3934 84.0006 41.5706 88.7481 41.9269 93.4779C41.9484 93.7642 41.9769 94.0689 42.1345 94.291C42.3832 94.6414 42.8367 94.6462 43.2278 94.6221C71.9131 92.8365 100.666 93.9887 129.393 94.0192C132.653 94.0232 135.956 94.0055 139.106 93.0337ZM72.1638 127.244C71.3859 129.412 71.354 131.932 70.2385 133.894C67.9729 137.881 62.3448 137.826 60.2257 141.917C58.5102 145.231 59.8208 150.052 57.5684 152.906C56.4355 154.34 54.6901 154.854 53.2767 155.904C50.3137 158.104 49.0774 162.733 49.9872 166.662C50.8971 170.59 53.674 173.733 56.9259 175.298C57.5038 175.576 58.124 175.813 58.7456 175.725C59.4471 175.626 60.0521 175.126 60.6223 174.643C64.5577 171.313 68.4924 167.983 72.4278 164.652C73.8766 163.426 75.381 162.125 76.1631 160.258C77.489 157.096 76.5319 152.819 78.6232 150.267C79.4303 149.282 80.5888 148.727 81.3133 147.66C82.0377 146.592 81.9488 144.594 80.8 144.314C79.5477 144.007 79.8776 141.707 80.8722 140.776C81.8668 139.846 83.2796 139.263 83.6539 137.85C84.0068 136.518 83.4761 134.524 84.618 134.072C85.275 133.812 85.9258 134.403 86.5079 134.84C89.0729 136.77 92.9458 135.761 94.5432 132.745C95.1642 131.572 96.761 132.82 97.052 134.153C97.3423 135.484 97.3861 137.202 98.4814 137.739C99.5663 135.774 99.2399 133.101 98.1765 131.12C97.1131 129.14 95.4378 127.714 93.764 126.412C90.3287 123.739 86.56 121.304 82.4294 120.945C78.2989 120.586 73.7488 122.826 72.1638 127.244ZM84.4756 144.408C83.5206 148.449 78.601 150.202 78.1975 154.366C79.1171 155.531 80.8049 154.98 81.9418 154.108C82.5218 153.663 83.0816 153.134 83.3976 152.418C83.7144 151.702 83.7338 150.764 83.2886 150.147C82.9017 149.61 83.7741 148.882 84.2915 149.244C84.8083 149.605 84.9382 150.384 85.0952 151.058C85.4306 152.495 86.1168 153.82 87.0545 154.841C87.8359 155.691 88.977 156.35 89.9626 155.86C90.3689 155.658 90.6912 155.285 90.992 154.91C94.1091 151.022 96.0477 145.897 96.3998 140.615C96.4401 140.015 96.4172 139.306 95.9914 138.959C95.5733 138.619 95.0058 138.817 94.4988 138.896C93.9918 138.976 93.318 138.756 93.2944 138.166C93.8737 137.518 94.8648 137.44 95.5156 137.99C95.79 138.222 96.0588 137.674 96.0491 137.282C96.0213 136.16 95.7087 135.05 95.16 134.124C93.9522 135.678 92.3853 136.939 90.6065 137.321C88.8284 137.704 86.8357 137.088 85.689 135.473C84.9965 137.179 84.6895 139.09 84.8055 140.969C84.8472 141.644 83.9977 141.851 83.4428 141.634C82.8885 141.417 82.2544 141.038 81.7661 141.412C81.2924 141.775 81.3459 142.657 81.7251 143.147C82.1037 143.637 82.6836 143.834 83.2317 144.009C83.6463 144.142 84.061 144.274 84.4756 144.408ZM49.5205 183.41C49.6052 182.994 49.6441 182.451 49.3205 182.247C48.5043 185.016 47.7382 187.806 47.0222 190.611C46.7471 191.689 46.4908 192.905 46.9631 193.887C47.3035 193.904 47.4785 193.43 47.5563 193.047C48.2113 189.834 48.8662 186.622 49.5205 183.41Z" fill="#343A40"/>
<path fill-rule="evenodd" clip-rule="evenodd" d="M126.232 264.45C143.916 262.804 161.682 262.322 179.414 263.008C178.897 256.126 178.38 249.244 177.863 242.361C159.773 243.303 141.682 244.244 123.592 245.185C123.035 251.299 120.982 257.221 117.729 262.089C116.162 264.433 117.509 267.746 118.515 270.47C119.522 273.194 119.602 277.325 117.13 278.116C113.869 276.262 111.544 272.373 111.201 268.194C97.823 268.868 84.4451 269.541 71.0678 270.215C66.0955 270.465 59.9584 271.689 58.4782 277.175C57.9004 272.852 52.9558 271.859 49.1677 271.917C37.847 272.093 26.5264 272.268 15.2057 272.444C15.0331 266.478 14.8605 260.512 14.6879 254.547C14.6544 253.391 14.631 252.179 15.0801 251.145C16.2859 248.37 19.7489 248.665 22.3667 249.378C21.5249 239.665 20.6838 229.953 19.842 220.24C15.9389 221.271 17.1946 209.717 13.2657 210.609C10.8873 211.149 8.64503 208.628 8.13745 205.891C7.62986 203.156 8.37027 200.339 9.10289 197.672C11.3109 196.893 14.4754 197.664 16.713 196.893C18.9508 196.123 20.3143 194.634 20.2365 191.94C18.6133 135.991 15.1084 80.1151 9.73292 24.4806C6.30117 26.1852 2.21452 23.1095 0.833946 19.1021C-0.5467 15.0947 0.0446443 10.5813 0.766987 6.34943C1.0205 4.86449 1.3318 3.28735 2.27647 2.2378C3.48063 0.89959 5.3315 0.815395 7.00282 0.811386C59.4492 0.673476 111.895 0.535573 164.342 0.397664C165.485 0.395258 166.744 0.440956 167.589 1.33015C168.361 2.14238 168.565 3.43168 168.726 4.62395C169.349 9.25997 169.961 14.0924 168.735 18.5649C167.509 23.0373 163.845 26.995 159.809 26.4474C162.016 81.665 164.224 136.882 166.432 192.099C170.03 191.191 174.238 192.728 176.033 196.441C177.827 200.154 176.19 205.765 172.597 206.694C174.889 208.895 173.783 213.579 171.259 215.413C168.736 217.248 165.527 217.061 162.557 216.748C159.587 216.434 156.418 216.101 153.785 217.716C154.407 224.37 154.329 231.11 153.554 237.742C156.109 235.984 159.566 236.167 161.969 238.189C163.637 239.593 165.153 236.178 165.138 233.794C165.101 228.244 165.064 222.693 165.027 217.142C167.631 224.038 168.356 231.86 167.073 239.234C170.284 239.524 173.495 239.812 176.706 240.102C177.671 240.188 178.716 240.314 179.424 241.077C180.129 241.836 180.312 243.026 180.435 244.129C181.225 251.254 181.107 258.512 180.085 265.597C159.283 263.932 138.337 264.66 117.658 267.766C119.802 265.206 123.157 264.735 126.232 264.45ZM64.5133 246.373C66.0059 241.582 71.4575 240.722 75.8672 240.664C77.8974 240.638 79.9269 240.612 81.9571 240.585C86.3475 240.528 90.7544 240.473 95.1086 241.122C95.6504 241.868 96.1922 242.614 96.7339 243.359C98.4696 242.723 100.53 243.567 101.528 245.325C104.498 241.765 108.162 238.667 112.398 237.947C116.634 237.227 121.452 239.488 123.072 244.063C123.656 241.742 124.387 239.28 126.076 237.853C127.765 236.425 130.685 236.772 131.376 239.053C134.103 235.564 139.612 235.855 142.05 239.617C142.078 237.785 144.23 237.141 145.784 237.512C147.338 237.882 149.053 238.679 150.412 237.732C151.874 236.713 151.963 234.346 151.881 232.375C149.156 167.695 146.431 103.015 143.707 38.3349C143.688 37.8803 143.652 37.3807 143.373 37.06C143.082 36.7249 142.626 36.6984 142.215 36.6928C106.576 36.1692 70.9373 35.6456 35.298 35.1221C34.5326 35.1108 33.6748 35.1413 33.1414 35.7755C32.6378 36.3737 32.6052 37.2974 32.6024 38.1312C32.4454 90.0206 34.236 141.919 37.9679 193.629C38.1151 195.661 39.0868 198.402 40.7795 197.82C40.8649 203.657 40.951 209.495 41.0365 215.333C41.0559 216.655 40.9823 218.201 40.0412 218.956C39.5188 219.376 38.8472 219.436 38.2117 219.483C33.008 219.861 27.8044 220.24 22.6008 220.618C23.4134 229.901 24.226 239.184 25.0387 248.467C29.6957 248.647 34.3666 248.364 38.982 247.623C36.7705 239.561 35.9926 230.979 36.7107 222.563C38.2714 222.711 38.7632 225.042 38.843 226.848C39.034 231.18 39.225 235.512 39.4154 239.844C39.5168 242.136 39.6668 244.588 40.8899 246.397C42.1123 248.206 44.8267 248.821 46.0206 246.986C50.2734 240.451 59.9431 240.131 64.5133 246.373ZM163.346 166.056C161.461 119.568 159.574 73.0793 157.688 26.5909C108.854 26.0208 60.0195 25.4507 11.185 24.8807C18.2017 81.6201 20.2156 139.006 22.2201 196.274C26.816 196.901 31.4758 196.901 36.0717 196.27C34.7486 173.651 33.4262 151.032 32.103 128.412C31.6328 120.374 31.1626 112.333 30.932 104.281C30.7403 97.5816 30.7146 90.8777 30.6889 84.1747C30.6299 68.6638 30.5701 53.1522 30.5111 37.6405C30.5042 35.9367 30.9674 33.6476 32.4434 33.6556C69.4912 33.8648 106.538 34.0741 143.585 34.2834C144.401 34.2882 145.362 34.382 145.785 35.187C145.99 35.5767 146.016 36.0538 146.035 36.51C147.539 70.7092 149.042 104.91 150.218 139.127C150.414 144.833 150.601 150.539 150.788 156.245C151.177 168.114 151.566 179.984 151.955 191.853C151.992 192.985 153.333 193.257 154.313 193.183C157.68 192.925 161.048 192.666 164.415 192.409C164.059 183.624 163.703 174.841 163.346 166.056ZM2.05776 17.739C2.75642 20.5437 4.78946 23.1263 7.31572 23.2386C44.0328 24.8775 80.8201 22.4015 117.535 24.0997C132.415 24.7876 147.406 26.1547 162.131 23.589C163.138 23.4142 164.197 23.1921 164.975 22.4328C165.703 21.7216 166.073 20.6439 166.363 19.5952C167.557 15.2735 167.845 10.623 167.197 6.14897C167.035 5.03046 166.75 3.80932 165.927 3.19113C165.313 2.7301 164.533 2.71326 163.801 2.71086C141.682 2.64992 119.564 2.58898 97.4465 2.52805C93.8702 2.51843 90.2939 2.5088 86.7184 2.49917C75.0032 2.4663 63.2888 2.43424 51.5736 2.40217C36.3447 2.36047 21.1151 2.31878 5.88756 2.59059C3.4109 2.63469 2.38525 6.21873 2.04602 9.0507C1.69985 11.942 1.35903 14.9343 2.05776 17.739ZM98.9398 247.294C87.615 247.768 76.2902 248.242 64.9654 248.715C65.8996 248.956 65.9948 250.503 65.5905 251.504C65.1863 252.506 64.4918 253.453 64.582 254.553C64.8682 258.008 63.9403 261.576 62.0538 264.278C60.7175 266.193 58.7998 268.581 59.9063 270.682C63.086 268.874 66.7366 268.616 70.276 268.392C83.2803 267.565 96.2845 266.739 109.289 265.913C110.135 262.274 105.477 258.879 106.77 255.42C107.065 254.63 106.593 253.759 106.145 253.072C104.311 250.262 101.985 247.166 98.9398 247.294ZM17.0787 254.789C17.3531 259.896 17.9084 264.982 18.7404 270.008C29.8867 269.969 41.0323 269.93 52.1786 269.891C52.7349 269.889 53.5267 269.374 53.1656 268.885C51.3965 266.49 49.6275 264.096 47.8584 261.701C46.8735 260.368 45.8518 258.948 45.5844 257.224C45.1809 254.618 46.4624 251.407 44.8142 249.565C36.1565 251.262 27.3467 251.923 18.5723 251.534C17.3664 251.48 17.004 253.399 17.0787 254.789ZM109.284 260.189C110.307 262.198 109.677 265.242 111.306 266.619C114.058 268.946 113.613 274.964 116.881 276.093C117.464 275.416 118.062 274.712 118.362 273.822C118.661 272.933 118.583 271.8 117.954 271.18C116.229 269.481 115.832 266.509 116.302 263.948C116.774 261.387 117.96 259.093 118.976 256.752C120.153 254.042 121.12 251.211 121.861 248.303C122.192 247.003 122.412 245.395 121.556 244.469C120.843 243.699 119.576 243.675 119.136 242.667C118.906 242.142 118.984 241.486 118.73 240.977C118.453 240.421 117.869 240.196 117.334 240.022C115.591 239.455 113.786 238.95 111.986 239.175C110.185 239.399 108.367 240.489 107.585 242.375C106.922 243.972 104.594 243.195 103.516 244.456C102.424 245.731 103.447 247.918 104.697 248.982C105.947 250.048 107.559 250.968 107.877 252.724C108.162 254.301 107.236 255.969 107.664 257.502C107.955 258.546 108.802 259.243 109.284 260.189ZM11.3109 208.229C11.8473 209.206 13.0197 209.329 14.0218 209.332C21.8777 209.352 29.7033 208.32 37.5081 207.289C38.9194 207.103 39.266 204.898 39.0292 203.281C38.7916 201.664 38.443 199.701 39.5209 198.633C30.5319 197.889 21.4895 197.998 12.5155 198.961C12.0752 199.008 11.5948 199.079 11.2892 199.448C10.9572 199.849 10.9419 200.464 10.9464 201.019C10.9608 202.793 10.9754 204.568 10.9898 206.342C10.9951 206.991 11.0097 207.679 11.3109 208.229ZM61.8733 246.164C60.2049 244.848 58.2477 243.468 56.2966 244.072C55.7945 244.229 55.2228 244.501 54.7929 244.164C52.6398 242.47 49.2093 243.877 48.4641 246.76C48.2265 247.68 47.3639 248.155 46.8402 248.9C46.3158 249.645 46.5103 251.193 47.3333 251.054C48.0168 250.938 48.3661 252.085 48.0751 252.808C47.7841 253.531 47.1687 254.012 46.8208 254.702C45.8942 256.537 47.1771 258.765 48.3905 260.362C50.2852 262.856 52.18 265.35 54.0747 267.844C55.6722 269.946 57.3044 272.116 58.1254 274.747C59.3041 273.839 59.061 271.787 58.6283 270.229C58.1956 268.672 57.7892 266.717 58.8304 265.606C59.261 265.147 59.8958 264.912 60.1612 264.308C60.4265 263.704 59.6778 262.787 59.3485 263.348C58.7602 264.351 57.7788 265.244 56.7523 264.997C55.725 264.749 55.277 262.784 56.2543 262.344C56.5967 263.146 57.6489 262.708 58.2685 262.172C59.152 261.408 60.0355 260.644 60.9189 259.88C62.065 258.889 63.3006 257.733 63.5242 256.101C63.7632 254.36 62.8304 252.267 63.8708 250.978C63.0012 250.11 63.4874 248.381 62.8936 247.244C62.6533 246.784 62.2573 246.467 61.8733 246.164ZM152.313 205.915C153.297 205.362 154.416 205.247 155.507 205.138C161.105 204.576 166.698 203.942 172.283 203.237C172.979 203.15 173.697 203.052 174.299 202.64C175.51 201.81 175.88 199.833 175.336 198.334C174.792 196.834 173.528 195.808 172.184 195.324C170.84 194.839 169.407 194.824 167.999 194.838C163.336 194.887 158.675 195.216 154.043 195.825C153.221 195.933 152.301 196.114 151.824 196.893C151.395 197.592 151.474 198.532 151.57 199.381C151.817 201.559 152.065 203.737 152.313 205.915ZM19.1064 216.914C19.7489 218.095 21.0908 218.518 22.2965 218.429C23.5016 218.341 24.656 217.848 25.8471 217.62C29.6818 216.887 33.8179 218.901 37.4032 217.171C37.6887 217.033 37.9783 216.861 38.1513 216.566C38.3221 216.274 38.3541 215.906 38.3777 215.555C38.4909 213.88 38.5305 212.197 38.4958 210.517C38.4902 210.255 38.4708 209.961 38.2999 209.789C38.1679 209.655 37.9804 209.631 37.8054 209.616C31.4585 209.051 25.1553 211.338 18.7911 211.23C18.3639 211.223 18.2573 211.911 18.3017 212.402C18.3785 213.249 18.4732 214.095 18.5855 214.937C18.6772 215.623 18.7869 216.326 19.1064 216.914ZM171.835 207.345C171.777 206.995 171.698 206.626 171.473 206.382C171.155 206.037 170.662 206.061 170.227 206.108C165.156 206.647 160.089 207.222 155.025 207.835C154.333 207.919 153.537 208.078 153.193 208.775C152.772 209.627 153.295 210.669 153.329 211.648C153.351 212.262 153.181 212.921 153.43 213.463C153.762 214.184 154.612 214.267 155.319 214.252C157.37 214.212 159.421 214.135 161.472 214.056C164.67 213.934 167.869 213.812 171.068 213.69C171.698 213.666 171.967 212.76 172.026 212.035C172.155 210.472 172.089 208.888 171.835 207.345ZM152.309 239.874C152.049 239.71 151.858 239.425 151.596 239.264C151.042 238.922 150.352 239.225 149.833 239.637C149.314 240.048 148.835 240.58 148.222 240.742C147.608 240.903 146.817 240.451 146.851 239.726C146.899 238.73 145.651 238.338 144.872 238.768C144.092 239.198 143.526 240.058 142.721 240.42C142.186 240.661 141.556 240.675 141.116 241.102C140.677 241.529 140.777 242.626 141.35 242.579C147.268 242.099 153.186 241.618 159.103 241.138C159.602 241.097 160.181 241.001 160.429 240.5C160.805 239.739 159.989 238.82 159.23 238.837C158.471 238.854 157.809 239.396 157.104 239.721C155.883 240.284 154.52 240.194 153.208 240.095C152.9 240.072 152.58 240.046 152.309 239.874ZM80.7111 245.8C85.2924 245.467 89.8737 245.134 94.4551 244.801C94.7259 244.781 95.0239 244.747 95.2114 244.521C95.5768 244.082 95.185 243.295 94.6738 243.146C94.1627 242.998 93.6362 243.238 93.125 243.387C92.6138 243.536 91.9921 243.556 91.6462 243.096C90.9197 242.13 89.4903 244.08 88.5457 243.411C87.2434 242.488 85.7064 241.951 84.1839 242.098C82.6607 242.246 81.1667 243.122 80.3034 244.578C80.0909 244.937 79.9561 245.513 80.2805 245.733C80.4076 245.819 80.5646 245.811 80.7111 245.8ZM130.261 238.112C129.56 237.655 128.702 238.272 128.138 238.933C127.461 239.725 126.869 241.002 127.465 241.875C127.874 242.475 128.63 242.53 129.291 242.534C130.865 242.546 132.438 242.556 134.012 242.567C134.294 242.569 134.588 242.567 134.84 242.42C135.226 242.192 135.41 241.683 135.565 241.215C135.872 240.285 136.104 239.035 135.399 238.46C135.135 238.246 134.801 238.195 134.481 238.15C133.801 238.055 133.008 238.003 132.542 238.583C131.911 239.368 132.165 240.988 131.282 241.314C130.832 240.262 131.145 238.689 130.261 238.112ZM77.3328 245.421C77.5571 245.409 77.7877 245.395 77.9912 245.287C78.7261 244.893 78.5531 243.477 77.8447 243.024C77.1362 242.572 76.243 242.837 75.5269 243.274C74.8768 243.671 74.1038 243.233 73.4099 242.953C71.4971 242.181 69.2286 242.745 67.7617 244.359C67.3839 244.774 67.0394 245.418 67.2943 245.944C70.6407 245.769 73.9864 245.595 77.3328 245.421ZM136.677 242.763C136.792 242.849 136.934 242.862 137.071 242.87C138.112 242.925 139.412 242.496 139.579 241.308C139.676 240.62 139.265 239.885 138.681 239.705C137.682 239.397 136.798 240.596 136.52 241.745C136.433 242.101 136.407 242.562 136.677 242.763ZM126.458 240.425C126.505 239.922 126.265 239.165 125.876 239.399C125.476 240.248 125.232 241.193 125.162 242.155C125.136 242.506 125.141 242.886 125.319 243.171C125.498 243.456 125.91 243.561 126.103 243.289C126.197 243.157 126.217 242.977 126.233 242.807C126.308 242.013 126.383 241.219 126.458 240.425ZM60.8592 261.471C60.5543 262.169 60.7717 263.112 61.3364 263.542C61.7309 262.983 62.1504 262.308 62.0045 261.606C61.858 260.905 60.7752 260.69 60.6842 261.404M98.8745 245.665C99.2836 245.736 99.8025 245.666 99.9532 245.221C99.5156 244.847 98.9252 244.72 98.4002 244.889C98.2786 245.073 98.2335 245.321 98.2814 245.546C98.4516 245.677 98.6689 245.724 98.869 245.672L98.8745 245.665Z" fill="#343A40"/>
<path fill-rule="evenodd" clip-rule="evenodd" d="M368.569 43.9587C370.176 44.0076 371.997 44.1712 373.01 45.6137C373.842 46.7995 373.843 48.4713 373.803 49.9971C372.252 110.078 370.4 170.149 368.25 230.205C366.324 212.7 367.045 194.968 367.771 177.342C369.043 146.418 370.315 115.493 371.588 84.5676C371.493 89.829 369.91 96.8536 365.353 96.6988C340.141 95.8409 314.929 94.983 289.717 94.125C287.761 94.0585 285.369 93.6544 284.675 91.5424C312.373 92.4084 340.07 93.2743 367.767 94.1403C368.965 89.1266 369.283 83.8355 368.696 78.6791C340.911 78.0489 313.127 77.4187 285.342 76.7885C284.766 75.0494 287.066 74.0688 288.68 74.1089C314.959 74.7599 341.239 75.411 367.519 76.0629C368.911 76.0973 369.437 73.9982 369.53 72.3954C369.922 65.556 370.313 58.7175 370.705 51.8781C370.791 50.3772 370.827 48.6982 369.96 47.5749C369.062 46.4114 367.55 46.296 366.201 46.2631C339.221 45.6064 312.24 44.9498 285.26 44.2931C283.473 85.1489 282.917 126.075 283.592 166.975C286.354 158.709 292.146 151.857 299.238 148.469C294.54 143.402 293.018 134.805 295.615 128.016C292.625 129.796 290.099 124.29 291.009 120.551C291.277 119.449 292.764 118.388 293.157 117.292C294.095 114.67 293.655 113.022 293.214 109.419C292.775 105.814 297.048 104.791 299.602 106.546C302.155 108.301 304.681 111.371 307.53 110.396C310.985 109.214 314.65 112.377 315.953 116.256C317.256 120.135 316.821 124.465 316.366 128.593C315.711 134.55 314.038 141.852 308.94 143.053C308.559 147.301 313.972 147.912 317.62 148.624C322.594 149.595 326.685 153.971 329.078 159.099C331.471 164.226 332.412 170.069 333.166 175.828C335.583 194.277 336.356 213.551 331.139 231.211C343.017 230.994 354.895 230.776 366.773 230.558C359.866 233.336 352.398 233.444 345.083 233.464C325.083 233.518 305.081 233.132 285.093 232.304C283.891 232.255 282.582 232.157 281.685 231.231C280.724 230.241 280.533 228.614 280.423 227.133C279.711 217.59 279.796 207.97 280.673 198.446C281.414 209.029 282.154 219.612 282.893 230.195C292.6 230.61 302.306 231.025 312.012 231.44C315.699 231.597 320.374 231.012 321.522 226.964C321.515 228.299 321.507 229.634 321.5 230.968C324.043 231.608 326.693 231.672 329.256 231.157C333.712 216.042 334.614 199.554 331.842 183.912C328.845 183.542 326.3 186.822 325.668 190.224C325.035 193.625 325.744 197.139 326.093 200.595C326.975 209.342 325.466 218.391 321.832 226.134C324.937 215.883 325.621 204.671 323.791 194.019C322.46 186.27 319.817 178.683 320.088 170.788C322.266 175.501 323.308 180.906 323.069 186.24C326.027 184.82 328.985 183.401 331.942 181.982C331.461 174.294 330.915 166.342 327.74 159.562C324.565 152.782 317.994 147.479 311.443 148.972C310.862 153.698 308.078 158.663 303.952 158.967C299.826 159.272 296.648 151.963 300.168 149.457C291.843 152.175 286.947 161.834 282.929 170.677C281.324 174.212 279.679 177.953 279.792 181.942C279.906 185.931 282.477 190.127 285.934 190.109C289.94 185.157 292.266 178.439 292.322 171.664C293.361 189.184 293.317 206.79 292.191 224.303C292.077 226.078 290.424 228.432 289.567 226.951C291.672 213.619 291.923 199.899 290.303 186.476C286.573 192.413 281.445 197.169 275.619 200.095C272.944 201.438 272.257 205.515 272.694 208.844C273.131 212.174 274.314 215.455 273.935 218.794C273.556 222.133 271.991 225.207 267.931 224.014C263.871 222.82 258.004 224.747 258.004 224.747C258.004 224.747 258.765 240.131 260.086 244.71C265.182 249.275 272.83 240.628 278.715 243.676C282.376 245.572 286.547 245.467 290.556 245.328C293.06 245.24 296.582 243.067 295.123 240.716C288.751 241.489 282.308 241.478 275.937 240.685C273.198 240.344 271.193 237.284 270.713 234.152C270.234 231.02 270.933 227.825 271.627 224.747C272.05 227.265 271.897 231.663 272.132 233.464C272.367 235.265 273.052 238.247 274.766 238.44C288.214 239.957 292.725 238.971 302.138 236.437C303.793 235.992 305.831 235.43 307.53 235.442C309.563 235.456 311.464 236.721 313.437 237.286C320.287 239.245 327.467 238.634 334.503 238.01C348.083 236.805 361.664 235.6 375.244 234.396C380.772 223.654 370.286 207.35 377.735 198.285C378.365 143.781 378.993 89.2789 379.622 34.7765C344.293 33.488 308.929 33.4904 273.599 34.7837C271.186 82.094 270.728 129.537 272.228 176.897C269.988 170.136 269.831 162.729 269.733 155.49C269.202 116.368 269.601 77.2287 270.93 38.132C270.991 36.3408 271.152 34.3155 272.367 33.2002C273.28 32.3631 274.536 32.2917 275.702 32.2573C310.645 31.2245 345.611 31.2422 380.554 32.3102C380.554 71.0797 382.335 104.253 380.017 140.119C378.731 160.018 379.622 178.456 379.622 198.446C382.987 198.912 387.436 197.071 388.509 193.361C389.581 189.65 389.168 185.618 388.826 181.726C384.23 129.454 394.669 76.7051 391.27 24.3114C347.73 22.0094 304.109 21.7216 260.549 23.4479C259.648 23.4839 258.66 23.5601 258.004 24.2745C257.27 25.0755 257.213 26.3793 257.207 27.5459C256.964 70.7758 256.721 114.006 256.478 157.236C254.197 119.049 253.56 80.7085 255.252 42.481C255.437 38.3076 255.639 34.03 254.568 30.0379C253.498 26.0457 250.859 22.3334 247.301 21.5596C246.6 14.3987 246.694 7.13362 247.58 0C298.853 0.307892 350.126 0.615777 401.399 0.923669C401.584 5.42739 401.77 9.9311 401.955 14.4348C402.13 18.6988 400.668 24.7364 397.043 23.8873C395.571 23.5417 394.865 25.8869 394.788 27.6188C394.151 41.8468 393.515 56.074 392.879 70.3019C390.989 112.586 389.098 154.932 390.367 197.246C393.644 197.436 396.921 197.624 400.197 197.813C401.066 200.188 401.954 202.715 401.63 205.267C401.306 207.818 399.254 210.262 397.07 209.722C398.974 214.846 393.895 221.27 389.302 219.548C389.671 225.674 390.039 231.801 390.408 237.927C390.477 239.083 390.581 240.334 391.26 241.187C393.38 243.847 397.921 239.741 400.159 242.267C400.462 248.293 400.765 254.318 401.068 260.344C401.15 261.988 401.159 263.86 400.125 264.992C399.431 265.752 398.43 265.977 397.487 266.161C379.094 269.751 360.241 270.175 341.741 267.415C342.734 272.906 343.503 279.394 340.139 283.442C337.659 286.428 332.918 288.755 334.047 292.681C336.081 292.185 337.921 290.713 339.039 288.691C338.823 291.315 336.708 293.544 334.424 293.555C332.464 293.794 332.854 290.015 334.191 288.343C337.128 284.674 340.925 281.391 341.86 276.513C342.795 271.636 337.955 265.674 334.532 268.729C332.472 270.566 332.566 274.123 332.855 277.109C331.005 274.699 331.246 270.549 333.359 268.446C327.849 269.897 322.132 270.295 316.512 269.618C323.611 268.376 330.71 267.134 337.809 265.892C335.789 259.435 336.316 251.978 339.216 245.984C334.774 245.419 330.252 245.706 325.89 246.826C324.67 247.139 323.422 247.54 322.446 248.443C321.42 249.391 320.802 250.792 320.242 252.164C315.487 263.801 312.75 276.53 312.24 289.382C311.135 281.986 311.949 274.222 314.551 267.345C313.925 266.197 313.114 265.185 312.172 264.375C318.645 261.45 321.75 251.341 318.319 244.361C317.78 243.263 317.112 242.251 316.353 241.344C311.791 235.886 303.74 234.934 298.315 239.212C295.997 242.58 297.117 243.714 296.135 245.711C295.536 246.93 294.208 247.694 293.637 248.954C293.423 249.425 293.37 250.13 293.157 250.601C294.742 252.096 296.732 253.012 298.774 253.188C298.572 255.717 298.371 258.246 298.169 260.774C299.328 261.007 300.486 261.24 301.645 261.473C300.094 263.255 301.477 266.97 303.665 266.899C305.732 274.491 307.801 282.084 309.869 289.677C307.757 283.583 305.646 277.49 303.535 271.395C296.421 272.331 289.307 273.266 282.193 274.201C282.45 275.705 283.122 277.111 284.087 278.164C279.868 278.87 275.632 274.229 276.021 269.328C273.946 273.649 277.148 278.801 280.444 281.953C283.739 285.104 287.734 288.644 287.595 293.582C284.319 294.908 280.294 292.212 279.664 288.272C280.855 290.831 283.427 292.439 285.935 292.192C284.305 290.301 282.674 288.41 281.043 286.52C282.248 287.354 283.454 288.189 284.659 289.023C285.201 287.398 283.949 285.576 282.49 285.137C281.03 284.698 279.498 285.226 278.061 285.751C275.393 286.725 272.636 287.758 270.563 289.927C268.492 292.097 267.302 295.746 268.537 298.644C271.178 297.595 273.442 295.337 274.726 292.474C274.586 296.324 271.357 299.652 268.028 299.38C265.668 294.03 269.567 286.552 274.766 286.454C276.91 286.414 278.181 283.312 277.616 280.925C277.052 278.538 275.323 276.798 273.679 275.209C272.573 276.876 271.145 278.257 269.529 279.222C269.476 276.406 269.956 273.58 270.924 270.996C268.737 273.862 267.505 277.673 267.529 281.492C266.413 278.344 266.513 274.653 267.796 271.591C261.329 272.863 254.762 273.459 248.202 273.37C247.121 264.721 246.041 256.071 244.961 247.421C249.017 246.155 253.22 245.513 257.422 245.518C255.316 230.968 257.422 230.564 254.806 224.014C254.45 223.124 253.188 224.824 252.329 222.82C251.469 220.814 251.086 215.593 251.086 215.593C251.086 215.593 247.578 215.002 247.301 213.912C246.216 209.635 244.997 205.814 247.635 203.512C250.449 201.059 254.855 203.16 257.802 200.928C256.694 195.879 256.48 190.571 257.176 185.425C258.908 188.825 258.291 193.146 259.244 196.934C260.197 200.721 264.688 203.904 266.835 200.836C263.689 194.359 259.471 185.044 255.208 179.482C252.483 175.927 248.618 176.776 245.789 172.851C242.96 168.926 242.121 168.147 241.123 164.866C240.126 161.584 241.486 157.089 244.47 156.609C247.388 156.141 249.594 159.473 251.086 162.406C250.415 159.818 252.209 156.783 254.541 156.56C257.427 167.066 262.656 176.701 269.585 184.282C271.759 186.662 276.148 188.26 277.012 184.949C275.47 182.166 278.149 178.976 279.641 176.156C281.443 172.747 281.522 168.531 281.549 164.537C281.813 124.859 282.076 85.1801 282.34 45.5014C282.361 42.3792 286.019 41.4748 288.723 41.5566C315.338 42.3576 341.954 43.1585 368.569 43.9587ZM249.287 20.1308C249.688 20.486 250.234 20.502 250.739 20.502C261.116 20.5133 271.493 20.5245 281.87 20.5349C287.884 20.5413 293.898 20.5478 299.912 20.5542C311.429 20.5662 322.946 20.5782 334.462 20.5902C355.09 20.6119 375.718 20.6336 396.345 20.6552C397.467 20.656 398.797 20.5285 399.367 19.4124C399.658 18.8423 399.667 18.1448 399.668 17.4833C399.675 13.0301 399.682 8.57606 399.689 4.12286C399.69 3.65942 399.674 3.14706 399.399 2.8103C399.106 2.4511 398.628 2.42464 398.2 2.42143C349.278 2.08788 300.356 1.75434 251.434 1.41999C250.828 1.41598 250.15 1.44484 249.727 1.94677C249.345 2.39898 249.299 3.08934 249.274 3.72036C249.087 8.39887 248.901 13.0774 248.714 17.7567C248.68 18.6114 248.699 19.6088 249.287 20.1308ZM337.784 259.107C337.48 258.76 336.913 259.128 336.835 259.614C336.756 260.099 336.985 260.573 337.209 260.994C337.997 262.47 338.884 263.96 340.186 264.822C341.449 265.658 342.957 265.805 344.408 265.934C349.406 266.378 354.403 266.821 359.4 267.264C362.613 267.55 365.832 267.835 369.055 267.771C379.063 267.571 388.862 264.009 398.872 263.953C399.694 263.948 399.92 262.654 399.881 261.705C399.684 256.774 399.487 251.843 399.29 246.911C399.237 245.575 398.778 243.794 397.624 243.902C378.547 245.693 359.378 246.157 340.253 245.292C340.364 249.763 339.24 254.262 337.083 257.978C339.148 258.083 341.224 257.899 343.25 257.43C341.718 256.849 340.102 256.561 338.489 256.582C341.211 254.913 344.924 255.846 346.798 258.67C346.971 258.93 347.137 259.233 347.112 259.56C347.064 260.196 346.389 260.453 345.844 260.556C343.053 261.088 339.798 261.4 337.784 259.107ZM268.351 262.269C267.896 262.65 267.256 263.031 266.822 262.62C266.612 262.421 266.534 262.095 266.468 261.791C266.124 260.221 265.777 258.612 265.906 256.999C266.036 255.386 266.734 253.738 267.993 253.019C269.27 252.289 270.775 251.015 270.384 249.432C270.012 247.927 268.283 247.677 266.927 247.722C260.591 247.931 254.254 248.141 247.917 248.351C247.658 248.359 247.371 248.382 247.192 248.598C246.978 248.857 247.017 249.269 247.071 249.622C248.079 256.28 249.088 262.939 250.098 269.598C250.176 270.117 250.293 270.702 250.689 270.965C250.951 271.137 251.271 271.122 251.572 271.1C255.684 270.808 259.787 270.353 263.871 269.738C267.23 269.231 271.191 268.854 273.451 271.766C273.436 269.196 275.11 267.103 276.271 264.91C277.432 262.717 277.941 259.414 276.127 257.925C274.247 256.383 272.614 254.444 271.331 252.233C270.544 253.372 271.495 254.968 271.688 256.407C272.015 258.846 270.081 260.82 268.351 262.269ZM242.036 160.65C242.102 161.366 242.495 161.979 242.874 162.552C244.666 165.259 246.458 167.966 248.25 170.674C246.211 168.777 244.172 166.88 242.133 164.983C244.26 170.301 248.253 174.585 253.001 176.648C253.792 176.991 254.612 177.281 255.316 177.819C256.548 178.76 257.279 180.335 257.995 181.827C260.443 186.921 263.295 191.757 266.502 196.256C267.932 198.263 269.84 200.388 272.068 200.008C276.807 199.199 281.214 196.064 283.971 191.542C282.699 190 281.429 188.458 280.158 186.915C279.717 186.38 279.245 185.822 278.629 185.623C278.013 185.424 277.222 185.745 277.074 186.464C276.632 188.608 274.244 189.539 272.419 188.889C270.593 188.24 269.231 186.521 267.962 184.873C261.876 176.969 255.532 168.462 254.066 158.023C253 157.416 252.298 159.392 252.329 160.764C252.363 162.292 252.398 163.82 252.433 165.347C249.081 163.765 247.928 157.593 244.306 157.612C245.981 160.936 247.846 164.132 249.885 167.172C246.88 165.493 244.405 162.581 243.006 159.081C242.382 159.106 241.97 159.932 242.036 160.65ZM378.459 229.568C378.016 232.192 376.785 234.77 374.744 236.031C373.285 236.932 371.577 237.081 369.926 237.212C358.997 238.08 348.067 238.948 337.138 239.816C338.357 241.705 339.898 243.787 341.939 243.735C357.249 243.351 372.559 242.965 387.869 242.58C388.408 242.566 389.031 242.504 389.337 241.992C389.571 241.6 389.533 241.081 389.485 240.609C388.812 233.986 388.139 227.363 387.466 220.739C387.422 220.313 387.362 219.847 387.085 219.561C386.758 219.224 386.264 219.267 385.83 219.33C383.926 219.605 382.023 219.88 380.12 220.155C379.347 220.268 378.344 220.688 378.425 221.582C378.664 224.24 378.902 226.945 378.459 229.568ZM284.868 271.997C290.165 271.534 295.44 270.73 300.659 269.588C301.583 269.386 302.716 268.914 302.779 267.831C301.696 267.929 300.59 267.199 300.114 266.07C299.639 264.941 299.825 263.485 300.561 262.563C299.727 262.591 298.851 262.61 298.105 262.175C297.36 261.741 296.81 260.692 297.127 259.799C297.642 258.344 297.694 256.677 297.272 255.182C297.019 254.284 296.416 253.329 295.601 253.408C294.203 253.542 292.805 252.313 292.545 250.722C292.285 249.13 293.2 247.398 294.544 246.936C294.469 246.53 293.996 246.465 293.637 246.493C286.676 247.036 279.714 247.578 272.753 248.12C272.511 248.139 272.224 248.192 272.123 248.446C272.061 248.603 272.094 248.787 272.132 248.954C272.79 251.85 274.448 254.426 276.66 255.988C275.548 254.671 276.549 252.186 278.097 251.748C279.644 251.311 281.243 252.348 282.328 253.695C283.413 255.042 284.166 256.705 285.228 258.077C285.537 258.477 285.886 258.878 285.993 259.399C286.101 259.921 285.827 260.589 285.362 260.6C285.158 260.605 284.967 260.483 284.789 260.367C282.571 258.916 280.354 257.465 278.137 256.014C278.608 254.99 279.99 255.333 280.754 256.086C281.518 256.839 282.188 257.909 283.188 258.021C282.759 257.173 282.33 256.325 281.901 255.477C281.259 254.209 280.242 252.747 279.013 253.121C278.017 253.425 277.581 254.885 277.853 256.032C278.124 257.178 278.886 258.068 279.62 258.902C280.767 260.207 282.364 261.616 283.822 260.827C284.257 260.591 284.678 261.379 284.434 261.858C284.192 262.337 283.643 262.466 283.163 262.455C281.788 262.425 280.441 261.619 279.63 260.338C279.346 262.166 279.063 263.994 278.78 265.822C280.639 266.552 282.088 268.522 282.411 270.758C282.573 271.881 283.884 272.083 284.868 271.997ZM308.077 111.525C307.003 111.583 306.003 112.186 304.935 112.34C303.615 112.529 302.231 111.98 301.291 110.895C300.109 109.532 296.533 106.012 295.265 107.341C293.998 108.67 293.736 113.878 295.195 116.691C295.472 117.225 295.198 117.94 294.78 118.332C294.362 118.725 293.829 118.911 293.364 119.225C292.054 120.107 291.4 122.101 291.871 123.764C292.343 125.427 293.894 126.586 295.402 126.403C294.308 124.86 294.444 122.348 295.697 120.974C296.95 119.601 299.131 119.574 300.409 120.916C301.232 121.78 302.541 121.596 303.559 121.078C304.578 120.56 305.507 119.762 306.599 119.509C308.028 119.18 309.6 119.933 310.405 121.336C311.212 122.738 311.203 124.703 310.385 126.095C309.616 127.402 310.267 129.482 311.581 129.921C312.895 130.36 314.407 129.002 314.362 127.423C314.287 124.812 315.88 122.393 315.691 119.787C315.532 117.596 314.153 115.806 312.77 114.294C311.458 112.858 309.882 111.428 308.077 111.525ZM297.253 121.953C295.909 122.31 295.447 124.71 296.533 125.69C297.471 124.739 298.977 124.64 300.002 125.461C299.479 126.487 298.048 125.924 297.146 126.505C296.384 126.996 296.207 128.154 296.135 129.16C295.939 131.881 295.893 134.617 295.997 137.345C296.066 139.164 296.21 141.018 296.842 142.684C297.474 144.351 298.676 145.824 300.213 146.224C301.562 146.574 302.992 146.06 304.141 145.173C305.288 144.286 306.199 143.054 307.075 141.822C308.187 140.257 309.282 138.637 309.946 136.765C310.611 134.892 310.804 132.711 310.096 130.86C309.512 129.334 309.251 127.644 309.342 125.978C309.414 124.654 309.665 123.163 308.947 122.127C308.072 120.866 306.343 121.128 305.066 121.789C303.789 122.449 302.496 123.413 301.112 123.176C299.772 122.946 298.572 121.602 297.253 121.953ZM247.709 210.708C247.708 211.361 247.859 212.062 248.094 212.571C248.714 213.912 254.338 212.601 255.208 212.501C260.193 211.925 265.179 211.35 270.163 210.775C270.928 210.687 271.85 210.46 272.089 209.617C272.208 209.2 272.112 208.745 272.016 208.32C271.79 207.325 271.565 206.329 271.339 205.334C271.204 204.734 271.053 204.105 270.675 203.664C270.043 202.929 269.021 202.97 268.128 203.06C262.073 203.678 256.019 204.296 249.964 204.913C249.163 204.995 248.222 205.182 247.869 206.018C247.715 206.384 247.712 206.807 247.712 207.214C247.71 208.378 247.71 209.544 247.709 210.708ZM376.745 206.806C376.971 207.169 377.419 207.205 377.807 207.207C384.682 207.246 391.558 207.284 398.433 207.322C398.886 207.325 399.37 207.317 399.747 207.025C400.371 206.542 400.428 205.525 400.421 204.657C400.413 203.613 400.4 202.541 400.071 201.568C399.741 200.595 399.02 199.728 398.12 199.617C391.651 198.821 385.172 201.503 378.683 200.97C377.732 200.892 376.897 201.826 376.607 202.874C376.316 203.923 376.441 205.057 376.57 206.147C376.597 206.377 376.628 206.618 376.745 206.806ZM376.463 210.988C376.28 213.224 376.415 215.493 376.861 217.679C382.565 217.453 388.266 217.082 393.956 216.566C394.897 216.48 396.132 216.024 396.063 214.936C395.992 213.795 395.92 212.653 395.848 211.51C395.825 211.137 395.793 210.738 395.593 210.443C395.318 210.039 394.823 209.96 394.379 209.915C388.841 209.355 383.268 209.243 377.715 209.579C377.404 209.598 377.068 209.629 376.83 209.862C376.559 210.129 376.497 210.579 376.463 210.988ZM271.799 214.397C271.7 213.529 270.668 213.394 269.915 213.492C264.515 214.192 259.116 214.893 253.716 215.593C253.486 215.623 253.245 215.658 253.058 215.816C252.69 216.128 252.695 216.755 252.745 217.279C252.899 218.897 253.203 220.66 254.301 221.68C255.783 223.059 257.938 222.465 259.8 222.008C263.266 221.159 266.866 221.045 270.367 221.674C271.132 221.812 271.853 221.081 272.106 220.237C272.359 219.392 272.262 218.468 272.161 217.582C272.04 216.52 271.92 215.458 271.799 214.397ZM307.547 154.978C308.125 154.097 308.654 153.172 309.13 152.213C309.493 151.481 309.835 150.63 309.623 149.823C309.486 149.298 309.136 148.89 308.847 148.454C307.949 147.095 307.601 145.27 307.923 143.601C307.951 143.458 307.982 143.307 307.94 143.169C307.772 142.631 307.092 143.145 306.837 143.635C305.738 145.751 303.843 147.292 301.748 147.777C301.292 147.882 301.413 148.7 301.173 149.103C300.168 150.788 298.096 153.019 300.002 155.628C301.434 157.588 301.737 158.019 302.138 158.161C304.203 158.893 306.243 156.965 307.547 154.978ZM322.547 245.584C323.11 245.467 323.673 245.35 324.236 245.233C325.332 245.006 326.467 244.759 327.376 244.016C328.576 243.036 329.325 241.241 330.753 240.841C331.099 240.744 331.578 240.333 331.285 240.099C331.214 240.042 331.121 240.041 331.034 240.042C327.199 240.098 323.365 240.294 319.541 240.631C320.017 242.077 320.571 243.487 321.199 244.853C321.323 245.124 321.464 245.409 321.701 245.548C321.957 245.699 322.264 245.644 322.547 245.584ZM333.791 240.908C332.017 241.207 330.503 242.553 329.286 244.071C328.991 244.439 329.3 245.162 329.732 245.116C330.202 244.261 331.213 244.114 332.09 244.054C334.101 243.918 336.112 243.78 338.123 243.643C337.597 241.664 335.565 240.61 333.791 240.908ZM311.017 136.677C310.646 138.376 309.826 139.941 308.693 141.107C308.766 141.541 309.316 141.499 309.674 141.343C310.962 140.784 312.29 140.172 313.229 139.01C314.167 137.848 314.59 135.973 313.832 134.648C313.573 135.971 311.304 135.362 311.017 136.677ZM277.449 269.686C277.01 270.717 276.993 272.199 277.854 272.777C278.59 273.271 279.647 272.696 279.889 271.754C280.131 270.811 279.621 269.738 278.845 269.335C278.363 269.086 277.681 269.139 277.449 269.686ZM273.658 245.115C273.528 245.354 273.493 245.754 273.725 245.842C275.311 245.647 276.91 245.604 278.502 245.711C278.681 245.266 278.443 244.717 278.085 244.452C277.727 244.187 277.285 244.134 276.862 244.089C275.697 243.964 274.281 243.972 273.658 245.115ZM344.408 259.551C344.674 259.454 344.857 259.118 344.817 258.8C342.965 258.354 341.028 258.384 339.187 258.889C340.747 259.931 342.689 260.178 344.408 259.551ZM267.914 259.763C268.358 257.776 268.669 255.749 268.844 253.706C267.118 254.901 266.648 257.956 267.914 259.763ZM311.802 134.604C312.506 134.538 313.127 133.845 313.209 133.034C313.29 132.224 312.823 131.385 312.15 131.135C311.515 131.866 311.165 132.915 311.211 133.95C311.22 134.15 311.253 134.37 311.387 134.497C311.499 134.603 311.656 134.618 311.802 134.604ZM280.378 274.411C279.807 273.728 278.771 273.658 278.133 274.26C278.402 274.962 278.879 275.557 279.466 275.92C279.735 276.087 280.064 276.204 280.341 276.058C280.848 275.789 280.766 274.874 280.378 274.411ZM280.86 270.142C280.916 269.135 280.446 268.112 279.693 267.599C278.939 267.087 277.937 267.11 277.201 267.655C278.562 268.15 279.824 269.008 280.86 270.142ZM270.415 256.455C270.304 256.146 270.078 255.822 269.79 255.868C269.197 256.956 269.201 258.44 269.801 259.523C270.527 258.78 270.786 257.49 270.415 256.455ZM271.111 275.52C270.97 275.798 271.098 276.207 271.36 276.318C271.744 276.093 271.996 275.597 271.98 275.1C271.671 274.949 271.267 275.177 271.18 275.552M369.317 76.8663C369.137 77.0194 368.957 77.1717 368.777 77.3241C368.889 77.5598 369.002 77.7956 369.115 78.0313C369.443 77.8372 369.576 77.3008 369.385 76.9352L369.317 76.8663Z" fill="#343A40"/>
<path d="M297.085 139.42C297.469 139.42 297.78 138.702 297.78 137.816C297.78 136.93 297.469 136.212 297.085 136.212C296.702 136.212 296.391 136.93 296.391 137.816C296.391 138.702 296.702 139.42 297.085 139.42Z" fill="#343A40"/>
<path fill-rule="evenodd" clip-rule="evenodd" d="M311.611 226.867C312.795 210.729 313.789 194.571 315.163 178.452C315.506 174.432 325.332 179.302 321.254 214.167C320.609 219.68 317.538 227.917 312.057 228.339L311.611 226.867Z" fill="#343A40"/>
<path fill-rule="evenodd" clip-rule="evenodd" d="M70.7539 171.592C71.6353 193.5 68.5827 179.62 76.4896 185.487C77.835 186.486 79.3067 188.35 79.0511 190.173C78.549 193.752 75.5589 196.284 74.4962 199.697C69.2356 216.588 93.0757 217.343 97.4 220C98.8454 220.888 98.196 224.133 97.2396 225.668C93.7626 231.247 73.5322 216.099 70.9838 213.835C54.0935 198.832 56.1057 189.015 69.3655 173.603L70.7539 171.592Z" fill="#343A40"/>
<path d="M87.3282 149.041C87.7118 149.041 88.0227 148.323 88.0227 147.438C88.0227 146.552 87.7118 145.834 87.3282 145.834C86.9446 145.834 86.6336 146.552 86.6336 147.438C86.6336 148.323 86.9446 149.041 87.3282 149.041Z" fill="#343A40"/>
</svg>
