<svg width="577" height="431" viewBox="0 0 577 431" fill="none" xmlns="http://www.w3.org/2000/svg">
<path fill-rule="evenodd" clip-rule="evenodd" d="M170.029 383.758C171.472 387.579 171.587 393.373 168.045 394.484C163.371 391.883 160.04 386.426 159.548 380.564C140.379 381.509 121.209 382.454 102.04 383.399C94.9147 383.75 86.1205 385.467 83.9996 393.163C83.1715 387.099 76.0862 385.705 70.658 385.787C54.4362 386.034 38.2143 386.28 21.9923 386.526C21.745 378.156 21.4977 369.787 21.2504 361.417C21.2024 359.795 21.1689 358.096 21.8124 356.646C23.5402 352.751 28.5025 353.165 32.2537 354.165C31.0474 340.539 29.8421 326.912 28.6358 313.285C23.0429 314.732 24.8423 298.523 19.2124 299.774C15.8043 300.532 12.5912 296.994 11.8639 293.156C11.1366 289.317 12.1975 285.366 13.2473 281.624C16.4113 280.531 20.9458 281.612 24.1523 280.531C27.3589 279.45 29.3126 277.361 29.2012 273.582C26.8752 195.087 21.8529 116.697 14.1501 38.642C9.23262 41.0336 3.37666 36.7184 1.39837 31.0962C-0.580024 25.4739 0.267342 19.1419 1.30242 13.2058C1.66569 11.1225 2.11177 8.90868 3.46544 7.43619C5.19093 5.55873 7.84312 5.44173 10.238 5.43498C85.391 5.2415 160.544 5.04802 235.696 4.85566C237.334 4.85116 239.139 4.91528 240.349 6.1628C241.456 7.30232 241.748 9.11229 241.978 10.7839C242.871 17.2881 243.748 24.0678 241.991 30.3425C240.235 36.6183 234.985 42.1697 229.201 41.4025C232.364 118.87 235.528 196.337 238.691 273.805C243.848 272.531 249.877 274.688 252.449 279.897C255.02 285.106 252.675 292.977 247.525 294.281C250.81 297.369 249.225 303.941 245.609 306.514C241.993 309.089 237.394 308.826 233.139 308.386C228.884 307.948 224.342 307.478 220.569 309.745C221.46 319.08 221.348 328.535 220.239 337.841C223.899 335.374 228.853 335.632 232.296 338.468C234.687 340.438 236.859 335.646 236.837 332.302C236.784 324.515 236.731 316.727 236.679 308.941C240.41 318.614 241.449 329.588 239.611 339.935C244.212 340.34 248.813 340.746 253.413 341.151C254.796 341.273 256.294 341.449 257.309 342.519C258.319 343.584 258.58 345.254 258.757 346.802C259.889 356.797 259.72 366.98 258.256 376.921C228.447 374.584 200.161 375.331 170.53 379.688C169.787 379.688 168.587 379.935 170.029 383.758Z" fill="white"/>
<path d="M134.082 212.125C134.338 212.236 134.866 211.386 135.26 210.226C135.654 209.066 135.765 208.036 135.508 207.924C135.252 207.813 134.724 208.663 134.33 209.823C133.937 210.983 133.825 212.014 134.082 212.125Z" fill="#5E1CD2"/>
<path fill-rule="evenodd" clip-rule="evenodd" d="M367.722 221.522C367.722 221.522 363.541 114.157 365.966 60.5252C366.231 54.6701 366.52 48.6688 364.986 43.0679C363.453 37.467 359.671 32.2587 354.573 31.1732C353.568 21.1267 353.703 10.934 354.972 0.925781C428.444 1.35774 501.915 1.7897 575.387 2.22166C575.653 8.54022 575.918 14.8588 576.183 21.1773C576.435 27.1596 574.339 35.63 569.146 34.4388C567.036 33.9539 566.024 37.2443 565.913 39.6741C565.001 59.6354 564.09 79.5956 563.178 99.557C560.47 158.88 557.76 218.29 559.578 277.656C564.274 277.921 568.969 278.185 573.664 278.451C574.91 281.783 576.182 285.327 575.718 288.908C575.254 292.487 572.314 295.916 569.183 295.159C571.911 302.347 564.634 311.36 558.052 308.944C558.581 317.539 559.108 326.134 559.637 334.73C559.736 336.351 559.885 338.107 560.858 339.303C563.896 343.035 570.403 337.274 573.609 340.819C574.044 349.272 574.478 357.726 574.912 366.179C575.031 368.486 575.044 371.112 573.561 372.701C572.566 373.767 571.132 374.083 569.781 374.341C543.425 379.377 516.409 379.972 489.9 376.1C491.324 383.803 492.424 392.906 487.604 398.586C484.05 402.775 484.426 408.786 486.029 405.949C485.718 409.631 482.688 412.758 479.415 412.774C476.607 413.109 477.165 407.806 479.082 405.461C483.29 400.313 488.731 395.708 490.071 388.864C491.41 382.021 476.753 385.511 477.167 389.7C474.516 386.319 474.861 380.496 477.889 377.547C469.994 379.582 461.802 380.141 453.748 379.191C463.921 377.449 474.094 375.706 484.266 373.964C481.371 364.904 448.358 388.888 447.626 406.919C446.044 396.543 447.21 385.65 450.939 376.001C450.042 374.391 448.88 372.972 447.529 371.836C456.805 367.731 438.178 390.234 435.153 381.684C424.959 382.997 414.765 384.308 404.571 385.62C404.939 387.73 405.902 389.703 407.285 391.18C401.24 392.17 395.169 385.659 395.726 378.784C392.753 384.846 397.342 392.074 402.064 396.496C406.787 400.918 412.511 405.884 412.311 412.811C407.618 414.672 401.849 410.889 400.947 405.361C402.653 408.952 400.71 401.089 398.649 401.825C394.828 403.191 392.032 415.274 393.871 411.256C393.67 416.658 389.044 421.328 384.273 420.945C380.892 413.44 386.478 402.948 393.929 402.811C397 402.755 398.822 398.403 398.012 395.053C397.204 391.705 394.726 389.264 392.371 387.034C390.786 389.374 388.74 391.311 386.424 392.664C386.349 388.715 387.036 384.749 388.423 381.124C385.29 385.144 383.524 390.492 383.558 395.85C381.96 391.434 382.103 386.254 383.941 381.959C374.673 383.743 365.264 384.58 355.864 384.455C354.315 372.32 352.767 360.185 351.219 348.049C357.031 346.273 363.054 345.372 369.076 345.379C366.058 324.967 369.076 324.4 365.327 315.209C364.817 313.961 363.009 316.346 361.778 313.534C360.546 310.721 359.996 303.395 359.996 303.395C359.996 303.395 354.969 302.566 354.573 301.037C353.018 295.036 351.271 289.675 355.052 286.447C359.084 283.004 365.396 285.953 369.62 282.821C368.732 278.857 369.944 265.006 367.053 256.396C364.776 249.62 360.037 252.651 354.99 247.749C351.716 244.569 348.145 241.33 346.715 236.726C345.286 232.122 347.236 225.816 351.512 225.143C355.693 224.486 358.854 229.161 360.991 233.276C360.03 229.645 362.601 225.386 365.942 225.074C370.077 239.813 367.722 221.522 367.722 221.522Z" fill="white"/>
<path d="M439.845 195.402C440.394 195.402 440.84 194.395 440.84 193.152C440.84 191.91 440.394 190.902 439.845 190.902C439.295 190.902 438.849 191.91 438.849 193.152C438.849 194.395 439.295 195.402 439.845 195.402Z" fill="#5E1CD2"/>
<path fill-rule="evenodd" clip-rule="evenodd" d="M81.1235 69.7575C81.5564 70.14 81.632 70.8475 81.2927 71.3357L68.2258 90.1913C67.8864 90.6795 67.2614 90.7661 66.8284 90.3825C66.3955 90.0001 66.3199 89.2925 66.6582 88.8032L79.7261 69.9487C80.0655 69.4594 80.6905 69.3739 81.1235 69.7575Z" fill="#5E1CD2"/>
<path fill-rule="evenodd" clip-rule="evenodd" d="M98.1434 75.1573C98.5624 75.56 98.6121 76.271 98.2558 76.7434L80.767 99.9366C80.4107 100.409 79.7827 100.465 79.3637 100.063C78.9456 99.6599 78.8959 98.9501 79.2522 98.4765L96.741 75.2844C97.0973 74.8109 97.7253 74.7546 98.1434 75.1573Z" fill="#5E1CD2"/>
<path fill-rule="evenodd" clip-rule="evenodd" d="M125.888 76.6885C126.323 77.0687 126.403 77.7751 126.066 78.2667L111.681 99.2663C111.345 99.7579 110.719 99.8479 110.285 99.4677C109.85 99.0875 109.77 98.3799 110.106 97.8894L124.492 76.8898C124.828 76.3982 125.453 76.3082 125.888 76.6885Z" fill="#5E1CD2"/>
<path fill-rule="evenodd" clip-rule="evenodd" d="M164.718 74.991C165.163 75.3544 165.263 76.0574 164.942 76.5614L153.228 94.9018C152.906 95.4057 152.284 95.5193 151.838 95.156C151.392 94.7927 151.292 94.0896 151.614 93.5856L163.329 75.2441C163.65 74.7413 164.272 74.6277 164.718 74.991Z" fill="#5E1CD2"/>
<path fill-rule="evenodd" clip-rule="evenodd" d="M430.836 71.7138C431.226 72.1514 431.229 72.8634 430.842 73.3044L417.123 88.9394C416.736 89.3803 416.106 89.3837 415.716 88.9461C415.326 88.5085 415.323 87.7965 415.71 87.3555L429.429 71.7205C429.816 71.2796 430.446 71.2762 430.836 71.7138Z" fill="#5E1CD2"/>
<path fill-rule="evenodd" clip-rule="evenodd" d="M449.815 76.0636C450.196 76.5113 450.183 77.2234 449.788 77.6542L431.763 97.2612C431.367 97.6921 430.737 97.6785 430.356 97.2308C429.975 96.7831 429.987 96.0711 430.383 95.6402L448.408 76.0332C448.804 75.6024 449.434 75.6159 449.815 76.0636Z" fill="#5E1CD2"/>
<path fill-rule="evenodd" clip-rule="evenodd" d="M493.114 85.8989C493.495 86.3489 493.481 87.0609 493.083 87.4895L481.2 100.336C480.803 100.766 480.173 100.75 479.793 100.3C479.412 99.8511 479.427 99.139 479.825 98.7104L491.707 85.864C492.104 85.4343 492.734 85.4501 493.114 85.8989Z" fill="#5E1CD2"/>
<path fill-rule="evenodd" clip-rule="evenodd" d="M515.719 86.8048C516.093 87.2592 516.07 87.9713 515.668 88.3943L503.346 101.34C502.943 101.763 502.313 101.737 501.939 101.282C501.565 100.827 501.588 100.115 501.991 99.6916L514.312 86.7463C514.715 86.3233 515.344 86.3492 515.719 86.8048Z" fill="#5E1CD2"/>
<path fill-rule="evenodd" clip-rule="evenodd" d="M298.777 169.205C298.38 165.261 298.209 161.288 298.266 157.319C296.057 156.341 293.601 156.501 291.235 156.677C282.199 157.345 273.162 158.012 264.126 158.68C262.633 158.79 261.108 158.898 259.662 158.461C258.185 158.013 256.496 157.05 255.273 158.086C254.213 158.985 254.301 160.779 254.494 162.261C254.858 165.048 255.222 167.835 255.586 170.622C255.647 171.096 255.73 171.613 256.056 171.921C256.354 172.205 256.777 172.231 257.168 172.242C269.846 172.622 282.536 172.49 295.205 171.847C296.811 171.766 298.96 171.009 298.777 169.205Z" fill="white"/>
<path fill-rule="evenodd" clip-rule="evenodd" d="M342.141 102.437C342.422 101.196 341.395 99.9789 340.286 99.7123C339.177 99.4446 338.039 99.835 336.939 100.147C332.557 101.392 320.385 101.386 318.732 101.399C313.895 101.437 309.059 101.474 304.223 101.512C303.076 101.521 302.106 102.586 301.699 103.798C301.292 105.008 301.329 106.344 301.371 107.638C301.416 108.975 301.46 110.312 301.504 111.649C301.529 112.446 301.622 113.378 302.228 113.788C302.49 113.966 302.804 114.008 303.108 114.044C307.797 114.603 312.523 114.751 317.232 114.489C325.562 114.024 333.896 112.275 342.192 113.243C341.362 109.724 341.344 105.966 342.141 102.437Z" fill="white"/>
<path fill-rule="evenodd" clip-rule="evenodd" d="M492.003 381.003C492.102 380.229 492.66 379.62 493.279 379.273C494.965 378.323 497.095 378.984 498.518 380.379C499.942 381.775 500.786 383.768 501.458 385.757C501.699 386.465 501.898 387.346 501.455 387.915C501.289 388.129 501.056 388.26 500.823 388.37C498.876 389.301 496.544 389.197 494.711 388.004C492.878 386.812 491.613 384.532 491.552 382.142C492.346 382.263 492.735 383.256 493.147 384.032C494.564 386.695 497.966 387.699 500.354 386.161C498.093 383.573 495.15 381.755 492.003 381.003Z" fill="#5E1CD2"/>
<path fill-rule="evenodd" clip-rule="evenodd" d="M480.349 358.236C481.036 357.273 481.722 356.31 482.409 355.347C481.954 359.673 478.809 363.46 475.019 364.245C473.85 363.23 471.867 363.906 471.389 365.484C470.685 365.646 469.976 365.02 469.744 364.252C469.513 363.483 469.662 362.63 469.923 361.873C470.319 360.732 470.957 359.723 471.589 358.727C473.718 355.369 476.182 351.756 479.764 350.928C480.689 350.713 481.734 350.733 482.48 351.389C483.225 352.045 483.433 353.503 482.688 354.158C481.824 352.848 480.085 352.633 478.736 353.222C477.387 353.811 476.337 355.019 475.331 356.193C474.356 357.331 473.382 358.469 472.408 359.606C471.872 360.232 471.383 361.386 472.053 361.814C472.818 359.959 475.13 359.809 476.466 358.431C477.625 357.236 478.401 354.949 479.947 355.247C479.141 357.347 477.676 359.115 475.875 360.162C475.101 360.611 474.202 361.001 473.817 361.882C475.011 362.5 476.457 362.151 477.568 361.36C478.679 360.569 479.525 359.391 480.349 358.236Z" fill="#5E1CD2"/>
<path fill-rule="evenodd" clip-rule="evenodd" d="M447.963 353.779C449.851 354.156 451.898 352.96 452.718 351.002C453.539 349.045 453.061 346.497 451.607 345.084C452.026 344.503 452.837 344.432 453.424 344.78C454.011 345.13 454.395 345.808 454.616 346.516C455.323 348.78 454.535 351.367 453.157 353.194C451.78 355.024 449.893 356.249 448.047 357.436C447.192 357.987 446.297 358.55 445.315 358.619C444.333 358.687 443.239 358.099 442.982 357.026C442.897 356.675 442.915 356.272 443.11 355.983C444.066 354.567 446.32 357.928 447.349 356.578C447.101 355.498 446.854 354.417 446.607 353.336C447.052 353.512 447.499 353.687 447.963 353.779Z" fill="#5E1CD2"/>
<path fill-rule="evenodd" clip-rule="evenodd" d="M430.655 350.456C428.549 350.166 427.049 347.593 427.28 345.21C427.51 342.826 429.163 340.819 431.13 339.92C431.732 339.645 432.484 339.483 432.981 339.955C433.478 340.429 433.136 341.655 432.515 341.438C430.996 340.907 429.545 342.632 429.124 344.365C428.857 345.468 428.841 346.717 429.381 347.684C429.922 348.651 431.139 349.173 432.003 348.578C432.626 348.149 433.26 349.141 433.408 349.949C433.556 350.756 433.884 351.823 434.608 351.726C435.8 351.057 436.246 349.44 436.924 348.147C437.603 346.853 439.139 345.728 440.184 346.66C440.317 346.779 440.439 346.943 440.446 347.137C440.455 347.347 440.328 347.53 440.209 347.69C439.045 349.246 437.759 350.683 436.371 351.982C435.442 352.851 434.156 353.691 433.106 353.021C432.112 352.385 431.788 350.611 430.655 350.456Z" fill="#5E1CD2"/>
<path fill-rule="evenodd" clip-rule="evenodd" d="M440.793 374.846C439.763 373.813 438.713 372.751 438.04 371.392C437.367 370.033 437.129 368.296 437.781 366.924C437.96 366.548 438.235 366.185 438.607 366.117C438.98 366.049 439.408 366.44 439.299 366.848C438.824 368.636 439.515 370.734 440.908 371.735C441.446 372.122 442.169 372.846 441.717 373.356C441.178 373.962 442.159 374.783 442.909 374.922C444.35 375.188 445.79 375.454 447.23 375.72C446.95 377.063 445.485 377.714 444.291 377.426C443.098 377.138 442.128 376.188 441.216 375.272C441.075 375.13 440.933 374.988 440.793 374.846Z" fill="#5E1CD2"/>
<path fill-rule="evenodd" clip-rule="evenodd" d="M387.728 415.66C387.871 414.661 388.014 413.663 388.157 412.664C388.239 412.092 388.325 411.507 388.568 410.996C388.86 410.385 389.351 409.934 389.829 409.5C391.141 408.308 392.453 407.115 393.766 405.923C394.799 406.814 395.006 408.698 394.198 409.846C394.131 408.789 393.524 407.797 392.672 407.354C391.718 410.554 389.992 413.455 387.728 415.66Z" fill="#5E1CD2"/>
<path fill-rule="evenodd" clip-rule="evenodd" d="M488.973 401.02C489.457 403.957 490.453 406.786 491.885 409.297C493.013 411.275 491.98 413.862 490.948 415.905C490.483 416.11 490.043 415.426 490.12 414.868C490.197 414.31 490.558 413.866 490.792 413.366C491.708 411.407 490.57 409.083 489.561 407.182C488.552 405.282 487.684 402.69 488.973 401.02Z" fill="#5E1CD2"/>
<path fill-rule="evenodd" clip-rule="evenodd" d="M301.13 171.785C301.11 172.466 301.081 173.182 300.766 173.763C300.193 174.823 298.932 175.03 297.835 175.122C283.046 176.375 268.187 176.555 253.378 175.662C253.194 175.651 253.004 175.638 252.838 175.547C252.43 175.322 252.32 174.735 252.258 174.227C251.846 170.826 251.434 167.426 251.022 164.025C250.728 161.593 250.478 158.916 251.671 156.865C253.293 154.075 256.732 153.743 259.684 153.697C273.102 153.485 286.521 153.272 299.939 153.059C300.504 153.05 301.173 153.101 301.472 153.643C301.646 153.956 301.641 154.351 301.63 154.72C301.463 160.408 301.296 166.096 301.13 171.785ZM298.777 169.202C298.38 165.258 298.209 161.285 298.266 157.316C296.057 156.339 293.601 156.498 291.235 156.674C282.198 157.342 273.162 158.009 264.126 158.677C262.633 158.787 261.107 158.895 259.662 158.458C258.185 158.01 256.496 157.047 255.273 158.083C254.213 158.982 254.301 160.776 254.494 162.258C254.858 165.045 255.221 167.832 255.586 170.619C255.647 171.093 255.73 171.61 256.054 171.918C256.354 172.202 256.777 172.228 257.168 172.239C269.846 172.619 282.535 172.488 295.205 171.844C296.811 171.763 298.959 171.006 298.777 169.202Z" fill="#5E1CD2"/>
<path fill-rule="evenodd" clip-rule="evenodd" d="M478.121 386.397C478.797 383.706 479.995 381.184 481.604 379.059C481.576 381.944 480.233 384.774 478.121 386.397Z" fill="#5E1CD2"/>
<path fill-rule="evenodd" clip-rule="evenodd" d="M484.182 402.674C483.741 404.212 483.061 405.662 482.182 406.937C481.808 407.481 481.33 408.032 480.721 408.067C481.512 405.984 482.421 403.754 484.182 402.674Z" fill="#5E1CD2"/>
<path fill-rule="evenodd" clip-rule="evenodd" d="M495.028 410.912C496.005 411.686 496.983 412.46 497.961 413.233C498.178 413.405 498.422 413.715 498.267 413.96C496.782 413.799 495.437 412.534 495.028 410.912Z" fill="#5E1CD2"/>
<path fill-rule="evenodd" clip-rule="evenodd" d="M496.82 410.481C495.808 410.831 494.951 408.959 495.787 408.228C496.355 408.85 496.773 409.644 496.986 410.504L496.82 410.481Z" fill="#5E1CD2"/>
<path fill-rule="evenodd" clip-rule="evenodd" d="M483.964 378.276C484.701 379.332 484.725 380.851 484.328 382.118C483.93 383.386 483.17 384.459 482.424 385.507C481.728 386.485 480.846 387.56 479.739 387.465C479.549 386.613 480.248 385.88 480.819 385.283C482.554 383.466 483.691 380.933 483.964 378.276Z" fill="#5E1CD2"/>
<path fill-rule="evenodd" clip-rule="evenodd" d="M492.191 405.891C493.426 404.619 495.28 404.167 496.869 404.753C498.458 405.34 499.721 406.939 500.054 408.791C500.299 410.147 500.421 412.047 501.641 412.182C501.861 413.07 500.462 413.405 499.957 412.683C499.45 411.961 499.543 410.939 499.415 410.029C499.075 407.596 496.748 405.767 494.611 406.252C493.74 406.45 492.552 406.809 492.191 405.891Z" fill="#5E1CD2"/>
<path fill-rule="evenodd" clip-rule="evenodd" d="M400.13 421.502C399.539 419.358 400.896 416.893 400.062 414.855C399.788 414.186 399.307 413.658 398.886 413.093C397.498 411.227 396.711 408.8 396.706 406.36C396.704 405.617 397.001 404.64 397.655 404.712C398.516 404.806 398.295 406.257 398.238 407.232C398.13 409.082 399.556 410.509 400.454 412.062C401.789 414.374 401.993 417.467 400.974 419.977C400.599 420.901 401.344 421.862 401.86 422.694C403.205 424.859 403.093 428.035 401.601 430.074C401.041 429.649 401.016 428.715 401.221 427.988C401.427 427.262 401.801 426.582 401.84 425.821C401.922 424.223 400.551 423.028 400.13 421.502Z" fill="#5E1CD2"/>
<path fill-rule="evenodd" clip-rule="evenodd" d="M429.173 195.773C429.948 194.807 431.269 195.859 432.348 196.317C434.439 197.202 436.746 195.497 438.957 195.857C437.726 198.727 434.248 199.063 431.449 198.653C430.749 198.55 430.011 198.407 429.471 197.892C428.93 197.378 428.698 196.365 429.173 195.773Z" fill="#5E1CD2"/>
<path fill-rule="evenodd" clip-rule="evenodd" d="M434.613 186.631C434.203 186.041 434.266 185.206 434.349 184.461C434.407 183.932 434.467 183.402 434.526 182.872C434.664 181.626 435.119 180.039 436.231 180.029C437.392 180.019 437.835 181.731 437.859 183.044C437.879 184.181 437.826 185.406 437.215 186.311C436.604 187.215 435.235 187.526 434.613 186.631Z" fill="#5E1CD2"/>
<path fill-rule="evenodd" clip-rule="evenodd" d="M427.633 180.702C428.178 180.843 428.303 181.645 428.314 182.278C428.352 184.377 427.969 187.103 426.144 187.49C425.251 185.585 425.417 183.107 426.556 181.376C426.816 180.982 427.209 180.591 427.633 180.702Z" fill="#5E1CD2"/>
<path fill-rule="evenodd" clip-rule="evenodd" d="M431.24 183.453C431.378 183.723 431.286 184.06 431.208 184.36C430.431 187.294 431.291 190.697 433.32 192.728C431.803 193.811 429.683 192.315 429.158 190.376C428.634 188.436 429.194 186.357 429.752 184.429C429.979 183.642 430.876 182.734 431.24 183.453Z" fill="#5E1CD2"/>
<path fill-rule="evenodd" clip-rule="evenodd" d="M344.932 116.293C342.267 116.485 339.604 116.677 336.941 116.868C325.416 117.698 313.89 118.527 302.366 119.356C300.739 119.473 298.552 119.1 298.364 117.271C297.78 111.601 297.888 105.842 298.68 100.205C299.01 97.8558 301.703 97.2282 303.806 97.1494C316.538 96.6747 329.268 96.2011 341.999 95.7264C343.566 95.6679 344.956 97.0291 345.613 98.6377C346.27 100.246 346.347 102.07 346.414 103.84C346.54 107.227 346.668 110.616 346.795 114.003C346.817 114.592 346.821 115.242 346.484 115.692C346.12 116.177 345.493 116.252 344.932 116.293ZM342.141 102.439C342.422 101.198 341.394 99.9819 340.285 99.7142C339.176 99.4465 338.039 99.8368 336.939 100.15C332.557 101.394 320.385 101.388 318.731 101.402C313.894 101.439 309.058 101.477 304.222 101.514C303.076 101.523 302.105 102.589 301.698 103.8C301.291 105.01 301.329 106.345 301.371 107.64C301.415 108.978 301.46 110.314 301.503 111.652C301.529 112.449 301.622 113.381 302.228 113.79C302.49 113.968 302.804 114.009 303.108 114.045C307.796 114.604 312.523 114.754 317.232 114.491C325.562 114.026 333.895 112.277 342.192 113.246C341.362 109.727 341.344 105.968 342.141 102.439Z" fill="#5E1CD2"/>
<path fill-rule="evenodd" clip-rule="evenodd" d="M152.045 346.671C151.503 346.87 150.688 346.901 150.59 346.266C151.414 345.155 153.118 345.105 153.993 346.165C153.527 346.738 152.75 346.959 152.099 346.702L152.045 346.671Z" fill="#5E1CD2"/>
<path fill-rule="evenodd" clip-rule="evenodd" d="M439.83 176.92C440.569 177.814 441.248 178.816 441.558 179.989C441.764 180.766 440.783 181.372 440.119 181.063C439.455 180.753 439.082 179.976 438.686 179.298C438.291 178.621 437.709 177.932 436.992 177.991C436.266 178.049 435.793 176.928 436.15 176.211C436.508 175.493 437.375 175.268 438.074 175.501C438.773 175.734 439.332 176.319 439.83 176.92Z" fill="#5E1CD2"/>
<path fill-rule="evenodd" clip-rule="evenodd" d="M182.308 325.415C181.436 320.686 180.469 315.933 178.646 311.565C176.823 307.196 174.061 303.192 170.317 300.864C168.344 299.638 166.165 298.911 164.088 297.93C161.546 296.729 159.147 295.138 156.979 293.216C158.914 291.982 161.313 293.141 163.286 294.296C167.886 296.99 172.591 299.774 176.061 304.122C180.679 309.907 182.58 317.783 183.952 325.418C183.455 325.741 182.805 325.74 182.308 325.415Z" fill="#5E1CD2"/>
<path fill-rule="evenodd" clip-rule="evenodd" d="M160.742 366.238C160.751 365.86 160.825 365.413 161.131 365.263C162.103 364.783 162.431 367.881 163.307 367.206C164.326 366.421 165.766 368.138 165.234 369.397C164.703 370.654 163.025 370.834 162.045 369.986C161.066 369.138 160.709 367.632 160.742 366.238Z" fill="#5E1CD2"/>
<path fill-rule="evenodd" clip-rule="evenodd" d="M157.491 352.556C156.394 350.483 156.788 347.814 157.57 345.564C158.04 344.207 158.761 342.784 159.991 342.35C161.222 341.915 162.839 343.258 162.352 344.608C161.203 345.023 160.007 345.518 159.226 346.557C158.444 347.597 158.274 349.348 159.183 350.245C159.635 350.691 159.544 351.508 159.344 352.147C159.143 352.785 158.867 353.472 159.07 354.111C159.271 354.749 160.261 354.958 160.402 354.299C160.558 353.574 161.553 353.604 162.023 354.127C162.493 354.65 162.68 355.423 163.115 355.984C163.549 356.545 164.491 356.752 164.785 356.085C165.066 355.45 165.982 355.491 166.363 356.055C166.744 356.619 166.666 357.445 166.364 358.068C165.706 359.422 164.021 359.98 162.82 359.243C162.114 358.81 161.627 358.042 161.029 357.436C160.431 356.83 159.577 356.366 158.839 356.725C158.134 357.067 157.519 355.976 157.554 355.11C157.589 354.243 157.884 353.301 157.491 352.556Z" fill="#5E1CD2"/>
<path fill-rule="evenodd" clip-rule="evenodd" d="M131.687 210.596C133.111 209.204 133.619 206.738 132.883 204.779C132.609 204.046 132.343 202.901 133.026 202.711C135.105 204.766 135.281 208.816 133.391 211.093C133.062 211.489 132.622 211.853 132.146 211.781C131.67 211.709 131.324 210.952 131.687 210.596Z" fill="#5E1CD2"/>
<path fill-rule="evenodd" clip-rule="evenodd" d="M128.39 198.192C129.451 198.225 130.251 199.435 130.342 200.631C130.433 201.827 129.997 202.988 129.532 204.066C129.244 204.735 128.765 205.503 128.118 205.378C127.629 205.283 127.346 204.718 127.135 204.211C126.667 203.085 126.214 201.882 126.318 200.643C126.423 199.405 127.289 198.158 128.39 198.192Z" fill="#5E1CD2"/>
<path fill-rule="evenodd" clip-rule="evenodd" d="M135.842 203.819C134.931 204.1 134.427 202.641 134.455 201.575C134.48 200.631 134.599 199.643 135.088 198.877C135.575 198.11 136.793 197.19 137.257 198.459C137.721 199.728 137.444 201.649 136.58 203.101C136.394 203.413 136.162 203.721 135.842 203.819Z" fill="#5E1CD2"/>
<path fill-rule="evenodd" clip-rule="evenodd" d="M125.376 211.269C125.687 211.203 126 211.137 126.312 211.071C126.406 212.248 127.417 213.044 128.39 213.476C129.363 213.908 130.447 214.184 131.178 215.029C131.443 215.334 131.624 215.893 131.317 216.142C131.182 216.251 131.002 216.248 130.836 216.236C128.283 216.046 125.507 214.157 125.376 211.269Z" fill="#5E1CD2"/>
<path fill-rule="evenodd" clip-rule="evenodd" d="M125.04 196.515C124.344 196.337 124.325 195.077 124.897 194.597C125.469 194.118 126.27 194.227 126.954 194.45C128.463 194.947 129.852 195.903 130.933 197.193C129.055 198.139 126.71 195.16 125.04 196.515Z" fill="#5E1CD2"/>
<path fill-rule="evenodd" clip-rule="evenodd" d="M81.4935 351.516C83.3029 352.474 85.7264 350.54 85.5353 348.293C86.6998 349.432 87.9857 351.039 87.4622 352.677C87.2671 353.289 86.8401 353.768 86.3863 354.167C84.7958 355.562 82.7784 356.178 80.7889 356.531C78.7048 356.899 76.3659 356.941 74.7247 355.443C73.1044 353.964 72.6596 351.079 73.7414 349.067C74.0081 348.571 74.3853 348.106 74.883 347.968C75.9748 347.664 76.8924 349.105 76.8795 350.376C76.8665 351.646 76.3042 352.825 76.1171 354.078C76.0833 354.301 76.0624 354.533 76.1111 354.753C76.3152 355.668 77.5563 355.7 78.1723 355.064C78.7884 354.427 79.0163 353.454 79.4423 352.642C79.8683 351.83 80.7371 351.116 81.4935 351.516ZM81.5294 355.445C81.8817 355.074 82.234 354.701 82.5863 354.329C82.453 353.851 81.8857 353.608 81.5065 353.867C81.1273 354.125 81.0536 354.806 81.3651 355.162L81.5294 355.445Z" fill="#5E1CD2"/>
<path fill-rule="evenodd" clip-rule="evenodd" d="M73.179 364.949C73.602 366.298 75.2561 366.644 76.4116 366.059C76.6376 365.944 76.8674 365.788 76.97 365.532C77.2695 364.793 76.3141 364.047 76.4504 363.249C76.5659 362.574 77.3591 362.383 77.9543 362.523C78.5495 362.664 79.1625 362.982 79.7398 362.767C80.4096 362.519 80.7271 361.666 80.8953 360.892C81.0625 360.118 81.1949 359.261 81.7283 358.74C82.2628 358.22 83.3407 358.444 83.3626 359.241C83.4064 360.783 82.3653 362.083 81.2755 363.011C80.1857 363.941 78.9386 364.734 78.223 366.048C77.5442 367.295 77.1501 369.143 75.8602 369.288C75.4472 369.335 75.0381 369.168 74.6639 368.966C71.9717 367.508 70.3694 363.851 70.9755 360.547C71.2442 359.081 72.542 357.471 73.6746 358.246C74.5913 358.873 74.4082 360.442 73.9404 361.531C73.4736 362.62 72.8217 363.808 73.179 364.949Z" fill="#5E1CD2"/>
<path fill-rule="evenodd" clip-rule="evenodd" d="M145.32 265.666C146.548 284.978 157.84 301.323 168.648 316.345C171.719 320.613 174.991 325.052 179.515 327.077C188.034 330.889 198.611 325.116 206.481 330.418C165.301 330.524 124.125 333.073 83.1806 338.049C79.6573 338.478 76.0176 338.913 72.6297 337.736C69.2418 336.561 66.1456 333.323 66.0052 329.321C64.2058 278.17 62.4064 227.02 60.6079 175.87C60.2745 166.395 59.9371 156.88 58.4074 147.556C56.4049 135.353 56.3571 122.862 56.3153 110.451C56.2616 94.3135 56.2078 78.1757 56.1531 62.0391C102.565 59.7679 149.05 59.382 195.488 60.8826C197.392 64.0864 197.778 68.1056 198.096 71.9483C203.485 137 205.159 202.364 206.829 267.672C207.329 287.242 207.83 306.812 208.33 326.38C207.472 326.056 206.613 325.733 205.754 325.41C203.729 263.61 201.705 201.81 199.681 140.01C199.642 138.83 199.535 137.492 198.712 136.765C198.082 136.208 197.215 136.188 196.415 136.19C153.368 136.368 110.322 136.546 67.2752 136.722C63.9381 136.736 59.2494 138.698 60.3322 142.266C65.5613 159.495 63.7171 178.263 63.7798 196.477C63.8147 206.599 64.4576 216.704 65.1005 226.8C65.8858 239.113 66.6701 251.425 67.4543 263.738C69.3175 258.274 71.1806 252.81 73.0438 247.345C73.4757 246.078 73.8659 244.499 73.0686 243.483C67.1468 235.932 69.003 222.443 76.6745 217.282C78.1475 216.292 79.7957 215.559 81.0019 214.183C84.3968 210.311 82.7914 203.481 85.2955 198.821C89.0118 191.904 100.493 191.645 100.892 183.565C101.253 176.267 107.115 170.38 113.463 168.982C119.81 167.585 126.388 169.86 132.105 173.278C137.685 176.613 143.218 182.026 143.458 189.157C143.552 191.963 142.798 194.705 142.053 197.384C139.349 207.085 136.176 217.524 128.711 223.205C138.341 234.638 144.32 249.921 145.32 265.666ZM138.226 291.485C143.767 303.816 154.285 312.599 159.694 325.006C159.937 325.561 160.188 326.152 160.647 326.494C161.169 326.882 161.839 326.864 162.464 326.844C167.194 326.691 171.941 327.239 176.547 328.469C165.644 317.783 157.422 304.071 149.962 290.108C147.272 285.072 144.592 279.723 144.328 273.846C143.557 256.712 137.993 239.892 128.627 226.39C125.185 221.426 117.776 222.386 113.822 226.836C109.867 231.286 108.601 237.908 108.024 244.182C107.837 246.223 107.71 248.342 108.308 250.28C108.907 252.218 110.414 253.939 112.228 254.012C114.044 254.084 115.81 251.928 115.181 250.002C115.825 251.562 116.47 253.123 117.115 254.685C114.47 257.899 109.338 256.853 106.906 253.432C104.472 250.01 104.266 245.155 105.097 240.867C107.058 230.746 114.535 222.267 123.483 220.017C123.588 218.043 121.006 217.457 119.415 218.28C117.826 219.103 116.31 220.621 114.587 220.279C113.013 219.965 112.115 222.172 111.556 223.865C108.407 233.403 99.3974 238.332 92.1121 244.32C89.6279 246.362 87.1766 248.671 84.1947 249.502C81.2129 250.335 77.4936 249.101 76.4307 245.843C67.309 272.483 65.1483 302.112 70.2889 330.079C70.6541 332.068 72.2724 333.517 73.9982 334.08C75.724 334.643 77.5613 334.484 79.3518 334.32C105.903 331.893 132.454 329.466 159.005 327.038C152.681 313.265 140.784 303.354 135.364 289.097C134.1 285.77 133.209 282.247 131.603 279.114C129.173 274.372 125.21 270.723 123.225 265.721C120.83 269.446 118.433 273.171 116.036 276.896C115.498 277.735 115.747 278.898 116.017 279.888C116.619 282.083 117.247 284.336 118.525 286.121C119.804 287.908 121.905 289.138 123.874 288.567C127.889 287.403 132.462 289.363 134.785 293.243C129.875 292.197 124.964 291.15 120.053 290.103C119.343 289.952 118.596 289.782 118.045 289.252C117.577 288.803 117.308 288.149 117.053 287.518C116.14 285.249 115.226 282.982 114.313 280.714C113.516 278.736 112.735 276.348 113.751 274.503C114.611 272.942 116.399 272.473 117.74 271.429C121.441 268.55 120.956 262.179 119.27 257.473C117.583 252.767 115.056 247.921 116.03 242.963C118.027 250.298 120.069 257.742 123.795 264.155C126.546 268.89 130.157 272.954 132.679 277.85C134.908 282.175 136.22 287.022 138.226 291.485ZM59.3788 66.7288C59.4922 78.1892 59.6057 89.6497 59.7191 101.111C59.745 103.637 60.5661 107.052 62.7935 106.853C106.811 102.899 151.028 101.775 195.158 103.488C196.38 103.535 197.39 102.265 197.662 100.918C197.933 99.5702 197.652 98.1686 197.389 96.8187C195.388 86.5315 194.437 75.9833 194.559 65.4509C194.579 63.7793 192.609 63.2157 191.131 63.1853C147.867 62.2921 104.585 62.5621 61.3325 63.9941C60.9075 64.0088 60.4576 64.0312 60.1003 64.2911C59.4325 64.7759 59.3698 65.8322 59.3788 66.7288ZM199.535 131.449C199.701 122.851 199.24 114.239 198.157 105.727C194.614 107.233 190.728 107.694 186.986 107.054C183.275 106.42 179.507 106.384 175.752 106.349C158.549 106.188 141.343 106.027 124.141 106.37C103.326 106.786 82.5267 107.939 61.7415 109.277C61.1742 109.314 60.5611 109.37 60.1312 109.791C59.5718 110.337 59.525 111.28 59.525 112.115C59.5181 118.776 59.7719 125.436 60.2824 132.072C60.3133 132.473 60.3541 132.901 60.58 133.213C60.9363 133.704 61.5862 133.711 62.1466 133.677C103.251 131.172 144.452 132.788 185.616 132.831C190.288 132.837 195.022 132.812 199.535 131.449ZM103.61 179.445C102.496 182.487 102.45 186.022 100.852 188.775C97.605 194.368 89.5403 194.29 86.5038 200.03C84.0455 204.68 85.9235 211.444 82.6959 215.447C81.0726 217.46 78.5715 218.181 76.5461 219.653C72.3003 222.74 70.5287 229.234 71.8325 234.746C73.1363 240.257 77.1154 244.666 81.7752 246.862C82.6033 247.253 83.4921 247.586 84.3829 247.462C85.3881 247.322 86.2549 246.622 87.0721 245.944C92.7112 241.272 98.3494 236.6 103.989 231.927C106.065 230.207 108.22 228.381 109.341 225.763C111.241 221.326 109.87 215.326 112.866 211.745C114.023 210.363 115.683 209.584 116.721 208.087C117.759 206.59 117.632 203.787 115.986 203.393C114.191 202.963 114.664 199.736 116.089 198.43C117.514 197.125 119.539 196.307 120.075 194.325C120.581 192.455 119.82 189.658 121.457 189.023C122.398 188.659 123.331 189.488 124.165 190.101C127.84 192.81 133.39 191.393 135.679 187.162C136.569 185.517 138.857 187.267 139.274 189.137C139.69 191.005 139.753 193.415 141.322 194.169C142.877 191.411 142.409 187.662 140.885 184.883C139.361 182.104 136.961 180.104 134.562 178.277C129.64 174.527 124.239 171.112 118.32 170.608C112.402 170.104 105.882 173.247 103.61 179.445ZM121.253 203.524C119.884 209.195 112.835 211.654 112.256 217.496C113.574 219.13 115.993 218.357 117.622 217.133C118.453 216.509 119.255 215.767 119.708 214.763C120.162 213.759 120.19 212.443 119.552 211.576C118.997 210.823 120.247 209.802 120.989 210.31C121.729 210.816 121.915 211.909 122.14 212.854C122.621 214.87 123.604 216.73 124.948 218.162C126.068 219.355 127.703 220.28 129.115 219.591C129.697 219.308 130.159 218.785 130.59 218.258C135.057 212.804 137.835 205.614 138.339 198.204C138.397 197.362 138.364 196.368 137.754 195.881C137.155 195.403 136.342 195.68 135.615 195.792C134.889 195.904 133.923 195.595 133.889 194.767C134.719 193.858 136.14 193.749 137.072 194.521C137.465 194.846 137.851 194.078 137.837 193.527C137.797 191.954 137.349 190.396 136.563 189.096C134.832 191.278 132.587 193.046 130.038 193.583C127.49 194.12 124.634 193.255 122.991 190.99C121.999 193.382 121.559 196.064 121.725 198.7C121.785 199.647 120.568 199.938 119.773 199.633C118.978 199.329 118.07 198.796 117.37 199.322C116.691 199.831 116.768 201.069 117.311 201.756C117.854 202.443 118.685 202.72 119.47 202.965C120.064 203.152 120.658 203.338 121.253 203.524ZM71.1637 258.243C71.2851 257.66 71.3409 256.899 70.8771 256.612C69.7076 260.497 68.6098 264.411 67.5837 268.347C67.1896 269.859 66.8224 271.565 67.4991 272.942C67.9868 272.966 68.2376 272.302 68.3491 271.764C69.2876 267.257 70.2262 262.75 71.1637 258.243Z" fill="#5E1CD2"/>
<path fill-rule="evenodd" clip-rule="evenodd" d="M181.087 371.939C206.427 369.63 231.885 368.954 257.294 369.916C256.553 360.26 255.813 350.605 255.071 340.949C229.149 342.27 203.227 343.59 177.304 344.911C176.507 353.488 173.564 361.797 168.903 368.626C166.658 371.915 168.587 376.564 170.03 380.385C171.472 384.207 171.587 390.002 168.045 391.112C163.371 388.511 160.04 383.054 159.548 377.192C140.379 378.137 121.209 379.082 102.04 380.027C94.9147 380.378 86.1205 382.095 83.9996 389.791C83.1715 383.727 76.0862 382.333 70.658 382.415C54.4362 382.662 38.2143 382.908 21.9923 383.154C21.745 374.784 21.4977 366.415 21.2504 358.045C21.2024 356.423 21.1689 354.724 21.8124 353.272C23.5402 349.379 28.5025 349.793 32.2537 350.793C31.0474 337.166 29.8421 323.54 28.6359 309.913C23.0429 311.36 24.8423 295.15 19.2124 296.402C15.8043 297.16 12.5912 293.622 11.8639 289.783C11.1366 285.945 12.1975 281.993 13.2473 278.252C16.4113 277.16 20.9458 278.241 24.1523 277.159C27.3589 276.078 29.3126 273.99 29.2012 270.21C26.8752 191.715 21.8529 113.323 14.1501 35.27C9.23262 37.6616 3.37666 33.3464 1.39837 27.7242C-0.580024 22.1019 0.267342 15.7699 1.30242 9.83265C1.66569 7.74934 2.11177 5.53667 3.46544 4.06418C5.19093 2.18672 7.84312 2.0686 10.238 2.06297C85.391 1.86949 160.544 1.67602 235.696 1.48253C237.334 1.47916 239.139 1.54327 240.349 2.79079C241.456 3.93031 241.748 5.73915 241.978 7.41188C242.871 13.916 243.748 20.6958 241.991 26.9705C240.235 33.2452 234.985 38.7977 229.201 38.0294C232.364 115.498 235.528 192.965 238.691 270.433C243.848 269.159 249.877 271.316 252.449 276.525C255.02 281.733 252.675 289.605 247.525 290.909C250.81 293.997 249.225 300.569 245.609 303.142C241.993 305.716 237.394 305.454 233.139 305.014C228.884 304.574 224.342 304.106 220.569 306.373C221.46 315.708 221.349 325.163 220.239 334.469C223.899 332.002 228.853 332.259 232.296 335.096C234.687 337.066 236.859 332.274 236.837 328.93C236.784 321.143 236.731 313.355 236.679 305.568C240.41 315.242 241.449 326.216 239.611 336.562C244.212 336.968 248.813 337.373 253.413 337.779C254.796 337.901 256.294 338.077 257.309 339.147C258.319 340.212 258.58 341.882 258.757 343.43C259.889 353.425 259.72 363.608 258.256 373.548C228.447 371.212 198.432 372.234 168.801 376.591C171.874 373 176.681 372.34 181.087 371.939ZM92.6475 346.578C94.7863 339.856 102.598 338.649 108.917 338.568C111.826 338.532 114.734 338.495 117.644 338.457C123.935 338.378 130.25 338.3 136.489 339.211C137.265 340.257 138.042 341.304 138.818 342.35C141.305 341.456 144.257 342.641 145.688 345.108C149.944 340.113 155.194 335.767 161.264 334.757C167.333 333.746 174.238 336.918 176.558 343.336C177.396 340.081 178.444 336.626 180.863 334.624C183.284 332.62 187.469 333.108 188.459 336.308C192.365 331.412 200.26 331.821 203.754 337.099C203.793 334.528 206.877 333.625 209.104 334.146C211.331 334.665 213.788 335.783 215.735 334.454C217.831 333.024 217.959 329.704 217.84 326.939C213.936 236.195 210.031 145.451 206.128 54.7072C206.1 54.0694 206.049 53.3685 205.649 52.9186C205.232 52.4484 204.579 52.4112 203.99 52.4034C152.921 51.6688 101.853 50.9342 50.7835 50.1997C49.6868 50.1839 48.4576 50.2267 47.6932 51.1165C46.9717 51.9556 46.9249 53.2516 46.9209 54.4215C46.696 127.22 49.2618 200.032 54.6093 272.58C54.8203 275.431 56.2127 279.275 58.6382 278.46C58.7606 286.649 58.884 294.84 59.0064 303.029C59.0343 304.884 58.9288 307.053 57.5802 308.112C56.8318 308.702 55.8694 308.786 54.9587 308.851C47.5021 309.382 40.0456 309.913 32.5891 310.444C33.7535 323.468 34.918 336.491 36.0824 349.515C42.7557 349.767 49.4489 349.371 56.0624 348.331C52.8935 337.02 51.7788 324.98 52.8079 313.173C55.0443 313.381 55.7489 316.651 55.8634 319.185C56.1371 325.262 56.4108 331.34 56.6835 337.418C56.8288 340.633 57.0438 344.073 58.7964 346.611C60.5481 349.15 64.4376 350.011 66.1485 347.438C72.2425 338.27 86.0986 337.82 92.6475 346.578ZM234.27 233.896C231.568 168.674 228.865 103.452 226.163 38.2308C156.185 37.431 86.2081 36.6311 16.2309 35.8313C26.2854 115.435 29.1713 195.945 32.0437 276.29C38.6293 277.171 45.3066 277.17 51.8923 276.285C49.9963 244.551 48.1013 212.817 46.2053 181.083C45.5315 169.805 44.8577 158.524 44.5273 147.227C44.2526 137.828 44.2158 128.423 44.179 119.019C44.0944 97.2576 44.0088 75.4953 43.9242 53.733C43.9142 51.3426 44.578 48.131 46.693 48.1423C99.7806 48.4359 152.867 48.7294 205.954 49.023C207.122 49.0298 208.5 49.1614 209.106 50.2908C209.399 50.8375 209.436 51.5068 209.464 52.1469C211.619 100.127 213.773 148.11 215.458 196.115C215.739 204.12 216.007 212.126 216.275 220.132C216.832 236.783 217.389 253.435 217.947 270.087C217.999 271.676 219.921 272.058 221.326 271.953C226.151 271.591 230.977 271.229 235.802 270.868C235.291 258.544 234.781 246.22 234.27 233.896ZM3.15203 25.8119C4.15317 29.7468 7.06642 33.3701 10.6864 33.5276C63.3 35.8269 116.014 32.3532 168.625 34.7357C189.947 35.7009 211.429 37.6188 232.528 34.0191C233.971 33.7739 235.489 33.4623 236.604 32.397C237.647 31.3992 238.177 29.8874 238.592 28.416C240.303 22.3528 240.716 15.8284 239.788 9.55143C239.556 7.98219 239.148 6.26898 237.967 5.40168C237.088 4.75486 235.971 4.73124 234.921 4.72786C203.227 4.64237 171.532 4.55688 139.839 4.47139C134.714 4.45789 129.59 4.44438 124.466 4.43088C107.679 4.38476 90.8928 4.33978 74.1056 4.29478C52.2834 4.23629 30.4602 4.1778 8.63994 4.55914C5.09101 4.62101 3.6213 9.6493 3.13521 13.6224C2.63917 17.6788 2.15079 21.877 3.15203 25.8119ZM141.979 347.87C125.751 348.534 109.523 349.199 93.2954 349.864C94.634 350.201 94.7704 352.371 94.1911 353.776C93.6119 355.181 92.6166 356.511 92.746 358.054C93.1561 362.9 91.8264 367.907 89.1232 371.698C87.2083 374.385 84.4604 377.735 86.0459 380.683C90.6022 378.145 95.8333 377.784 100.905 377.469C119.54 376.309 138.174 375.151 156.808 373.992C158.022 368.886 151.346 364.123 153.199 359.27C153.622 358.161 152.946 356.94 152.303 355.976C149.675 352.034 146.343 347.691 141.979 347.87ZM24.6762 358.385C25.0695 365.55 25.8652 372.686 27.0574 379.737C43.0294 379.682 59.0005 379.628 74.9725 379.573C75.7697 379.569 76.9043 378.847 76.3868 378.161C73.8518 374.801 71.3169 371.442 68.782 368.083C67.3707 366.212 65.9066 364.22 65.5235 361.801C64.9452 358.144 66.7815 353.64 64.4197 351.056C52.0137 353.437 39.3897 354.364 26.8165 353.818C25.0885 353.743 24.5692 356.435 24.6762 358.385ZM156.801 365.961C158.267 368.779 157.365 373.05 159.699 374.982C163.642 378.246 163.005 386.69 167.688 388.274C168.523 387.324 169.38 386.337 169.81 385.088C170.239 383.84 170.126 382.251 169.225 381.381C166.754 378.997 166.184 374.828 166.859 371.235C167.534 367.642 169.234 364.424 170.69 361.139C172.376 357.337 173.762 353.365 174.824 349.285C175.298 347.461 175.614 345.206 174.387 343.907C173.365 342.826 171.549 342.792 170.918 341.378C170.59 340.642 170.701 339.721 170.337 339.006C169.94 338.227 169.103 337.912 168.337 337.668C165.838 336.873 163.253 336.163 160.673 336.479C158.092 336.794 155.488 338.323 154.367 340.968C153.418 343.209 150.081 342.119 148.537 343.887C146.972 345.677 148.437 348.745 150.229 350.239C152.019 351.734 154.329 353.024 154.785 355.487C155.193 357.7 153.867 360.04 154.48 362.192C154.897 363.656 156.111 364.634 156.801 365.961ZM16.4113 293.062C17.1799 294.433 18.8599 294.607 20.2959 294.61C31.553 294.638 42.7667 293.19 53.9505 291.744C55.9729 291.483 56.4695 288.389 56.1301 286.122C55.7897 283.853 55.2901 281.099 56.8348 279.601C43.954 278.556 30.9966 278.71 18.1375 280.059C17.5065 280.126 16.8181 280.226 16.3802 280.743C15.9044 281.306 15.8825 282.169 15.889 282.947C15.9097 285.436 15.9305 287.926 15.9512 290.415C15.9587 291.326 15.9796 292.292 16.4113 293.062ZM88.8645 346.285C86.4738 344.437 83.6692 342.502 80.8735 343.35C80.1539 343.569 79.3348 343.952 78.7187 343.478C75.6334 341.102 70.7178 343.076 69.6498 347.12C69.3095 348.411 68.0733 349.078 67.3229 350.123C66.5715 351.168 66.8502 353.34 68.0295 353.144C69.0089 352.982 69.5095 354.591 69.0925 355.605C68.6755 356.62 67.7937 357.295 67.295 358.262C65.9673 360.837 67.8056 363.963 69.5443 366.204C72.2594 369.703 74.9745 373.202 77.6896 376.701C79.9787 379.65 82.3176 382.694 83.494 386.385C85.183 385.112 84.8346 382.233 84.2146 380.047C83.5945 377.863 83.0123 375.119 84.5042 373.561C85.1213 372.917 86.0309 372.587 86.4111 371.74C86.7913 370.892 85.7184 369.606 85.2467 370.393C84.4037 371.8 82.9974 373.053 81.5264 372.706C80.0544 372.359 79.4124 369.601 80.8128 368.985C81.3034 370.11 82.8112 369.495 83.699 368.743C84.965 367.671 86.231 366.599 87.497 365.527C89.1392 364.137 90.9097 362.516 91.2302 360.225C91.5726 357.783 90.236 354.847 91.7269 353.038C90.4808 351.82 91.1775 349.395 90.3265 347.8C89.9822 347.154 89.4148 346.71 88.8645 346.285ZM218.459 289.816C219.87 289.041 221.474 288.879 223.036 288.726C231.058 287.937 239.072 287.048 247.076 286.06C248.072 285.937 249.103 285.8 249.964 285.222C251.7 284.057 252.23 281.283 251.45 279.18C250.671 277.076 248.86 275.636 246.934 274.957C245.008 274.277 242.955 274.256 240.937 274.276C234.255 274.344 227.577 274.806 220.938 275.66C219.761 275.812 218.443 276.066 217.759 277.159C217.144 278.139 217.257 279.459 217.395 280.65C217.75 283.705 218.104 286.761 218.459 289.816ZM27.5819 305.247C28.5025 306.904 30.4253 307.498 32.1531 307.373C33.8799 307.249 35.5341 306.558 37.2409 306.238C42.7358 305.21 48.6626 308.036 53.8002 305.608C54.2093 305.415 54.6243 305.173 54.8721 304.759C55.1169 304.349 55.1627 303.833 55.1966 303.342C55.3588 300.99 55.4155 298.63 55.3657 296.273C55.3578 295.905 55.3299 295.493 55.0851 295.251C54.896 295.063 54.6273 295.03 54.3765 295.008C45.2817 294.216 36.2496 297.425 27.13 297.274C26.5178 297.264 26.3652 298.229 26.4287 298.917C26.5388 300.106 26.6745 301.293 26.8354 302.474C26.9668 303.436 27.124 304.423 27.5819 305.247ZM246.433 291.823C246.351 291.332 246.238 290.814 245.916 290.472C245.46 289.988 244.753 290.022 244.13 290.087C236.864 290.843 229.602 291.65 222.346 292.51C221.354 292.628 220.214 292.851 219.72 293.829C219.117 295.024 219.868 296.486 219.916 297.86C219.947 298.72 219.703 299.646 220.061 300.407C220.536 301.417 221.755 301.534 222.768 301.514C225.707 301.457 228.645 301.348 231.584 301.238C236.167 301.067 240.751 300.896 245.334 300.725C246.238 300.691 246.623 299.42 246.708 298.402C246.892 296.21 246.798 293.987 246.433 291.823ZM218.454 337.46C218.082 337.229 217.807 336.83 217.433 336.604C216.638 336.123 215.65 336.549 214.906 337.127C214.163 337.704 213.476 338.45 212.597 338.677C211.717 338.903 210.585 338.27 210.633 337.252C210.702 335.855 208.914 335.304 207.797 335.907C206.679 336.511 205.869 337.718 204.715 338.226C203.948 338.563 203.046 338.584 202.416 339.182C201.787 339.782 201.93 341.32 202.75 341.255C211.231 340.581 219.71 339.906 228.19 339.233C228.905 339.175 229.735 339.041 230.089 338.338C230.628 337.271 229.459 335.98 228.372 336.004C227.284 336.029 226.336 336.789 225.326 337.245C223.576 338.035 221.622 337.909 219.742 337.77C219.3 337.738 218.842 337.7 218.454 337.46ZM115.858 345.774C122.423 345.307 128.988 344.839 135.552 344.372C135.941 344.344 136.368 344.297 136.636 343.98C137.16 343.363 136.598 342.259 135.866 342.05C135.133 341.842 134.379 342.18 133.647 342.388C132.914 342.597 132.023 342.625 131.528 341.98C130.487 340.624 128.438 343.361 127.085 342.422C125.219 341.127 123.016 340.374 120.834 340.58C118.652 340.787 116.511 342.017 115.274 344.06C114.969 344.562 114.776 345.371 115.241 345.679C115.423 345.801 115.648 345.788 115.858 345.774ZM186.86 334.987C185.856 334.346 184.627 335.212 183.818 336.139C182.848 337.251 182 339.042 182.855 340.267C183.441 341.109 184.524 341.185 185.471 341.192C187.725 341.208 189.98 341.223 192.235 341.238C192.639 341.241 193.061 341.238 193.421 341.031C193.975 340.712 194.239 339.997 194.46 339.342C194.9 338.037 195.233 336.282 194.222 335.477C193.845 335.176 193.366 335.104 192.908 335.041C191.933 334.907 190.797 334.835 190.129 335.649C189.225 336.75 189.589 339.022 188.324 339.48C187.679 338.004 188.127 335.797 186.86 334.987ZM111.017 345.242C111.339 345.225 111.669 345.206 111.961 345.054C113.014 344.502 112.766 342.514 111.751 341.879C110.735 341.245 109.456 341.617 108.429 342.23C107.498 342.787 106.39 342.172 105.396 341.779C102.655 340.696 99.4043 341.488 97.3023 343.751C96.7609 344.334 96.2673 345.237 96.6325 345.975C101.428 345.73 106.222 345.486 111.017 345.242ZM196.054 341.513C196.219 341.633 196.423 341.652 196.619 341.662C198.111 341.74 199.973 341.138 200.213 339.472C200.352 338.506 199.763 337.475 198.926 337.222C197.494 336.79 196.228 338.472 195.829 340.085C195.704 340.585 195.668 341.231 196.054 341.513ZM181.41 338.233C181.478 337.527 181.134 336.465 180.576 336.793C180.004 337.984 179.654 339.31 179.553 340.66C179.516 341.152 179.523 341.686 179.779 342.085C180.035 342.485 180.626 342.632 180.903 342.251C181.037 342.066 181.066 341.813 181.089 341.575C181.195 340.461 181.303 339.347 181.41 338.233ZM87.4114 367.76C86.9745 368.739 87.286 370.062 88.0951 370.665C88.6604 369.88 89.2616 368.933 89.0526 367.949C88.8426 366.966 87.291 366.664 87.1606 367.666M141.885 345.585C142.472 345.684 143.215 345.586 143.431 344.962C142.804 344.436 141.958 344.259 141.206 344.496C141.031 344.754 140.967 345.102 141.035 345.417C141.279 345.602 141.591 345.667 141.877 345.594L141.885 345.585Z" fill="#5E1CD2"/>
<path fill-rule="evenodd" clip-rule="evenodd" d="M528.344 62.5984C530.647 62.667 533.255 62.8965 534.706 64.9202C535.9 66.5839 535.901 68.9293 535.844 71.07C533.62 155.362 530.967 239.638 527.886 323.896C525.126 299.337 526.16 274.46 527.199 249.731C529.022 206.345 530.846 162.959 532.669 119.571C532.534 126.953 530.264 136.808 523.735 136.591C487.607 135.387 451.48 134.184 415.352 132.98C412.549 132.887 409.122 132.32 408.128 129.357C447.817 130.572 487.506 131.786 527.194 133.001C528.911 125.967 529.367 118.544 528.525 111.31C488.711 110.426 448.897 109.542 409.084 108.657C408.258 106.217 411.554 104.842 413.866 104.898C451.523 105.811 489.181 106.725 526.839 107.639C528.833 107.688 529.588 104.743 529.72 102.494C530.281 92.8987 530.843 83.3044 531.404 73.709C531.527 71.6032 531.579 69.2477 530.337 67.6717C529.05 66.0395 526.883 65.8775 524.95 65.8314C486.289 64.9101 447.627 63.9888 408.966 63.0675C406.405 120.387 405.608 177.805 406.576 235.186C410.533 223.588 418.833 213.976 428.996 209.223C422.264 202.114 420.082 190.053 423.805 180.527C419.519 183.025 415.899 175.301 417.204 170.054C417.588 168.509 419.719 167.021 420.281 165.483C421.626 161.804 420.995 159.492 420.364 154.436C419.734 149.38 425.858 147.945 429.516 150.406C433.175 152.868 436.795 157.175 440.877 155.808C445.829 154.149 451.08 158.587 452.947 164.029C454.814 169.472 454.191 175.546 453.539 181.337C452.6 189.695 450.203 199.94 442.898 201.625C442.352 207.584 450.109 208.442 455.336 209.441C462.464 210.803 468.326 216.942 471.755 224.136C475.184 231.329 476.532 239.527 477.613 247.606C481.075 273.49 482.183 300.53 474.709 325.307C491.729 325.003 508.749 324.697 525.77 324.391C515.872 328.288 505.171 328.44 494.69 328.468C466.03 328.544 437.368 328.002 408.726 326.841C407.004 326.771 405.128 326.634 403.843 325.336C402.466 323.946 402.192 321.664 402.034 319.585C401.014 306.198 401.135 292.7 402.393 279.338C403.454 294.186 404.514 309.033 405.574 323.881C419.483 324.464 433.391 325.045 447.3 325.628C452.583 325.848 459.282 325.027 460.927 319.349C460.917 321.222 460.906 323.095 460.896 324.967C464.54 325.864 468.337 325.954 472.01 325.231C478.395 304.025 479.688 280.893 475.715 258.948C471.42 258.429 467.775 263.031 466.868 267.804C465.961 272.576 466.977 277.505 467.477 282.353C468.741 294.626 466.578 307.32 461.372 318.185C465.821 303.803 466.801 288.072 464.179 273.128C462.271 262.256 458.485 251.612 458.873 240.536C461.993 247.148 463.487 254.73 463.144 262.214C467.382 260.222 471.621 258.231 475.859 256.24C475.169 245.454 474.387 234.297 469.838 224.785C465.288 215.273 455.871 207.834 446.485 209.929C445.652 216.559 441.663 223.524 435.751 223.952C429.838 224.379 425.285 214.125 430.328 210.609C418.399 214.423 411.384 227.973 405.626 240.38C403.325 245.339 400.968 250.588 401.13 256.185C401.294 261.781 404.977 267.668 409.932 267.642C415.671 260.694 419.005 251.27 419.085 241.765C420.574 266.345 420.511 291.045 418.897 315.615C418.734 318.106 416.366 321.407 415.137 319.331C418.155 300.626 418.513 281.377 416.193 262.545C410.847 270.875 403.499 277.546 395.151 281.652C391.318 283.537 390.333 289.257 390.959 293.927C391.586 298.599 393.281 303.202 392.737 307.886C392.195 312.57 389.952 316.884 384.134 315.209C378.317 313.534 369.909 316.238 369.909 316.238C369.909 316.238 371 337.821 372.893 344.245C380.195 350.65 391.155 338.518 399.588 342.795C404.834 345.456 410.809 345.308 416.555 345.112C420.143 344.99 425.189 341.94 423.099 338.642C413.968 339.726 404.735 339.712 395.607 338.599C391.681 338.12 388.808 333.827 388.121 329.434C387.434 325.039 388.436 320.557 389.43 316.238C390.037 319.771 389.817 325.941 390.155 328.468C390.491 330.995 391.472 335.178 393.929 335.45C413.199 337.578 419.663 336.194 433.151 332.638C435.522 332.014 438.443 331.226 440.877 331.242C443.791 331.263 446.515 333.038 449.342 333.83C459.158 336.579 469.446 335.721 479.529 334.845C498.988 333.155 518.449 331.465 537.908 329.776C545.829 314.704 530.804 291.83 541.478 279.112C542.38 202.646 543.281 126.181 544.181 49.716C493.557 47.9083 442.882 47.9117 392.257 49.7262C388.798 116.101 388.142 182.661 390.292 249.107C387.082 239.62 386.857 229.229 386.716 219.073C385.956 164.186 386.528 109.275 388.432 54.4237C388.519 51.9107 388.749 49.0692 390.491 47.5045C391.799 46.3301 393.599 46.23 395.269 46.1816C445.341 44.7327 495.446 44.7575 545.517 46.2559C545.517 100.648 548.069 147.19 544.748 197.508C542.905 225.425 544.181 251.294 544.181 279.338C549.003 279.993 555.378 277.41 556.916 272.204C558.452 266.998 557.86 261.341 557.371 255.881C550.784 182.545 565.743 108.54 560.873 35.0339C498.482 31.8043 435.976 31.4004 373.557 33.8223C372.265 33.8729 370.849 33.9798 369.909 34.9821C368.857 36.1059 368.776 37.935 368.767 39.5717C368.419 100.222 368.071 160.872 367.722 221.522C364.454 167.947 363.541 114.157 365.966 60.5252C366.23 54.6701 366.52 48.6688 364.986 43.0679C363.453 37.467 359.671 32.2587 354.573 31.1732C353.568 21.1267 353.703 10.934 354.972 0.925781C428.444 1.35774 501.915 1.7897 575.387 2.22166C575.653 8.54022 575.918 14.8588 576.183 21.1773C576.435 27.1596 574.339 35.63 569.146 34.4388C567.036 33.9539 566.023 37.2443 565.913 39.6741C565.001 59.6354 564.09 79.5956 563.178 99.557C560.47 158.88 557.76 218.29 559.578 277.656C564.274 277.921 568.969 278.185 573.664 278.451C574.91 281.783 576.182 285.327 575.718 288.908C575.254 292.487 572.313 295.916 569.183 295.159C571.911 302.347 564.634 311.36 558.052 308.944C558.581 317.539 559.108 326.134 559.637 334.73C559.736 336.351 559.885 338.107 560.858 339.303C563.895 343.035 570.403 337.274 573.609 340.819C574.044 349.272 574.478 357.726 574.912 366.179C575.031 368.486 575.043 371.112 573.561 372.701C572.566 373.767 571.132 374.083 569.781 374.341C543.425 379.377 516.409 379.972 489.899 376.1C491.324 383.803 492.424 392.906 487.604 398.586C484.05 402.775 477.256 406.039 478.875 411.548C481.789 410.851 484.426 408.786 486.029 405.949C485.718 409.631 482.688 412.758 479.415 412.774C476.607 413.109 477.165 407.806 479.082 405.461C483.29 400.313 488.731 395.708 490.071 388.864C491.41 382.021 484.475 373.658 479.569 377.944C476.619 380.521 476.753 385.511 477.167 389.7C474.516 386.319 474.861 380.496 477.888 377.547C469.994 379.582 461.802 380.141 453.748 379.191C463.921 377.449 474.094 375.706 484.266 373.964C481.371 364.904 482.126 354.442 486.283 346.033C479.917 345.241 473.438 345.642 467.186 347.214C465.438 347.654 463.65 348.216 462.251 349.483C460.782 350.812 459.895 352.779 459.093 354.703C452.279 371.029 448.358 388.888 447.626 406.919C446.044 396.543 447.21 385.65 450.939 376.001C450.042 374.391 448.879 372.972 447.529 371.836C456.805 367.731 461.254 353.548 456.338 343.756C455.565 342.216 454.608 340.796 453.52 339.523C446.983 331.866 435.446 330.53 427.672 336.532C424.351 341.257 425.956 342.848 424.549 345.65C423.69 347.36 421.787 348.432 420.969 350.2C420.664 350.861 420.587 351.849 420.281 352.511C422.554 354.608 425.404 355.893 428.33 356.14C428.042 359.688 427.753 363.236 427.464 366.782C429.124 367.11 430.784 367.436 432.445 367.763C430.222 370.264 432.204 375.476 435.339 375.376C438.302 386.027 441.266 396.68 444.229 407.333C441.203 398.784 438.178 390.234 435.153 381.684C424.959 382.997 414.765 384.308 404.571 385.62C404.939 387.73 405.902 389.703 407.285 391.18C401.24 392.17 395.169 385.659 395.726 378.784C392.753 384.846 397.342 392.074 402.064 396.496C406.787 400.918 412.511 405.884 412.311 412.811C407.618 414.672 401.849 410.889 400.947 405.361C402.653 408.952 406.34 411.208 409.933 410.861C407.597 408.208 405.26 405.555 402.923 402.903C404.65 404.074 406.378 405.245 408.104 406.415C408.881 404.136 407.087 401.579 404.996 400.963C402.905 400.347 400.709 401.089 398.649 401.825C394.827 403.191 390.876 404.64 387.906 407.684C384.937 410.728 383.233 415.847 385.003 419.913C388.787 418.441 392.032 415.274 393.871 411.256C393.67 416.658 389.044 421.328 384.273 420.945C380.892 413.44 386.478 402.948 393.929 402.811C397 402.755 398.821 398.403 398.012 395.053C397.204 391.705 394.726 389.264 392.371 387.034C390.786 389.374 388.739 391.311 386.423 392.664C386.349 388.715 387.036 384.749 388.423 381.124C385.29 385.144 383.524 390.492 383.558 395.85C381.96 391.434 382.103 386.254 383.941 381.959C374.673 383.743 365.264 384.58 355.864 384.455C354.315 372.32 352.766 360.185 351.219 348.049C357.031 346.273 363.054 345.372 369.076 345.379C366.058 324.967 369.076 324.4 365.327 315.209C364.817 313.961 363.009 316.346 361.778 313.534C360.545 310.721 359.996 303.395 359.996 303.395C359.996 303.395 354.969 302.566 354.573 301.037C353.018 295.036 351.271 289.675 355.052 286.447C359.083 283.004 365.396 285.953 369.62 282.821C368.033 275.738 367.725 268.291 368.723 261.071C371.205 265.841 370.321 271.903 371.686 277.217C373.052 282.531 379.487 286.996 382.564 282.692C378.055 273.605 372.011 260.536 365.903 252.733C361.999 247.746 356.46 248.937 352.406 243.429C348.352 237.923 347.149 236.831 345.72 232.226C344.291 227.622 346.241 221.316 350.516 220.643C354.697 219.986 357.858 224.662 359.996 228.776C359.035 225.145 361.605 220.886 364.947 220.575C369.082 235.313 376.575 248.831 386.504 259.467C389.62 262.806 395.908 265.049 397.147 260.403C394.938 256.498 398.777 252.022 400.914 248.066C403.496 243.284 403.61 237.368 403.648 231.765C404.026 176.098 404.403 120.431 404.781 64.7627C404.811 60.3823 410.053 59.1135 413.928 59.2282C452.066 60.352 490.205 61.4757 528.344 62.5984ZM357.418 29.1686C357.993 29.667 358.775 29.6895 359.499 29.6895C374.369 29.7052 389.239 29.721 404.108 29.7356C412.726 29.7446 421.343 29.7536 429.961 29.7626C446.464 29.7794 462.967 29.7963 479.47 29.8132C509.028 29.8436 538.587 29.8739 568.144 29.9043C569.753 29.9054 571.659 29.7266 572.476 28.1607C572.892 27.3609 572.905 26.3822 572.907 25.4542C572.917 19.2065 572.927 12.9577 572.936 6.71001C572.937 6.05982 572.916 5.341 572.521 4.86854C572.1 4.36459 571.416 4.32746 570.803 4.32297C500.7 3.85501 430.597 3.38706 360.495 2.91797C359.626 2.91235 358.654 2.95284 358.048 3.65703C357.502 4.29147 357.435 5.26002 357.399 6.14531C357.132 12.7091 356.865 19.2729 356.597 25.8378C356.548 27.0369 356.576 28.4363 357.418 29.1686ZM484.23 364.444C483.794 363.957 482.982 364.473 482.87 365.155C482.756 365.836 483.085 366.501 483.406 367.092C484.535 369.163 485.806 371.253 487.672 372.462C489.482 373.634 491.642 373.841 493.722 374.022C500.883 374.644 508.044 375.266 515.205 375.889C519.809 376.289 524.421 376.689 529.039 376.599C543.38 376.319 557.421 371.321 571.765 371.243C572.943 371.236 573.267 369.42 573.212 368.09C572.93 361.17 572.647 354.252 572.365 347.333C572.289 345.459 571.632 342.96 569.978 343.112C542.642 345.624 515.173 346.276 487.768 345.062C487.927 351.334 486.316 357.647 483.226 362.86C486.185 363.007 489.159 362.749 492.062 362.092C489.867 361.276 487.552 360.872 485.24 360.902C489.14 358.559 494.461 359.869 497.147 363.831C497.395 364.196 497.632 364.62 497.597 365.079C497.527 365.971 496.561 366.333 495.779 366.478C491.78 367.223 487.116 367.661 484.23 364.444ZM384.735 368.88C384.084 369.415 383.167 369.949 382.545 369.372C382.244 369.093 382.133 368.636 382.037 368.21C381.545 366.006 381.048 363.75 381.233 361.486C381.418 359.223 382.419 356.911 384.223 355.902C386.053 354.879 388.21 353.091 387.65 350.871C387.116 348.759 384.639 348.408 382.696 348.471C373.616 348.765 364.536 349.06 355.455 349.353C355.084 349.366 354.672 349.397 354.417 349.7C354.109 350.064 354.166 350.641 354.242 351.137C355.688 360.478 357.134 369.82 358.58 379.162C358.692 379.891 358.859 380.712 359.428 381.08C359.803 381.322 360.262 381.3 360.693 381.27C366.585 380.859 372.464 380.222 378.317 379.359C383.13 378.648 388.806 378.118 392.045 382.204C392.023 378.598 394.421 375.662 396.084 372.586C397.749 369.509 398.478 364.875 395.878 362.786C393.185 360.623 390.844 357.903 389.006 354.8C387.879 356.397 389.241 358.637 389.518 360.656C389.986 364.078 387.215 366.848 384.735 368.88ZM347.028 226.312C347.122 227.317 347.686 228.177 348.229 228.981C350.797 232.779 353.365 236.576 355.932 240.375C353.01 237.714 350.089 235.052 347.167 232.392C350.216 239.852 355.936 245.863 362.741 248.757C363.874 249.238 365.049 249.646 366.058 250.4C367.823 251.72 368.87 253.93 369.896 256.023C373.404 263.169 377.491 269.954 382.086 276.266C384.136 279.082 386.87 282.063 390.062 281.53C396.853 280.395 403.168 275.997 407.118 269.653C405.297 267.489 403.476 265.326 401.655 263.161C401.023 262.411 400.347 261.628 399.464 261.349C398.582 261.069 397.448 261.52 397.236 262.528C396.602 265.537 393.18 266.842 390.565 265.931C387.949 265.02 385.996 262.608 384.178 260.296C375.458 249.207 366.368 237.273 364.267 222.627C362.739 221.775 361.733 224.547 361.778 226.473C361.826 228.616 361.876 230.76 361.926 232.903C357.123 230.683 355.471 222.024 350.281 222.05C352.681 226.713 355.353 231.197 358.275 235.463C353.969 233.106 350.423 229.022 348.418 224.111C347.523 224.146 346.934 225.305 347.028 226.312ZM542.515 323.003C541.88 326.683 540.117 330.3 537.191 332.069C535.1 333.334 532.653 333.543 530.287 333.726C514.627 334.943 498.965 336.162 483.305 337.379C485.051 340.03 487.259 342.95 490.184 342.878C512.122 342.338 534.06 341.797 555.999 341.257C556.771 341.238 557.664 341.151 558.103 340.432C558.438 339.883 558.383 339.154 558.314 338.492C557.35 329.2 556.386 319.908 555.422 310.615C555.359 310.018 555.273 309.363 554.875 308.963C554.408 308.49 553.699 308.55 553.077 308.639C550.349 309.025 547.622 309.41 544.895 309.796C543.787 309.954 542.351 310.543 542.466 311.797C542.809 315.528 543.149 319.322 542.515 323.003ZM408.404 382.529C415.995 381.879 423.553 380.75 431.032 379.148C432.356 378.865 433.979 378.202 434.07 376.684C432.517 376.821 430.933 375.796 430.251 374.212C429.57 372.629 429.836 370.587 430.892 369.292C429.696 369.333 428.441 369.358 427.373 368.749C426.304 368.139 425.517 366.668 425.97 365.415C426.709 363.373 426.784 361.034 426.178 358.937C425.815 357.678 424.952 356.338 423.784 356.448C421.781 356.636 419.778 354.913 419.405 352.68C419.032 350.447 420.343 348.017 422.269 347.368C422.161 346.799 421.484 346.708 420.969 346.747C410.995 347.508 401.019 348.269 391.043 349.029C390.697 349.056 390.286 349.131 390.141 349.487C390.052 349.708 390.1 349.965 390.155 350.2C391.097 354.262 393.473 357.877 396.643 360.068C395.048 358.221 396.484 354.734 398.701 354.119C400.919 353.506 403.21 354.962 404.764 356.852C406.319 358.742 407.398 361.075 408.919 362.998C409.363 363.56 409.863 364.122 410.016 364.854C410.17 365.587 409.778 366.523 409.113 366.538C408.819 366.545 408.546 366.375 408.29 366.212C405.113 364.176 401.936 362.14 398.759 360.105C399.434 358.667 401.414 359.149 402.509 360.205C403.604 361.263 404.564 362.763 405.997 362.921C405.382 361.731 404.767 360.54 404.152 359.351C403.232 357.573 401.775 355.521 400.014 356.046C398.588 356.473 397.963 358.521 398.352 360.13C398.74 361.737 399.833 362.986 400.884 364.156C402.527 365.987 404.816 367.964 406.905 366.857C407.528 366.526 408.131 367.632 407.783 368.303C407.436 368.976 406.649 369.156 405.961 369.141C403.991 369.1 402.061 367.968 400.898 366.172C400.492 368.735 400.085 371.3 399.68 373.865C402.344 374.89 404.42 377.654 404.884 380.79C405.116 382.366 406.995 382.649 408.404 382.529ZM441.661 157.391C440.122 157.472 438.689 158.318 437.159 158.534C435.268 158.8 433.285 158.03 431.937 156.508C430.243 154.596 425.119 149.657 423.303 151.522C421.487 153.386 421.111 160.693 423.203 164.639C423.6 165.388 423.207 166.392 422.607 166.942C422.008 167.493 421.245 167.754 420.578 168.194C418.702 169.432 417.763 172.229 418.439 174.562C419.116 176.895 421.337 178.522 423.498 178.265C421.931 176.1 422.127 172.575 423.921 170.648C425.717 168.723 428.842 168.684 430.673 170.566C431.853 171.779 433.728 171.521 435.188 170.793C436.648 170.067 437.978 168.948 439.543 168.593C441.591 168.131 443.843 169.188 444.998 171.156C446.153 173.123 446.14 175.879 444.968 177.833C443.866 179.667 444.799 182.585 446.682 183.2C448.566 183.816 450.732 181.911 450.667 179.696C450.559 176.032 452.843 172.638 452.572 168.984C452.344 165.909 450.368 163.397 448.386 161.276C446.506 159.262 444.248 157.255 441.661 157.391ZM426.15 172.022C424.225 172.522 423.564 175.889 425.119 177.265C426.463 175.931 428.622 175.791 430.091 176.943C429.34 178.383 427.29 177.592 425.998 178.408C424.905 179.097 424.653 180.722 424.549 182.132C424.268 185.95 424.202 189.789 424.351 193.617C424.45 196.168 424.657 198.769 425.562 201.107C426.468 203.446 428.19 205.512 430.393 206.073C432.325 206.564 434.375 205.843 436.021 204.599C437.665 203.355 438.971 201.626 440.226 199.897C441.819 197.702 443.389 195.429 444.34 192.802C445.293 190.174 445.569 187.115 444.554 184.518C443.718 182.377 443.344 180.005 443.474 177.669C443.578 175.811 443.937 173.719 442.908 172.266C441.655 170.497 439.177 170.864 437.346 171.791C435.517 172.718 433.665 174.07 431.681 173.737C429.761 173.414 428.042 171.529 426.15 172.022ZM355.157 296.541C355.156 297.458 355.372 298.441 355.709 299.156C356.597 301.037 364.657 299.197 365.903 299.057C373.046 298.249 380.19 297.443 387.333 296.636C388.429 296.512 389.751 296.194 390.093 295.012C390.263 294.426 390.126 293.788 389.987 293.192C389.664 291.796 389.342 290.398 389.018 289.002C388.824 288.161 388.608 287.278 388.067 286.659C387.161 285.628 385.696 285.685 384.416 285.812C375.74 286.68 367.064 287.546 358.389 288.412C357.24 288.527 355.892 288.789 355.387 289.962C355.166 290.475 355.161 291.069 355.161 291.64C355.159 293.274 355.158 294.908 355.157 296.541ZM540.059 291.068C540.383 291.577 541.025 291.628 541.581 291.63C551.433 291.684 561.285 291.738 571.137 291.792C571.786 291.796 572.48 291.784 573.019 291.375C573.914 290.696 573.995 289.27 573.986 288.053C573.975 286.587 573.956 285.083 573.484 283.719C573.011 282.354 571.978 281.137 570.688 280.982C561.418 279.865 552.134 283.628 542.836 282.88C541.473 282.77 540.277 284.081 539.861 285.551C539.445 287.023 539.624 288.613 539.808 290.143C539.847 290.466 539.891 290.803 540.059 291.068ZM539.655 296.935C539.393 300.071 539.586 303.255 540.225 306.321C548.399 306.005 556.567 305.484 564.722 304.76C566.07 304.64 567.84 304 567.741 302.474C567.639 300.872 567.536 299.271 567.433 297.668C567.399 297.143 567.354 296.584 567.067 296.17C566.673 295.603 565.964 295.492 565.328 295.429C557.391 294.644 549.405 294.486 541.449 294.958C541.003 294.985 540.522 295.029 540.181 295.355C539.792 295.729 539.704 296.36 539.655 296.935ZM389.677 301.717C389.536 300.5 388.057 300.31 386.977 300.447C379.24 301.43 371.502 302.413 363.765 303.395C363.436 303.437 363.09 303.487 362.823 303.708C362.295 304.146 362.302 305.025 362.374 305.761C362.595 308.031 363.03 310.504 364.603 311.936C366.727 313.869 369.815 313.036 372.483 312.396C377.449 311.205 382.608 311.045 387.625 311.927C388.722 312.12 389.754 311.095 390.117 309.911C390.479 308.725 390.34 307.428 390.195 306.185C390.022 304.696 389.85 303.207 389.677 301.717ZM440.902 218.354C441.73 217.118 442.489 215.821 443.171 214.476C443.691 213.449 444.18 212.255 443.877 211.122C443.68 210.385 443.179 209.814 442.765 209.202C441.478 207.295 440.979 204.734 441.441 202.393C441.481 202.193 441.525 201.98 441.465 201.787C441.225 201.032 440.249 201.753 439.884 202.441C438.31 205.409 435.595 207.572 432.593 208.252C431.939 208.399 432.112 209.547 431.768 210.112C430.328 212.475 427.36 215.606 430.091 219.267C432.142 222.016 432.577 222.621 433.151 222.82C436.11 223.847 439.033 221.143 440.902 218.354ZM462.396 345.472C463.203 345.308 464.009 345.144 464.817 344.98C466.387 344.66 468.013 344.315 469.316 343.272C471.035 341.896 472.108 339.379 474.155 338.817C474.651 338.681 475.338 338.104 474.917 337.776C474.815 337.696 474.682 337.695 474.557 337.697C469.061 337.775 463.569 338.05 458.089 338.523C458.771 340.551 459.565 342.53 460.464 344.446C460.643 344.827 460.845 345.226 461.184 345.422C461.551 345.633 461.991 345.556 462.396 345.472ZM478.509 338.912C475.967 339.33 473.797 341.219 472.052 343.35C471.63 343.866 472.072 344.88 472.691 344.815C473.365 343.615 474.814 343.409 476.07 343.325C478.952 343.134 481.834 342.941 484.716 342.749C483.962 339.973 481.05 338.493 478.509 338.912ZM445.874 192.68C445.343 195.063 444.168 197.258 442.545 198.895C442.648 199.503 443.436 199.445 443.95 199.225C445.795 198.441 447.699 197.582 449.044 195.952C450.388 194.322 450.994 191.692 449.908 189.832C449.537 191.688 446.285 190.834 445.874 192.68ZM397.772 379.286C397.144 380.732 397.12 382.812 398.353 383.622C399.408 384.316 400.922 383.509 401.269 382.187C401.616 380.864 400.886 379.359 399.773 378.794C399.083 378.444 398.105 378.519 397.772 379.286ZM392.34 344.814C392.154 345.15 392.104 345.711 392.437 345.833C394.709 345.56 397.001 345.499 399.282 345.65C399.538 345.026 399.197 344.255 398.684 343.883C398.172 343.512 397.539 343.437 396.931 343.374C395.262 343.199 393.233 343.21 392.34 344.814ZM493.721 365.067C494.102 364.931 494.365 364.46 494.308 364.013C491.654 363.388 488.878 363.43 486.24 364.138C488.475 365.6 491.259 365.947 493.721 365.067ZM384.109 365.365C384.746 362.576 385.192 359.733 385.443 356.866C382.969 358.543 382.296 362.83 384.109 365.365ZM446.998 189.771C448.008 189.678 448.898 188.705 449.015 187.568C449.131 186.432 448.461 185.254 447.497 184.903C446.587 185.929 446.086 187.402 446.152 188.853C446.165 189.134 446.212 189.442 446.404 189.62C446.565 189.769 446.79 189.79 446.998 189.771ZM401.971 385.915C401.151 384.956 399.667 384.858 398.754 385.703C399.139 386.689 399.822 387.522 400.663 388.032C401.049 388.266 401.52 388.431 401.918 388.225C402.643 387.848 402.526 386.565 401.971 385.915ZM402.66 379.926C402.741 378.513 402.068 377.078 400.988 376.359C399.908 375.64 398.472 375.671 397.417 376.436C399.368 377.132 401.176 378.335 402.66 379.926ZM387.694 360.724C387.535 360.29 387.211 359.835 386.799 359.899C385.949 361.426 385.955 363.508 386.815 365.028C387.855 363.986 388.225 362.175 387.694 360.724ZM388.692 387.47C388.49 387.861 388.673 388.435 389.048 388.591C389.598 388.275 389.96 387.58 389.937 386.882C389.493 386.67 388.915 386.989 388.79 387.516M529.414 108.767C529.157 108.981 528.899 109.195 528.641 109.409C528.802 109.74 528.964 110.07 529.125 110.401C529.596 110.129 529.786 109.376 529.513 108.863L529.414 108.767Z" fill="#5E1CD2"/>
<path d="M425.911 196.525C426.46 196.525 426.906 195.518 426.906 194.275C426.906 193.033 426.46 192.025 425.911 192.025C425.361 192.025 424.915 193.033 424.915 194.275C424.915 195.518 425.361 196.525 425.911 196.525Z" fill="#5E1CD2"/>
<path fill-rule="evenodd" clip-rule="evenodd" d="M446.725 319.213C448.422 296.571 449.846 273.902 451.816 251.288C452.307 245.648 466.386 252.481 460.543 301.396C459.62 309.129 455.219 320.685 447.365 321.278L446.725 319.213Z" fill="#5E1CD2"/>
<path fill-rule="evenodd" clip-rule="evenodd" d="M101.59 241.665C102.853 272.401 98.4787 252.929 109.809 261.16C111.737 262.561 113.846 265.175 113.479 267.733C112.76 272.755 108.475 276.307 106.952 281.095C99.4143 304.793 133.576 305.852 139.772 309.58C141.844 310.826 140.913 315.379 139.542 317.532C134.56 325.359 105.571 304.107 101.919 300.93C77.7165 279.881 80.5998 266.109 99.6004 244.486L101.59 241.665Z" fill="#5E1CD2"/>
<path d="M125.34 210.026C125.89 210.026 126.335 209.019 126.335 207.776C126.335 206.534 125.89 205.526 125.34 205.526C124.79 205.526 124.345 206.534 124.345 207.776C124.345 209.019 124.79 210.026 125.34 210.026Z" fill="#5E1CD2"/>
</svg>
